NimbusRomNo9L-MediItal.ufo
<glyph name="two" format="1">
  <advance width="500"/>
  <unicode hex="0032"/>
  <outline>
    <contour>
      <point x="419" y="191" type="line"/>
      <point x="340" y="0" type="line"/>
      <point x="-27" y="0" type="line"/>
      <point x="-27" y="24" type="line"/>
      <point x="63" y="114" type="line" smooth="yes"/>
      <point x="251" y="301"/>
      <point x="312" y="392"/>
      <point x="312" y="483" type="curve" smooth="yes"/>
      <point x="312" y="552"/>
      <point x="277" y="593"/>
      <point x="219" y="593" type="curve" smooth="yes"/>
      <point x="167" y="593"/>
      <point x="126" y="566"/>
      <point x="86" y="507" type="curve"/>
      <point x="64" y="519" type="line"/>
      <point x="92" y="573"/>
      <point x="108" y="597"/>
      <point x="137" y="623" type="curve" smooth="yes"/>
      <point x="181" y="663"/>
      <point x="228" y="683"/>
      <point x="281" y="683" type="curve" smooth="yes"/>
      <point x="374" y="683"/>
      <point x="446" y="609"/>
      <point x="446" y="515" type="curve" smooth="yes"/>
      <point x="446" y="440"/>
      <point x="396" y="358"/>
      <point x="302" y="278" type="curve" smooth="yes"/>
      <point x="106" y="111" type="line"/>
      <point x="255" y="111" type="line" smooth="yes"/>
      <point x="333" y="111"/>
      <point x="356" y="125"/>
      <point x="394" y="191" type="curve"/>
    </contour>
  </outline>
</glyph>
<glyph name="six" format="1">
  <advance width="500"/>
  <unicode hex="0036"/>
  <outline>
    <contour>
      <point x="503" y="679" type="curve"/>
      <point x="509" y="655" type="line"/>
      <point x="374" y="604"/>
      <point x="292" y="530"/>
      <point x="231" y="409" type="curve"/>
      <point x="261" y="419"/>
      <point x="273" y="422"/>
      <point x="293" y="422" type="curve" smooth="yes"/>
      <point x="386" y="422"/>
      <point x="443" y="357"/>
      <point x="443" y="251" type="curve" smooth="yes"/>
      <point x="443" y="103"/>
      <point x="334" y="-15"/>
      <point x="197" y="-15" type="curve" smooth="yes"/>
      <point x="88" y="-15"/>
      <point x="23" y="64"/>
      <point x="23" y="195" type="curve" smooth="yes"/>
      <point x="23" y="336"/>
      <point x="98" y="475"/>
      <point x="224" y="569" type="curve"/>
      <point x="305" y="628"/>
      <point x="369" y="653"/>
    </contour>
    <contour>
      <point x="251" y="382" type="curve" smooth="yes"/>
      <point x="219" y="382"/>
      <point x="210" y="373"/>
      <point x="189" y="320" type="curve" smooth="yes"/>
      <point x="156" y="238"/>
      <point x="135" y="148"/>
      <point x="135" y="95" type="curve" smooth="yes"/>
      <point x="135" y="42"/>
      <point x="153" y="17"/>
      <point x="190" y="17" type="curve" smooth="yes"/>
      <point x="215" y="17"/>
      <point x="238" y="32"/>
      <point x="251" y="56" type="curve" smooth="yes"/>
      <point x="284" y="119"/>
      <point x="319" y="253"/>
      <point x="319" y="315" type="curve" smooth="yes"/>
      <point x="319" y="361"/>
      <point x="298" y="382"/>
    </contour>
  </outline>
</glyph>
<glyph name="eight" format="1">
  <advance width="500"/>
  <unicode hex="0038"/>
  <outline>
    <contour>
      <point x="333" y="381" type="curve"/>
      <point x="333" y="376" type="line"/>
      <point x="394" y="309"/>
      <point x="419" y="257"/>
      <point x="419" y="193" type="curve" smooth="yes"/>
      <point x="419" y="74"/>
      <point x="325" y="-13"/>
      <point x="197" y="-13" type="curve" smooth="yes"/>
      <point x="82" y="-13"/>
      <point x="3" y="54"/>
      <point x="3" y="153" type="curve" smooth="yes"/>
      <point x="3" y="238"/>
      <point x="59" y="296"/>
      <point x="183" y="340" type="curve"/>
      <point x="183" y="345" type="line"/>
      <point x="127" y="404"/>
      <point x="109" y="441"/>
      <point x="109" y="499" type="curve" smooth="yes"/>
      <point x="109" y="605"/>
      <point x="190" y="683"/>
      <point x="300" y="683" type="curve" smooth="yes"/>
      <point x="354" y="683"/>
      <point x="408" y="662"/>
      <point x="442" y="628" type="curve" smooth="yes"/>
      <point x="464" y="605"/>
      <point x="476" y="575"/>
      <point x="476" y="540" type="curve" smooth="yes"/>
      <point x="476" y="469"/>
      <point x="436" y="425"/>
    </contour>
    <contour>
      <point x="209" y="321" type="curve"/>
      <point x="193" y="310"/>
      <point x="193" y="310"/>
      <point x="190" y="307" type="curve" smooth="yes"/>
      <point x="129" y="262"/>
      <point x="100" y="209"/>
      <point x="100" y="141" type="curve" smooth="yes"/>
      <point x="100" y="64"/>
      <point x="138" y="17"/>
      <point x="199" y="17" type="curve" smooth="yes"/>
      <point x="261" y="17"/>
      <point x="306" y="72"/>
      <point x="306" y="147" type="curve" smooth="yes"/>
      <point x="306" y="199"/>
      <point x="295" y="219"/>
    </contour>
    <contour>
      <point x="310" y="403" type="curve"/>
      <point x="367" y="463"/>
      <point x="383" y="493"/>
      <point x="383" y="544" type="curve" smooth="yes"/>
      <point x="383" y="608"/>
      <point x="351" y="650"/>
      <point x="302" y="650" type="curve" smooth="yes"/>
      <point x="254" y="650"/>
      <point x="220" y="609"/>
      <point x="220" y="553" type="curve" smooth="yes"/>
      <point x="220" y="504"/>
      <point x="241" y="468"/>
    </contour>
  </outline>
</glyph>
<glyph name="A" format="1">
  <advance width="667"/>
  <unicode hex="0041"/>
  <outline>
    <contour>
      <point x="593" y="25" type="curve"/>
      <point x="593" y="0" type="line"/>
      <point x="289" y="0" type="line"/>
      <point x="289" y="25" type="line"/>
      <point x="353" y="31"/>
      <point x="368" y="42"/>
      <point x="368" y="84" type="curve" smooth="yes"/>
      <point x="368" y="97"/>
      <point x="366" y="117"/>
      <point x="360" y="156" type="curve" smooth="yes"/>
      <point x="359" y="163"/>
      <point x="356" y="184"/>
      <point x="353" y="208" type="curve"/>
      <point x="138" y="208" type="line"/>
      <point x="79" y="106" type="line" smooth="yes"/>
      <point x="69" y="89"/>
      <point x="64" y="73"/>
      <point x="64" y="60" type="curve" smooth="yes"/>
      <point x="64" y="36"/>
      <point x="83" y="25"/>
      <point x="129" y="25" type="curve"/>
      <point x="129" y="0" type="line"/>
      <point x="-67" y="0" type="line"/>
      <point x="-67" y="25" type="line"/>
      <point x="-31" y="33"/>
      <point x="-16" y="46"/>
      <point x="16" y="95" type="curve" smooth="yes"/>
      <point x="388" y="683" type="line"/>
      <point x="413" y="683" type="line"/>
      <point x="509" y="111" type="line" smooth="yes"/>
      <point x="522" y="35"/>
      <point x="527" y="30"/>
    </contour>
    <contour>
      <point x="161" y="248" type="line"/>
      <point x="346" y="248" type="line"/>
      <point x="309" y="491" type="line"/>
    </contour>
  </outline>
</glyph>
<glyph name="F" format="1">
  <advance width="667"/>
  <unicode hex="0046"/>
  <outline>
    <contour>
      <point x="515" y="472" type="line"/>
      <point x="441" y="199" type="line"/>
      <point x="413" y="204" type="line"/>
      <point x="416" y="223"/>
      <point x="417" y="234"/>
      <point x="417" y="248" type="curve" smooth="yes"/>
      <point x="417" y="316"/>
      <point x="387" y="336"/>
      <point x="280" y="338" type="curve"/>
      <point x="226" y="137" type="line" smooth="yes"/>
      <point x="225" y="135"/>
      <point x="224" y="129"/>
      <point x="222" y="122" type="curve" smooth="yes"/>
      <point x="214" y="97"/>
      <point x="211" y="81"/>
      <point x="211" y="69" type="curve" smooth="yes"/>
      <point x="211" y="38"/>
      <point x="226" y="29"/>
      <point x="282" y="25" type="curve"/>
      <point x="282" y="0" type="line"/>
      <point x="-13" y="0" type="line"/>
      <point x="-13" y="25" type="line"/>
      <point x="39" y="33"/>
      <point x="51" y="44"/>
      <point x="67" y="97" type="curve"/>
      <point x="190" y="546" type="line" smooth="yes"/>
      <point x="196" y="568"/>
      <point x="200" y="592"/>
      <point x="200" y="606" type="curve" smooth="yes"/>
      <point x="200" y="627"/>
      <point x="189" y="636"/>
      <point x="158" y="639" type="curve" smooth="yes"/>
      <point x="153" y="640"/>
      <point x="141" y="642"/>
      <point x="127" y="644" type="curve"/>
      <point x="127" y="669" type="line"/>
      <point x="660" y="669" type="line"/>
      <point x="617" y="479" type="line"/>
      <point x="590" y="484" type="line"/>
      <point x="590" y="540"/>
      <point x="584" y="567"/>
      <point x="564" y="590" type="curve" smooth="yes"/>
      <point x="537" y="621"/>
      <point x="486" y="637"/>
      <point x="413" y="637" type="curve" smooth="yes"/>
      <point x="373" y="637"/>
      <point x="360" y="628"/>
      <point x="350" y="593" type="curve" smooth="yes"/>
      <point x="289" y="370" type="line"/>
      <point x="420" y="371"/>
      <point x="440" y="382"/>
      <point x="487" y="476" type="curve"/>
    </contour>
  </outline>
</glyph>
<glyph name="G" format="1">
  <advance width="722"/>
  <unicode hex="0047"/>
  <outline>
    <contour>
      <point x="706" y="330" type="line"/>
      <point x="706" y="304" type="line"/>
      <point x="653" y="300"/>
      <point x="646" y="292"/>
      <point x="627" y="222" type="curve" smooth="yes"/>
      <point x="579" y="41" type="line"/>
      <point x="551" y="28" type="line" smooth="yes"/>
      <point x="494" y="2"/>
      <point x="394" y="-18"/>
      <point x="317" y="-18" type="curve" smooth="yes"/>
      <point x="142" y="-18"/>
      <point x="21" y="92"/>
      <point x="21" y="251" type="curve" smooth="yes"/>
      <point x="21" y="404"/>
      <point x="108" y="555"/>
      <point x="240" y="632" type="curve" smooth="yes"/>
      <point x="301" y="667"/>
      <point x="372" y="685"/>
      <point x="448" y="685" type="curve" smooth="yes"/>
      <point x="494" y="685"/>
      <point x="527" y="679"/>
      <point x="572" y="664" type="curve" smooth="yes"/>
      <point x="591" y="657"/>
      <point x="599" y="655"/>
      <point x="608" y="655" type="curve" smooth="yes"/>
      <point x="628" y="655"/>
      <point x="639" y="663"/>
      <point x="650" y="685" type="curve"/>
      <point x="681" y="685" type="line"/>
      <point x="630" y="464" type="line"/>
      <point x="601" y="468" type="line"/>
      <point x="599" y="536"/>
      <point x="592" y="565"/>
      <point x="570" y="598" type="curve" smooth="yes"/>
      <point x="548" y="630"/>
      <point x="509" y="649"/>
      <point x="462" y="649" type="curve" smooth="yes"/>
      <point x="417" y="649"/>
      <point x="374" y="633"/>
      <point x="336" y="601" type="curve" smooth="yes"/>
      <point x="245" y="524"/>
      <point x="177" y="357"/>
      <point x="177" y="208" type="curve" smooth="yes"/>
      <point x="177" y="86"/>
      <point x="235" y="20"/>
      <point x="341" y="20" type="curve" smooth="yes"/>
      <point x="380" y="20"/>
      <point x="421" y="33"/>
      <point x="435" y="50" type="curve" smooth="yes"/>
      <point x="439" y="55"/>
      <point x="439" y="55"/>
      <point x="462" y="133" type="curve" smooth="yes"/>
      <point x="489" y="225"/>
      <point x="493" y="242"/>
      <point x="493" y="268" type="curve" smooth="yes"/>
      <point x="493" y="277"/>
      <point x="487" y="288"/>
      <point x="481" y="292" type="curve" smooth="yes"/>
      <point x="470" y="298"/>
      <point x="462" y="300"/>
      <point x="419" y="304" type="curve"/>
      <point x="419" y="330" type="line"/>
    </contour>
  </outline>
</glyph>
<glyph name="P" format="1">
  <advance width="611"/>
  <unicode hex="0050"/>
  <outline>
    <contour>
      <point x="113" y="644" type="curve"/>
      <point x="113" y="669" type="line"/>
      <point x="400" y="669" type="line" smooth="yes"/>
      <point x="539" y="669"/>
      <point x="613" y="615"/>
      <point x="613" y="514" type="curve" smooth="yes"/>
      <point x="613" y="394"/>
      <point x="506" y="317"/>
      <point x="340" y="317" type="curve" smooth="yes"/>
      <point x="314" y="317"/>
      <point x="295" y="318"/>
      <point x="259" y="322" type="curve"/>
      <point x="205" y="123" type="line" smooth="yes"/>
      <point x="201" y="107"/>
      <point x="195" y="74"/>
      <point x="195" y="64" type="curve" smooth="yes"/>
      <point x="195" y="37"/>
      <point x="211" y="28"/>
      <point x="267" y="25" type="curve"/>
      <point x="267" y="0" type="line"/>
      <point x="-27" y="0" type="line"/>
      <point x="-27" y="25" type="line"/>
      <point x="25" y="33"/>
      <point x="37" y="44"/>
      <point x="53" y="97" type="curve"/>
      <point x="176" y="546" type="line" smooth="yes"/>
      <point x="182" y="568"/>
      <point x="186" y="592"/>
      <point x="186" y="606" type="curve" smooth="yes"/>
      <point x="186" y="627"/>
      <point x="175" y="636"/>
      <point x="144" y="639" type="curve" smooth="yes"/>
      <point x="139" y="640"/>
      <point x="127" y="642"/>
    </contour>
    <contour>
      <point x="333" y="593" type="curve" smooth="yes"/>
      <point x="269" y="354" type="line"/>
      <point x="286" y="353"/>
      <point x="297" y="352"/>
      <point x="311" y="352" type="curve" smooth="yes"/>
      <point x="381" y="352"/>
      <point x="418" y="375"/>
      <point x="444" y="434" type="curve" smooth="yes"/>
      <point x="458" y="465"/>
      <point x="467" y="511"/>
      <point x="467" y="546" type="curve" smooth="yes"/>
      <point x="467" y="604"/>
      <point x="436" y="637"/>
      <point x="383" y="637" type="curve" smooth="yes"/>
      <point x="364" y="637"/>
      <point x="353" y="633"/>
      <point x="344" y="622" type="curve" smooth="yes"/>
      <point x="340" y="617"/>
      <point x="340" y="617"/>
    </contour>
  </outline>
</glyph>
<glyph name="b" format="1">
  <advance width="500"/>
  <unicode hex="0062"/>
  <outline>
    <contour>
      <point x="76" y="642" type="curve"/>
      <point x="76" y="669" type="line"/>
      <point x="165" y="679"/>
      <point x="214" y="686"/>
      <point x="284" y="699" type="curve"/>
      <point x="194" y="371" type="line"/>
      <point x="245" y="438"/>
      <point x="281" y="462"/>
      <point x="332" y="462" type="curve" smooth="yes"/>
      <point x="398" y="462"/>
      <point x="444" y="411"/>
      <point x="444" y="338" type="curve" smooth="yes"/>
      <point x="444" y="159"/>
      <point x="287" y="-13"/>
      <point x="124" y="-13" type="curve" smooth="yes"/>
      <point x="59" y="-13"/>
      <point x="-14" y="19"/>
      <point x="-14" y="47" type="curve" smooth="yes"/>
      <point x="-14" y="52"/>
      <point x="-3" y="96"/>
      <point x="6" y="128" type="curve" smooth="yes"/>
      <point x="100" y="455" type="line" smooth="yes"/>
      <point x="126" y="546"/>
      <point x="139" y="599"/>
      <point x="139" y="612" type="curve" smooth="yes"/>
      <point x="139" y="635"/>
      <point x="125" y="642"/>
    </contour>
    <contour>
      <point x="275" y="394" type="curve" smooth="yes"/>
      <point x="242" y="394"/>
      <point x="210" y="364"/>
      <point x="184" y="307" type="curve" smooth="yes"/>
      <point x="169" y="272"/>
      <point x="146" y="209"/>
      <point x="135" y="170" type="curve" smooth="yes"/>
      <point x="127" y="138"/>
      <point x="109" y="56"/>
      <point x="109" y="47" type="curve" smooth="yes"/>
      <point x="109" y="32"/>
      <point x="122" y="20"/>
      <point x="140" y="20" type="curve" smooth="yes"/>
      <point x="183" y="20"/>
      <point x="222" y="51"/>
      <point x="256" y="111" type="curve" smooth="yes"/>
      <point x="292" y="173"/>
      <point x="319" y="266"/>
      <point x="319" y="325" type="curve" smooth="yes"/>
      <point x="319" y="371"/>
      <point x="304" y="394"/>
    </contour>
  </outline>
</glyph>
<glyph name="d" format="1">
  <advance width="500"/>
  <unicode hex="0064"/>
  <outline>
    <contour>
      <point x="427" y="131" type="curve"/>
      <point x="449" y="115" type="line"/>
      <point x="394" y="27"/>
      <point x="349" y="-11"/>
      <point x="300" y="-11" type="curve" smooth="yes"/>
      <point x="262" y="-11"/>
      <point x="240" y="12"/>
      <point x="240" y="51" type="curve" smooth="yes"/>
      <point x="240" y="66"/>
      <point x="243" y="81"/>
      <point x="251" y="118" type="curve"/>
      <point x="194" y="23"/>
      <point x="148" y="-13"/>
      <point x="85" y="-13" type="curve" smooth="yes"/>
      <point x="24" y="-13"/>
      <point x="-21" y="40"/>
      <point x="-21" y="112" type="curve" smooth="yes"/>
      <point x="-21" y="269"/>
      <point x="129" y="462"/>
      <point x="251" y="462" type="curve" smooth="yes"/>
      <point x="280" y="462"/>
      <point x="299" y="453"/>
      <point x="323" y="429" type="curve"/>
      <point x="341" y="497" type="line" smooth="yes"/>
      <point x="364" y="581"/>
      <point x="370" y="606"/>
      <point x="370" y="615" type="curve" smooth="yes"/>
      <point x="370" y="633"/>
      <point x="355" y="643"/>
      <point x="329" y="643" type="curve" smooth="yes"/>
      <point x="308" y="643" type="line"/>
      <point x="308" y="670" type="line"/>
      <point x="408" y="678"/>
      <point x="457" y="685"/>
      <point x="517" y="699" type="curve"/>
      <point x="406" y="294" type="line" smooth="yes"/>
      <point x="371" y="167"/>
      <point x="349" y="80"/>
      <point x="349" y="71" type="curve" smooth="yes"/>
      <point x="349" y="65"/>
      <point x="355" y="59"/>
      <point x="360" y="59" type="curve" smooth="yes"/>
      <point x="375" y="59"/>
      <point x="400" y="86"/>
    </contour>
    <contour>
      <point x="271" y="420" type="curve" smooth="yes"/>
      <point x="241" y="422"/>
      <point x="205" y="390"/>
      <point x="173" y="333" type="curve" smooth="yes"/>
      <point x="137" y="268"/>
      <point x="106" y="176"/>
      <point x="103" y="122" type="curve" smooth="yes"/>
      <point x="101" y="87"/>
      <point x="119" y="59"/>
      <point x="144" y="59" type="curve" smooth="yes"/>
      <point x="173" y="59"/>
      <point x="202" y="84"/>
      <point x="230" y="133" type="curve"/>
      <point x="264" y="196"/>
      <point x="308" y="328"/>
      <point x="308" y="370" type="curve" smooth="yes"/>
      <point x="308" y="398"/>
      <point x="293" y="419"/>
    </contour>
  </outline>
</glyph>
<glyph name="e" format="1">
  <advance width="444"/>
  <unicode hex="0065"/>
  <outline>
    <contour>
      <point x="317" y="142" type="curve"/>
      <point x="346" y="125" type="line"/>
      <point x="286" y="26"/>
      <point x="232" y="-13"/>
      <point x="156" y="-13" type="curve" smooth="yes"/>
      <point x="69" y="-13"/>
      <point x="5" y="50"/>
      <point x="5" y="134" type="curve" smooth="yes"/>
      <point x="5" y="299"/>
      <point x="149" y="462"/>
      <point x="293" y="462" type="curve" smooth="yes"/>
      <point x="354" y="462"/>
      <point x="398" y="426"/>
      <point x="398" y="375" type="curve" smooth="yes"/>
      <point x="398" y="340"/>
      <point x="379" y="302"/>
      <point x="344" y="270" type="curve" smooth="yes"/>
      <point x="294" y="224"/>
      <point x="245" y="202"/>
      <point x="141" y="182" type="curve"/>
      <point x="137" y="162"/>
      <point x="135" y="149"/>
      <point x="135" y="133" type="curve" smooth="yes"/>
      <point x="135" y="79"/>
      <point x="157" y="51"/>
      <point x="200" y="51" type="curve" smooth="yes"/>
      <point x="242" y="51"/>
      <point x="270" y="73"/>
    </contour>
    <contour>
      <point x="148" y="214" type="curve"/>
      <point x="159" y="218"/>
      <point x="174" y="223"/>
      <point x="181" y="225" type="curve" smooth="yes"/>
      <point x="258" y="254"/>
      <point x="306" y="319"/>
      <point x="306" y="395" type="curve" smooth="yes"/>
      <point x="306" y="417"/>
      <point x="297" y="429"/>
      <point x="278" y="429" type="curve" smooth="yes"/>
      <point x="230" y="429"/>
      <point x="184" y="352"/>
    </contour>
  </outline>
</glyph>
<glyph name="n" format="1">
  <advance width="556"/>
  <unicode hex="006E"/>
  <outline>
    <contour>
      <point x="471" y="135" type="curve"/>
      <point x="493" y="122" type="line"/>
      <point x="435" y="25"/>
      <point x="393" y="-9"/>
      <point x="334" y="-9" type="curve" smooth="yes"/>
      <point x="292" y="-9"/>
      <point x="266" y="14"/>
      <point x="266" y="51" type="curve" smooth="yes"/>
      <point x="266" y="77"/>
      <point x="278" y="134"/>
      <point x="294" y="182" type="curve" smooth="yes"/>
      <point x="349" y="348" type="line" smooth="yes"/>
      <point x="352" y="358"/>
      <point x="354" y="366"/>
      <point x="354" y="369" type="curve" smooth="yes"/>
      <point x="354" y="379"/>
      <point x="341" y="390"/>
      <point x="329" y="390" type="curve" smooth="yes"/>
      <point x="311" y="390"/>
      <point x="280" y="368"/>
      <point x="260" y="341" type="curve" smooth="yes"/>
      <point x="198" y="260"/>
      <point x="162" y="173"/>
      <point x="115" y="0" type="curve"/>
      <point x="-6" y="0" type="line"/>
      <point x="23" y="108" type="line"/>
      <point x="50" y="204" type="line" smooth="yes"/>
      <point x="84" y="324"/>
      <point x="96" y="371"/>
      <point x="96" y="382" type="curve" smooth="yes"/>
      <point x="96" y="401"/>
      <point x="84" y="406"/>
      <point x="42" y="407" type="curve"/>
      <point x="42" y="434" type="line"/>
      <point x="98" y="436"/>
      <point x="178" y="447"/>
      <point x="242" y="461" type="curve"/>
      <point x="178" y="263" type="line"/>
      <point x="245" y="362"/>
      <point x="264" y="386"/>
      <point x="300" y="421" type="curve" smooth="yes"/>
      <point x="328" y="447"/>
      <point x="364" y="462"/>
      <point x="401" y="462" type="curve" smooth="yes"/>
      <point x="448" y="462"/>
      <point x="474" y="435"/>
      <point x="474" y="387" type="curve" smooth="yes"/>
      <point x="474" y="363"/>
      <point x="464" y="318"/>
      <point x="448" y="272" type="curve" smooth="yes"/>
      <point x="412" y="163" type="line" smooth="yes"/>
      <point x="394" y="109"/>
      <point x="387" y="86"/>
      <point x="387" y="76" type="curve" smooth="yes"/>
      <point x="387" y="66"/>
      <point x="393" y="59"/>
      <point x="401" y="59" type="curve" smooth="yes"/>
      <point x="418" y="59"/>
      <point x="431" y="73"/>
    </contour>
  </outline>
</glyph>
<glyph name="q" format="1">
  <advance width="500"/>
  <unicode hex="0071"/>
  <outline>
    <contour>
      <point x="371" y="-178" type="line"/>
      <point x="371" y="-205" type="line"/>
      <point x="104" y="-205" type="line"/>
      <point x="104" y="-178" type="line"/>
      <point x="166" y="-175"/>
      <point x="177" y="-167"/>
      <point x="194" y="-115" type="curve"/>
      <point x="257" y="98" type="line"/>
      <point x="205" y="16"/>
      <point x="165" y="-13"/>
      <point x="105" y="-13" type="curve" smooth="yes"/>
      <point x="41" y="-13"/>
      <point x="1" y="37"/>
      <point x="1" y="117" type="curve" smooth="yes"/>
      <point x="1" y="172"/>
      <point x="19" y="231"/>
      <point x="53" y="292" type="curve"/>
      <point x="112" y="394"/>
      <point x="200" y="462"/>
      <point x="276" y="462" type="curve" smooth="yes"/>
      <point x="299" y="462"/>
      <point x="320" y="454"/>
      <point x="330" y="440" type="curve" smooth="yes"/>
      <point x="339" y="429"/>
      <point x="342" y="418"/>
      <point x="347" y="390" type="curve"/>
      <point x="362" y="449" type="line"/>
      <point x="471" y="449" type="line"/>
      <point x="429" y="294"/>
      <point x="410" y="223"/>
      <point x="386" y="145" type="curve" smooth="yes"/>
      <point x="344" y="5"/>
      <point x="306" y="-134"/>
      <point x="306" y="-150" type="curve" smooth="yes"/>
      <point x="306" y="-170"/>
      <point x="321" y="-178"/>
      <point x="357" y="-178" type="curve" smooth="yes"/>
    </contour>
    <contour>
      <point x="290" y="419" type="curve" smooth="yes"/>
      <point x="262" y="421"/>
      <point x="227" y="390"/>
      <point x="195" y="334" type="curve" smooth="yes"/>
      <point x="155" y="262"/>
      <point x="126" y="172"/>
      <point x="126" y="116" type="curve" smooth="yes"/>
      <point x="126" y="78"/>
      <point x="139" y="59"/>
      <point x="165" y="59" type="curve" smooth="yes"/>
      <point x="196" y="59"/>
      <point x="225" y="83"/>
      <point x="253" y="133" type="curve" smooth="yes"/>
      <point x="288" y="195"/>
      <point x="325" y="318"/>
      <point x="325" y="371" type="curve" smooth="yes"/>
      <point x="325" y="399"/>
      <point x="312" y="417"/>
    </contour>
  </outline>
</glyph>
<glyph name="t" format="1">
  <advance width="278"/>
  <unicode hex="0074"/>
  <outline>
    <contour>
      <point x="281" y="449" type="line"/>
      <point x="281" y="407" type="line"/>
      <point x="198" y="407" type="line"/>
      <point x="165" y="289" type="line"/>
      <point x="129" y="167"/>
      <point x="111" y="94"/>
      <point x="111" y="76" type="curve" smooth="yes"/>
      <point x="111" y="69"/>
      <point x="119" y="61"/>
      <point x="127" y="61" type="curve" smooth="yes"/>
      <point x="143" y="61"/>
      <point x="169" y="88"/>
      <point x="203" y="141" type="curve"/>
      <point x="225" y="127" type="line"/>
      <point x="159" y="24"/>
      <point x="119" y="-9"/>
      <point x="59" y="-9" type="curve" smooth="yes"/>
      <point x="17" y="-9"/>
      <point x="-11" y="17"/>
      <point x="-11" y="56" type="curve" smooth="yes"/>
      <point x="-11" y="73"/>
      <point x="-1" y="118"/>
      <point x="13" y="169" type="curve" smooth="yes"/>
      <point x="81" y="407" type="line"/>
      <point x="30" y="407" type="line"/>
      <point x="30" y="442" type="line"/>
      <point x="109" y="472"/>
      <point x="159" y="513"/>
      <point x="213" y="594" type="curve"/>
      <point x="248" y="594" type="line"/>
      <point x="209" y="449" type="line"/>
    </contour>
  </outline>
</glyph>
<glyph name="x" format="1">
  <advance width="500"/>
  <unicode hex="0078"/>
  <outline>
    <contour>
      <point x="400" y="123" type="curve"/>
      <point x="421" y="109" type="line"/>
      <point x="360" y="21"/>
      <point x="318" y="-13"/>
      <point x="270" y="-13" type="curve" smooth="yes"/>
      <point x="250" y="-13"/>
      <point x="230" y="-3"/>
      <point x="218" y="13" type="curve" smooth="yes"/>
      <point x="196" y="41"/>
      <point x="188" y="67"/>
      <point x="173" y="142" type="curve"/>
      <point x="149" y="103" type="line" smooth="yes"/>
      <point x="91" y="7"/>
      <point x="68" y="-13"/>
      <point x="18" y="-13" type="curve" smooth="yes"/>
      <point x="-20" y="-13"/>
      <point x="-46" y="11"/>
      <point x="-46" y="46" type="curve" smooth="yes"/>
      <point x="-46" y="77"/>
      <point x="-22" y="102"/>
      <point x="9" y="102" type="curve" smooth="yes"/>
      <point x="21" y="102"/>
      <point x="33" y="98"/>
      <point x="49" y="89" type="curve" smooth="yes"/>
      <point x="59" y="83"/>
      <point x="64" y="81"/>
      <point x="70" y="81" type="curve" smooth="yes"/>
      <point x="87" y="81"/>
      <point x="98" y="90"/>
      <point x="118" y="122" type="curve" smooth="yes"/>
      <point x="162" y="192" type="line"/>
      <point x="132" y="346" type="line" smooth="yes"/>
      <point x="122" y="395"/>
      <point x="108" y="413"/>
      <point x="76" y="413" type="curve" smooth="yes"/>
      <point x="67" y="413"/>
      <point x="62" y="413"/>
      <point x="41" y="411" type="curve"/>
      <point x="41" y="438" type="line"/>
      <point x="208" y="462" type="line"/>
      <point x="227" y="434"/>
      <point x="235" y="409"/>
      <point x="253" y="324" type="curve"/>
      <point x="333" y="435"/>
      <point x="364" y="462"/>
      <point x="411" y="462" type="curve" smooth="yes"/>
      <point x="441" y="462"/>
      <point x="469" y="433"/>
      <point x="469" y="400" type="curve" smooth="yes"/>
      <point x="469" y="372"/>
      <point x="443" y="348"/>
      <point x="413" y="348" type="curve" smooth="yes"/>
      <point x="402" y="348"/>
      <point x="395" y="350"/>
      <point x="381" y="359" type="curve"/>
      <point x="369" y="365"/>
      <point x="362" y="368"/>
      <point x="356" y="368" type="curve" smooth="yes"/>
      <point x="333" y="368"/>
      <point x="308" y="344"/>
      <point x="273" y="286" type="curve" smooth="yes"/>
      <point x="268" y="278"/>
      <point x="267" y="277"/>
      <point x="264" y="273" type="curve"/>
      <point x="296" y="117" type="line" smooth="yes"/>
      <point x="304" y="79"/>
      <point x="314" y="64"/>
      <point x="333" y="64" type="curve" smooth="yes"/>
      <point x="351" y="64"/>
      <point x="361" y="73"/>
    </contour>
  </outline>
</glyph>
<glyph name="onesuperior" format="1">
  <advance width="300"/>
  <unicode hex="00B9"/>
  <outline>
    <contour>
      <point x="30" y="274" type="line"/>
      <point x="30" y="293" type="line"/>
      <point x="86" y="293"/>
      <point x="101" y="307"/>
      <point x="118" y="373" type="curve" smooth="yes"/>
      <point x="119" y="377"/>
      <point x="125" y="396"/>
      <point x="131" y="414" type="curve" smooth="yes"/>
      <point x="156" y="487"/>
      <point x="193" y="608"/>
      <point x="191" y="613" type="curve" smooth="yes"/>
      <point x="188" y="627"/>
      <point x="179" y="634"/>
      <point x="165" y="634" type="curve" smooth="yes"/>
      <point x="159" y="634"/>
      <point x="148" y="633"/>
      <point x="133" y="632" type="curve" smooth="yes"/>
      <point x="122" y="631" type="line"/>
      <point x="124" y="652" type="line"/>
      <point x="196" y="663"/>
      <point x="238" y="670"/>
      <point x="301" y="683" type="curve"/>
      <point x="201" y="353" type="line" smooth="yes"/>
      <point x="197" y="341"/>
      <point x="195" y="328"/>
      <point x="195" y="319" type="curve" smooth="yes"/>
      <point x="195" y="297"/>
      <point x="205" y="293"/>
      <point x="254" y="293" type="curve"/>
      <point x="254" y="274" type="line"/>
    </contour>
  </outline>
</glyph>
<glyph name="ordmasculine" format="1">
  <advance width="300"/>
  <unicode hex="00BA"/>
  <outline>
    <contour>
      <point x="243" y="685" type="curve" smooth="yes"/>
      <point x="306" y="685"/>
      <point x="350" y="644"/>
      <point x="347" y="587" type="curve" smooth="yes"/>
      <point x="342" y="488"/>
      <point x="254" y="400"/>
      <point x="162" y="400" type="curve" smooth="yes"/>
      <point x="101" y="400"/>
      <point x="56" y="438"/>
      <point x="56" y="489" type="curve" smooth="yes"/>
      <point x="56" y="589"/>
      <point x="148" y="685"/>
    </contour>
    <contour>
      <point x="241" y="665" type="curve" smooth="yes"/>
      <point x="221" y="666"/>
      <point x="198" y="648"/>
      <point x="181" y="617" type="curve" smooth="yes"/>
      <point x="158" y="576"/>
      <point x="137" y="499"/>
      <point x="137" y="455" type="curve" smooth="yes"/>
      <point x="137" y="433"/>
      <point x="148" y="420"/>
      <point x="165" y="420" type="curve" smooth="yes"/>
      <point x="188" y="420"/>
      <point x="208" y="440"/>
      <point x="229" y="483" type="curve" smooth="yes"/>
      <point x="248" y="523"/>
      <point x="264" y="584"/>
      <point x="266" y="627" type="curve" smooth="yes"/>
      <point x="267" y="650"/>
      <point x="258" y="664"/>
    </contour>
  </outline>
</glyph>
<glyph name="onequarter" format="1">
  <advance width="750"/>
  <unicode hex="00BC"/>
  <outline>
    <contour>
      <point x="688" y="149" type="line"/>
      <point x="671" y="88" type="line"/>
      <point x="627" y="88" type="line"/>
      <point x="599" y="0" type="line"/>
      <point x="513" y="0" type="line"/>
      <point x="540" y="88" type="line"/>
      <point x="381" y="88" type="line"/>
      <point x="397" y="155" type="line"/>
      <point x="675" y="410" type="line"/>
      <point x="721" y="410" type="line"/>
      <point x="643" y="149" type="line"/>
    </contour>
    <contour>
      <point x="425" y="149" type="line"/>
      <point x="557" y="149" type="line"/>
      <point x="609" y="319" type="line"/>
    </contour>
    <contour>
      <point x="629" y="683" type="line"/>
      <point x="194" y="-14" type="line"/>
      <point x="136" y="-14" type="line"/>
      <point x="571" y="683" type="line"/>
    </contour>
    <contour>
      <point x="7" y="274" type="line"/>
      <point x="7" y="293" type="line"/>
      <point x="63" y="293"/>
      <point x="78" y="307"/>
      <point x="95" y="373" type="curve" smooth="yes"/>
      <point x="97" y="380"/>
      <point x="102" y="396"/>
      <point x="108" y="414" type="curve" smooth="yes"/>
      <point x="137" y="498"/>
      <point x="168" y="602"/>
      <point x="168" y="613" type="curve" smooth="yes"/>
      <point x="168" y="624"/>
      <point x="156" y="634"/>
      <point x="142" y="634" type="curve" smooth="yes"/>
      <point x="135" y="634"/>
      <point x="124" y="633"/>
      <point x="110" y="632" type="curve" smooth="yes"/>
      <point x="99" y="631" type="line"/>
      <point x="101" y="652" type="line"/>
      <point x="173" y="663"/>
      <point x="215" y="670"/>
      <point x="278" y="683" type="curve"/>
      <point x="178" y="353" type="line" smooth="yes"/>
      <point x="174" y="341"/>
      <point x="172" y="328"/>
      <point x="172" y="319" type="curve" smooth="yes"/>
      <point x="172" y="297"/>
      <point x="182" y="293"/>
      <point x="231" y="293" type="curve"/>
      <point x="231" y="274" type="line"/>
    </contour>
  </outline>
</glyph>
<glyph name="Aring" format="1">
  <advance width="667"/>
  <unicode hex="00C5"/>
  <outline>
    <contour>
      <point x="593" y="25" type="curve"/>
      <point x="593" y="0" type="line"/>
      <point x="289" y="0" type="line"/>
      <point x="289" y="25" type="line"/>
      <point x="353" y="31"/>
      <point x="368" y="42"/>
      <point x="368" y="84" type="curve" smooth="yes"/>
      <point x="368" y="97"/>
      <point x="366" y="117"/>
      <point x="360" y="156" type="curve" smooth="yes"/>
      <point x="359" y="163"/>
      <point x="356" y="184"/>
      <point x="353" y="208" type="curve"/>
      <point x="138" y="208" type="line"/>
      <point x="79" y="106" type="line" smooth="yes"/>
      <point x="69" y="89"/>
      <point x="64" y="73"/>
      <point x="64" y="60" type="curve" smooth="yes"/>
      <point x="64" y="36"/>
      <point x="83" y="25"/>
      <point x="129" y="25" type="curve"/>
      <point x="129" y="0" type="line"/>
      <point x="-67" y="0" type="line"/>
      <point x="-67" y="25" type="line"/>
      <point x="-31" y="33"/>
      <point x="-16" y="46"/>
      <point x="16" y="95" type="curve" smooth="yes"/>
      <point x="388" y="683" type="line"/>
      <point x="413" y="683" type="line"/>
      <point x="509" y="111" type="line" smooth="yes"/>
      <point x="522" y="35"/>
      <point x="527" y="30"/>
    </contour>
    <contour>
      <point x="161" y="248" type="line"/>
      <point x="346" y="248" type="line"/>
      <point x="309" y="491" type="line"/>
    </contour>
    <contour>
      <point x="408" y="950" type="curve" smooth="yes"/>
      <point x="466" y="950"/>
      <point x="514" y="902"/>
      <point x="514" y="843" type="curve" smooth="yes"/>
      <point x="514" y="784"/>
      <point x="466" y="736"/>
      <point x="407" y="736" type="curve" smooth="yes"/>
      <point x="348" y="736"/>
      <point x="301" y="785"/>
      <point x="301" y="845" type="curve" smooth="yes"/>
      <point x="301" y="902"/>
      <point x="350" y="950"/>
    </contour>
    <contour>
      <point x="406" y="902" type="curve" smooth="yes"/>
      <point x="376" y="902"/>
      <point x="349" y="874"/>
      <point x="349" y="843" type="curve" smooth="yes"/>
      <point x="349" y="811"/>
      <point x="375" y="784"/>
      <point x="406" y="784" type="curve" smooth="yes"/>
      <point x="439" y="784"/>
      <point x="466" y="810"/>
      <point x="466" y="842" type="curve" smooth="yes"/>
      <point x="466" y="875"/>
      <point x="439" y="902"/>
    </contour>
  </outline>
</glyph>
<glyph name="Iacute" format="1">
  <advance width="389"/>
  <unicode hex="00CD"/>
  <outline>
    <contour>
      <point x="264" y="25" type="curve"/>
      <point x="264" y="0" type="line"/>
      <point x="-32" y="0" type="line"/>
      <point x="-32" y="25" type="line"/>
      <point x="17" y="31"/>
      <point x="32" y="45"/>
      <point x="48" y="97" type="curve"/>
      <point x="171" y="546" type="line" smooth="yes"/>
      <point x="176" y="564"/>
      <point x="181" y="595"/>
      <point x="181" y="607" type="curve" smooth="yes"/>
      <point x="181" y="627"/>
      <point x="171" y="635"/>
      <point x="140" y="639" type="curve" smooth="yes"/>
      <point x="135" y="640"/>
      <point x="122" y="642"/>
      <point x="108" y="644" type="curve"/>
      <point x="108" y="669" type="line"/>
      <point x="406" y="669" type="line"/>
      <point x="406" y="644" type="line"/>
      <point x="355" y="638"/>
      <point x="340" y="625"/>
      <point x="324" y="572" type="curve"/>
      <point x="210" y="152" type="line" smooth="yes"/>
      <point x="197" y="103"/>
      <point x="192" y="80"/>
      <point x="192" y="65" type="curve" smooth="yes"/>
      <point x="192" y="37"/>
      <point x="207" y="28"/>
    </contour>
    <contour>
      <point x="216" y="726" type="line"/>
      <point x="167" y="726" type="line"/>
      <point x="289" y="857" type="line" smooth="yes"/>
      <point x="324" y="895"/>
      <point x="341" y="907"/>
      <point x="359" y="907" type="curve" smooth="yes"/>
      <point x="385" y="907"/>
      <point x="407" y="885"/>
      <point x="407" y="860" type="curve" smooth="yes"/>
      <point x="407" y="841"/>
      <point x="398" y="830"/>
      <point x="368" y="813" type="curve" smooth="yes"/>
    </contour>
  </outline>
</glyph>
<glyph name="Icircumflex" format="1">
  <advance width="389"/>
  <unicode hex="00CE"/>
  <outline>
    <contour>
      <point x="264" y="25" type="curve"/>
      <point x="264" y="0" type="line"/>
      <point x="-32" y="0" type="line"/>
      <point x="-32" y="25" type="line"/>
      <point x="17" y="31"/>
      <point x="32" y="45"/>
      <point x="48" y="97" type="curve"/>
      <point x="171" y="546" type="line" smooth="yes"/>
      <point x="176" y="564"/>
      <point x="181" y="595"/>
      <point x="181" y="607" type="curve" smooth="yes"/>
      <point x="181" y="627"/>
      <point x="171" y="635"/>
      <point x="140" y="639" type="curve" smooth="yes"/>
      <point x="135" y="640"/>
      <point x="122" y="642"/>
      <point x="108" y="644" type="curve"/>
      <point x="108" y="669" type="line"/>
      <point x="406" y="669" type="line"/>
      <point x="406" y="644" type="line"/>
      <point x="355" y="638"/>
      <point x="340" y="625"/>
      <point x="324" y="572" type="curve"/>
      <point x="210" y="152" type="line" smooth="yes"/>
      <point x="197" y="103"/>
      <point x="192" y="80"/>
      <point x="192" y="65" type="curve" smooth="yes"/>
      <point x="192" y="37"/>
      <point x="207" y="28"/>
    </contour>
    <contour>
      <point x="369" y="723" type="line"/>
      <point x="281" y="818" type="line"/>
      <point x="150" y="723" type="line"/>
      <point x="93" y="723" type="line"/>
      <point x="253" y="897" type="line"/>
      <point x="334" y="897" type="line"/>
      <point x="420" y="723" type="line"/>
    </contour>
  </outline>
</glyph>
<glyph name="Idieresis" format="1">
  <advance width="389"/>
  <unicode hex="00CF"/>
  <outline>
    <contour>
      <point x="264" y="25" type="curve"/>
      <point x="264" y="0" type="line"/>
      <point x="-32" y="0" type="line"/>
      <point x="-32" y="25" type="line"/>
      <point x="17" y="31"/>
      <point x="32" y="45"/>
      <point x="48" y="97" type="curve"/>
      <point x="171" y="546" type="line" smooth="yes"/>
      <point x="176" y="564"/>
      <point x="181" y="595"/>
      <point x="181" y="607" type="curve" smooth="yes"/>
      <point x="181" y="627"/>
      <point x="171" y="635"/>
      <point x="140" y="639" type="curve" smooth="yes"/>
      <point x="135" y="640"/>
      <point x="122" y="642"/>
      <point x="108" y="644" type="curve"/>
      <point x="108" y="669" type="line"/>
      <point x="406" y="669" type="line"/>
      <point x="406" y="644" type="line"/>
      <point x="355" y="638"/>
      <point x="340" y="625"/>
      <point x="324" y="572" type="curve"/>
      <point x="210" y="152" type="line" smooth="yes"/>
      <point x="197" y="103"/>
      <point x="192" y="80"/>
      <point x="192" y="65" type="curve" smooth="yes"/>
      <point x="192" y="37"/>
      <point x="207" y="28"/>
    </contour>
    <contour>
      <point x="167" y="862" type="curve" smooth="yes"/>
      <point x="203" y="862"/>
      <point x="233" y="832"/>
      <point x="233" y="796" type="curve" smooth="yes"/>
      <point x="233" y="762"/>
      <point x="202" y="732"/>
      <point x="167" y="732" type="curve" smooth="yes"/>
      <point x="133" y="732"/>
      <point x="103" y="762"/>
      <point x="103" y="796" type="curve" smooth="yes"/>
      <point x="103" y="832"/>
      <point x="132" y="862"/>
    </contour>
    <contour>
      <point x="379" y="862" type="curve" smooth="yes"/>
      <point x="415" y="862"/>
      <point x="445" y="832"/>
      <point x="445" y="796" type="curve" smooth="yes"/>
      <point x="445" y="762"/>
      <point x="414" y="732"/>
      <point x="379" y="732" type="curve" smooth="yes"/>
      <point x="345" y="732"/>
      <point x="315" y="762"/>
      <point x="315" y="796" type="curve" smooth="yes"/>
      <point x="315" y="832"/>
      <point x="344" y="862"/>
    </contour>
  </outline>
</glyph>
<glyph name="Ntilde" format="1">
  <advance width="722"/>
  <unicode hex="00D1"/>
  <outline>
    <contour>
      <point x="306" y="669" type="line"/>
      <point x="521" y="204" type="line"/>
      <point x="601" y="491" type="line" smooth="yes"/>
      <point x="612" y="531"/>
      <point x="619" y="567"/>
      <point x="619" y="585" type="curve" smooth="yes"/>
      <point x="619" y="623"/>
      <point x="598" y="639"/>
      <point x="539" y="644" type="curve"/>
      <point x="539" y="669" type="line"/>
      <point x="748" y="669" type="line"/>
      <point x="748" y="644" type="line"/>
      <point x="690" y="631"/>
      <point x="685" y="623"/>
      <point x="646" y="491" type="curve"/>
      <point x="503" y="-15" type="line"/>
      <point x="475" y="-15" type="line"/>
      <point x="218" y="534" type="line"/>
      <point x="119" y="178" type="line" smooth="yes"/>
      <point x="108" y="137"/>
      <point x="101" y="102"/>
      <point x="101" y="84" type="curve" smooth="yes"/>
      <point x="101" y="45"/>
      <point x="122" y="30"/>
      <point x="181" y="25" type="curve"/>
      <point x="181" y="0" type="line"/>
      <point x="-27" y="0" type="line"/>
      <point x="-27" y="25" type="line"/>
      <point x="28" y="36"/>
      <point x="35" y="47"/>
      <point x="74" y="178" type="curve" smooth="yes"/>
      <point x="194" y="589" type="line"/>
      <point x="175" y="633"/>
      <point x="166" y="639"/>
      <point x="111" y="644" type="curve"/>
      <point x="111" y="669" type="line"/>
    </contour>
    <contour>
      <point x="599" y="862" type="curve"/>
      <point x="640" y="862" type="line"/>
      <point x="618" y="779"/>
      <point x="583" y="743"/>
      <point x="523" y="743" type="curve" smooth="yes"/>
      <point x="504" y="743"/>
      <point x="492" y="746"/>
      <point x="466" y="756" type="curve" smooth="yes"/>
      <point x="407" y="779" type="line" smooth="yes"/>
      <point x="394" y="784"/>
      <point x="380" y="787"/>
      <point x="369" y="787" type="curve" smooth="yes"/>
      <point x="347" y="787"/>
      <point x="334" y="776"/>
      <point x="321" y="744" type="curve"/>
      <point x="281" y="744" type="line"/>
      <point x="294" y="816"/>
      <point x="340" y="862"/>
      <point x="397" y="862" type="curve" smooth="yes"/>
      <point x="421" y="862"/>
      <point x="453" y="854"/>
      <point x="494" y="836" type="curve" smooth="yes"/>
      <point x="520" y="825"/>
      <point x="537" y="820"/>
      <point x="548" y="820" type="curve" smooth="yes"/>
      <point x="571" y="820"/>
      <point x="584" y="831"/>
    </contour>
  </outline>
</glyph>
<glyph name="Thorn" format="1">
  <advance width="611"/>
  <unicode hex="00DE"/>
  <outline>
    <contour>
      <point x="113" y="644" type="curve"/>
      <point x="113" y="669" type="line"/>
      <point x="407" y="669" type="line"/>
      <point x="407" y="644" type="line"/>
      <point x="354" y="637"/>
      <point x="345" y="629"/>
      <point x="325" y="572" type="curve" smooth="yes"/>
      <point x="312" y="534" type="line"/>
      <point x="360" y="534" type="line" smooth="yes"/>
      <point x="499" y="534"/>
      <point x="574" y="480"/>
      <point x="574" y="379" type="curve" smooth="yes"/>
      <point x="574" y="259"/>
      <point x="467" y="182"/>
      <point x="300" y="182" type="curve" smooth="yes"/>
      <point x="274" y="182"/>
      <point x="255" y="183"/>
      <point x="219" y="187" type="curve"/>
      <point x="205" y="123" type="line" smooth="yes"/>
      <point x="198" y="92"/>
      <point x="195" y="73"/>
      <point x="195" y="64" type="curve" smooth="yes"/>
      <point x="195" y="37"/>
      <point x="211" y="28"/>
      <point x="267" y="25" type="curve"/>
      <point x="267" y="0" type="line"/>
      <point x="-27" y="0" type="line"/>
      <point x="-27" y="25" type="line"/>
      <point x="25" y="33"/>
      <point x="37" y="44"/>
      <point x="53" y="97" type="curve"/>
      <point x="176" y="546" type="line" smooth="yes"/>
      <point x="182" y="568"/>
      <point x="186" y="592"/>
      <point x="186" y="607" type="curve" smooth="yes"/>
      <point x="186" y="627"/>
      <point x="175" y="636"/>
      <point x="144" y="640" type="curve" smooth="yes"/>
      <point x="139" y="640"/>
      <point x="127" y="642"/>
    </contour>
    <contour>
      <point x="293" y="458" type="curve" smooth="yes"/>
      <point x="229" y="219" type="line"/>
      <point x="248" y="218"/>
      <point x="260" y="217"/>
      <point x="271" y="217" type="curve" smooth="yes"/>
      <point x="342" y="217"/>
      <point x="379" y="240"/>
      <point x="405" y="299" type="curve" smooth="yes"/>
      <point x="419" y="330"/>
      <point x="428" y="376"/>
      <point x="428" y="411" type="curve" smooth="yes"/>
      <point x="428" y="469"/>
      <point x="397" y="502"/>
      <point x="344" y="502" type="curve" smooth="yes"/>
      <point x="325" y="502"/>
      <point x="314" y="498"/>
      <point x="304" y="487" type="curve" smooth="yes"/>
      <point x="300" y="482"/>
      <point x="300" y="482"/>
    </contour>
  </outline>
</glyph>
<glyph name="germandbls" format="1">
  <advance width="500"/>
  <unicode hex="00DF"/>
  <outline>
    <contour>
      <point x="241" y="384" type="curve"/>
      <point x="248" y="421" type="line"/>
      <point x="264" y="421" type="line" smooth="yes"/>
      <point x="265" y="421"/>
      <point x="266" y="421"/>
      <point x="268" y="420" type="curve" smooth="yes"/>
      <point x="286" y="414"/>
      <point x="316" y="439"/>
      <point x="333" y="473" type="curve" smooth="yes"/>
      <point x="350" y="509"/>
      <point x="362" y="568"/>
      <point x="362" y="615" type="curve" smooth="yes"/>
      <point x="362" y="655"/>
      <point x="347" y="675"/>
      <point x="315" y="675" type="curve" smooth="yes"/>
      <point x="270" y="675"/>
      <point x="240" y="626"/>
      <point x="214" y="509" type="curve" smooth="yes"/>
      <point x="123" y="102" type="line" smooth="yes"/>
      <point x="78" y="-98"/>
      <point x="2" y="-200"/>
      <point x="-103" y="-200" type="curve" smooth="yes"/>
      <point x="-160" y="-200"/>
      <point x="-200" y="-169"/>
      <point x="-200" y="-123" type="curve" smooth="yes"/>
      <point x="-200" y="-91"/>
      <point x="-180" y="-70"/>
      <point x="-149" y="-70" type="curve" smooth="yes"/>
      <point x="-119" y="-70"/>
      <point x="-101" y="-87"/>
      <point x="-101" y="-115" type="curve" smooth="yes"/>
      <point x="-101" y="-129"/>
      <point x="-103" y="-136"/>
      <point x="-112" y="-146" type="curve" smooth="yes"/>
      <point x="-117" y="-151"/>
      <point x="-118" y="-153"/>
      <point x="-118" y="-158" type="curve" smooth="yes"/>
      <point x="-118" y="-166"/>
      <point x="-114" y="-169"/>
      <point x="-102" y="-169" type="curve" smooth="yes"/>
      <point x="-83" y="-169"/>
      <point x="-73" y="-164"/>
      <point x="-63" y="-152" type="curve" smooth="yes"/>
      <point x="-47" y="-131"/>
      <point x="-30" y="-83"/>
      <point x="-16" y="-20" type="curve" smooth="yes"/>
      <point x="76" y="403" type="line" smooth="yes"/>
      <point x="119" y="601"/>
      <point x="205" y="705"/>
      <point x="327" y="705" type="curve" smooth="yes"/>
      <point x="412" y="705"/>
      <point x="473" y="650"/>
      <point x="473" y="574" type="curve" smooth="yes"/>
      <point x="473" y="538"/>
      <point x="457" y="501"/>
      <point x="432" y="477" type="curve" smooth="yes"/>
      <point x="398" y="444"/>
      <point x="368" y="428"/>
      <point x="291" y="399" type="curve"/>
      <point x="344" y="388"/>
      <point x="368" y="379"/>
      <point x="392" y="357" type="curve"/>
      <point x="420" y="333"/>
      <point x="435" y="298"/>
      <point x="435" y="256" type="curve" smooth="yes"/>
      <point x="435" y="117"/>
      <point x="331" y="-7"/>
      <point x="215" y="-7" type="curve" smooth="yes"/>
      <point x="185" y="-7"/>
      <point x="164" y="-1"/>
      <point x="142" y="15" type="curve"/>
      <point x="162" y="50" type="line"/>
      <point x="166" y="45" type="line" smooth="yes"/>
      <point x="174" y="35"/>
      <point x="193" y="27"/>
      <point x="209" y="27" type="curve" smooth="yes"/>
      <point x="232" y="27"/>
      <point x="252" y="46"/>
      <point x="270" y="85" type="curve" smooth="yes"/>
      <point x="294" y="137"/>
      <point x="315" y="239"/>
      <point x="315" y="304" type="curve" smooth="yes"/>
      <point x="315" y="334"/>
      <point x="306" y="358"/>
      <point x="291" y="369" type="curve" smooth="yes"/>
      <point x="281" y="377"/>
      <point x="270" y="380"/>
    </contour>
  </outline>
</glyph>
<glyph name="adieresis" format="1">
  <advance width="500"/>
  <unicode hex="00E4"/>
  <outline>
    <contour>
      <point x="434" y="127" type="curve"/>
      <point x="455" y="112" type="line"/>
      <point x="398" y="25"/>
      <point x="351" y="-14"/>
      <point x="304" y="-14" type="curve" smooth="yes"/>
      <point x="267" y="-14"/>
      <point x="237" y="15"/>
      <point x="237" y="52" type="curve" smooth="yes"/>
      <point x="237" y="66"/>
      <point x="240" y="80"/>
      <point x="251" y="119" type="curve"/>
      <point x="194" y="24"/>
      <point x="148" y="-13"/>
      <point x="87" y="-13" type="curve" smooth="yes"/>
      <point x="22" y="-13"/>
      <point x="-21" y="38"/>
      <point x="-21" y="114" type="curve" smooth="yes"/>
      <point x="-21" y="270"/>
      <point x="129" y="462"/>
      <point x="252" y="462" type="curve" smooth="yes"/>
      <point x="295" y="462"/>
      <point x="317" y="441"/>
      <point x="326" y="390" type="curve"/>
      <point x="344" y="449" type="line"/>
      <point x="455" y="456" type="line"/>
      <point x="384" y="220" type="line" smooth="yes"/>
      <point x="360" y="139"/>
      <point x="350" y="97"/>
      <point x="350" y="72" type="curve" smooth="yes"/>
      <point x="350" y="63"/>
      <point x="355" y="57"/>
      <point x="362" y="57" type="curve" smooth="yes"/>
      <point x="378" y="57"/>
      <point x="393" y="72"/>
    </contour>
    <contour>
      <point x="266" y="420" type="curve" smooth="yes"/>
      <point x="239" y="422"/>
      <point x="206" y="391"/>
      <point x="176" y="338" type="curve" smooth="yes"/>
      <point x="135" y="264"/>
      <point x="102" y="164"/>
      <point x="102" y="112" type="curve" smooth="yes"/>
      <point x="102" y="81"/>
      <point x="121" y="58"/>
      <point x="147" y="58" type="curve" smooth="yes"/>
      <point x="174" y="58"/>
      <point x="204" y="85"/>
      <point x="231" y="133" type="curve" smooth="yes"/>
      <point x="269" y="201"/>
      <point x="303" y="314"/>
      <point x="303" y="373" type="curve" smooth="yes"/>
      <point x="303" y="400"/>
      <point x="288" y="418"/>
    </contour>
    <contour>
      <point x="193" y="655" type="curve" smooth="yes"/>
      <point x="229" y="655"/>
      <point x="259" y="625"/>
      <point x="259" y="589" type="curve" smooth="yes"/>
      <point x="259" y="555"/>
      <point x="228" y="525"/>
      <point x="193" y="525" type="curve" smooth="yes"/>
      <point x="159" y="525"/>
      <point x="129" y="555"/>
      <point x="129" y="589" type="curve" smooth="yes"/>
      <point x="129" y="625"/>
      <point x="158" y="655"/>
    </contour>
    <contour>
      <point x="405" y="655" type="curve" smooth="yes"/>
      <point x="441" y="655"/>
      <point x="471" y="625"/>
      <point x="471" y="589" type="curve" smooth="yes"/>
      <point x="471" y="555"/>
      <point x="440" y="525"/>
      <point x="405" y="525" type="curve" smooth="yes"/>
      <point x="371" y="525"/>
      <point x="341" y="555"/>
      <point x="341" y="589" type="curve" smooth="yes"/>
      <point x="341" y="625"/>
      <point x="370" y="655"/>
    </contour>
  </outline>
</glyph>
<glyph name="ccedilla" format="1">
  <advance width="444"/>
  <unicode hex="00E7"/>
  <outline>
    <contour>
      <point x="130" y="-12" type="curve"/>
      <point x="96" y="-62" type="line"/>
      <point x="106" y="-60"/>
      <point x="112" y="-59"/>
      <point x="122" y="-59" type="curve" smooth="yes"/>
      <point x="174" y="-59"/>
      <point x="212" y="-89"/>
      <point x="212" y="-131" type="curve" smooth="yes"/>
      <point x="212" y="-181"/>
      <point x="159" y="-218"/>
      <point x="88" y="-218" type="curve" smooth="yes"/>
      <point x="52" y="-218"/>
      <point x="20" y="-211"/>
      <point x="-24" y="-193" type="curve"/>
      <point x="-2" y="-160" type="line"/>
      <point x="26" y="-173"/>
      <point x="43" y="-177"/>
      <point x="65" y="-177" type="curve" smooth="yes"/>
      <point x="99" y="-177"/>
      <point x="121" y="-161"/>
      <point x="121" y="-136" type="curve" smooth="yes"/>
      <point x="121" y="-114"/>
      <point x="103" y="-100"/>
      <point x="74" y="-100" type="curve" smooth="yes"/>
      <point x="64" y="-100"/>
      <point x="56" y="-101"/>
      <point x="44" y="-104" type="curve"/>
      <point x="31" y="-92" type="line"/>
      <point x="91" y="-4" type="line"/>
      <point x="30" y="18"/>
      <point x="-5" y="70"/>
      <point x="-5" y="138" type="curve" smooth="yes"/>
      <point x="-5" y="298"/>
      <point x="139" y="462"/>
      <point x="280" y="462" type="curve" smooth="yes"/>
      <point x="347" y="462"/>
      <point x="392" y="425"/>
      <point x="392" y="372" type="curve" smooth="yes"/>
      <point x="392" y="331"/>
      <point x="366" y="302"/>
      <point x="330" y="302" type="curve" smooth="yes"/>
      <point x="297" y="302"/>
      <point x="272" y="324"/>
      <point x="272" y="354" type="curve" smooth="yes"/>
      <point x="272" y="366"/>
      <point x="276" y="377"/>
      <point x="285" y="393" type="curve" smooth="yes"/>
      <point x="291" y="402"/>
      <point x="293" y="408"/>
      <point x="293" y="412" type="curve" smooth="yes"/>
      <point x="293" y="422"/>
      <point x="283" y="429"/>
      <point x="271" y="429" type="curve" smooth="yes"/>
      <point x="241" y="429"/>
      <point x="212" y="405"/>
      <point x="185" y="358" type="curve" smooth="yes"/>
      <point x="149" y="293"/>
      <point x="123" y="203"/>
      <point x="123" y="141" type="curve" smooth="yes"/>
      <point x="123" y="87"/>
      <point x="153" y="51"/>
      <point x="196" y="51" type="curve" smooth="yes"/>
      <point x="239" y="51"/>
      <point x="270" y="74"/>
      <point x="318" y="141" type="curve"/>
      <point x="346" y="123" type="line"/>
      <point x="311" y="73"/>
      <point x="295" y="54"/>
      <point x="269" y="32" type="curve" smooth="yes"/>
      <point x="236" y="3"/>
      <point x="192" y="-13"/>
      <point x="148" y="-13" type="curve" smooth="yes"/>
      <point x="142" y="-13"/>
      <point x="137" y="-13"/>
    </contour>
  </outline>
</glyph>
<glyph name="igrave" format="1">
  <advance width="278"/>
  <unicode hex="00EC"/>
  <outline>
    <contour>
      <point x="216" y="141" type="line"/>
      <point x="238" y="127" type="line"/>
      <point x="168" y="22"/>
      <point x="131" y="-9"/>
      <point x="71" y="-9" type="curve" smooth="yes"/>
      <point x="30" y="-9"/>
      <point x="2" y="17"/>
      <point x="2" y="54" type="curve" smooth="yes"/>
      <point x="2" y="67"/>
      <point x="7" y="95"/>
      <point x="15" y="123" type="curve" smooth="yes"/>
      <point x="73" y="338" type="line" smooth="yes"/>
      <point x="77" y="355"/>
      <point x="80" y="370"/>
      <point x="80" y="378" type="curve" smooth="yes"/>
      <point x="80" y="399"/>
      <point x="64" y="407"/>
      <point x="21" y="407" type="curve"/>
      <point x="21" y="434" type="line"/>
      <point x="99" y="440"/>
      <point x="169" y="450"/>
      <point x="223" y="462" type="curve"/>
      <point x="132" y="128" type="line" smooth="yes"/>
      <point x="129" y="116"/>
      <point x="123" y="82"/>
      <point x="123" y="76" type="curve" smooth="yes"/>
      <point x="123" y="68"/>
      <point x="130" y="61"/>
      <point x="138" y="61" type="curve" smooth="yes"/>
      <point x="153" y="61"/>
      <point x="176" y="82"/>
      <point x="202" y="121" type="curve"/>
    </contour>
    <contour>
      <point x="260" y="516" type="line"/>
      <point x="215" y="516" type="line"/>
      <point x="82" y="605" type="line" smooth="yes"/>
      <point x="60" y="620"/>
      <point x="48" y="637"/>
      <point x="48" y="652" type="curve" smooth="yes"/>
      <point x="48" y="676"/>
      <point x="69" y="697"/>
      <point x="93" y="697" type="curve" smooth="yes"/>
      <point x="112" y="697"/>
      <point x="133" y="684"/>
      <point x="149" y="663" type="curve" smooth="yes"/>
    </contour>
  </outline>
</glyph>
<glyph name="eth" format="1">
  <advance width="500"/>
  <unicode hex="00F0"/>
  <outline>
    <contour>
      <point x="283" y="574" type="curve"/>
      <point x="164" y="512" type="line"/>
      <point x="131" y="543" type="line"/>
      <point x="253" y="607" type="line"/>
      <point x="214" y="644"/>
      <point x="177" y="665"/>
      <point x="137" y="672" type="curve"/>
      <point x="181" y="699" type="line"/>
      <point x="230" y="692"/>
      <point x="270" y="674"/>
      <point x="313" y="639" type="curve"/>
      <point x="420" y="696" type="line"/>
      <point x="454" y="664" type="line"/>
      <point x="347" y="608" type="line"/>
      <point x="414" y="529"/>
      <point x="441" y="462"/>
      <point x="441" y="372" type="curve" smooth="yes"/>
      <point x="441" y="163"/>
      <point x="310" y="-13"/>
      <point x="155" y="-13" type="curve" smooth="yes"/>
      <point x="65" y="-13"/>
      <point x="-3" y="50"/>
      <point x="-3" y="134" type="curve" smooth="yes"/>
      <point x="-3" y="299"/>
      <point x="134" y="462"/>
      <point x="272" y="462" type="curve" smooth="yes"/>
      <point x="303" y="462"/>
      <point x="324" y="449"/>
      <point x="343" y="420" type="curve"/>
      <point x="345" y="424" type="line"/>
      <point x="341" y="478"/>
      <point x="322" y="524"/>
    </contour>
    <contour>
      <point x="276" y="433" type="curve" smooth="yes"/>
      <point x="243" y="433"/>
      <point x="215" y="411"/>
      <point x="189" y="365" type="curve" smooth="yes"/>
      <point x="153" y="300"/>
      <point x="116" y="159"/>
      <point x="116" y="86" type="curve" smooth="yes"/>
      <point x="116" y="39"/>
      <point x="132" y="16"/>
      <point x="165" y="16" type="curve" smooth="yes"/>
      <point x="200" y="16"/>
      <point x="230" y="45"/>
      <point x="259" y="107" type="curve" smooth="yes"/>
      <point x="291" y="178"/>
      <point x="322" y="307"/>
      <point x="322" y="375" type="curve" smooth="yes"/>
      <point x="322" y="411"/>
      <point x="304" y="433"/>
    </contour>
  </outline>
</glyph>
<glyph name="odieresis" format="1">
  <advance width="500"/>
  <unicode hex="00F6"/>
  <outline>
    <contour>
      <point x="284" y="462" type="curve" smooth="yes"/>
      <point x="375" y="462"/>
      <point x="441" y="399"/>
      <point x="441" y="311" type="curve" smooth="yes"/>
      <point x="441" y="142"/>
      <point x="305" y="-13"/>
      <point x="156" y="-13" type="curve" smooth="yes"/>
      <point x="64" y="-13"/>
      <point x="-3" y="50"/>
      <point x="-3" y="135" type="curve" smooth="yes"/>
      <point x="-3" y="303"/>
      <point x="137" y="462"/>
    </contour>
    <contour>
      <point x="275" y="433" type="curve" smooth="yes"/>
      <point x="243" y="433"/>
      <point x="214" y="410"/>
      <point x="188" y="364" type="curve" smooth="yes"/>
      <point x="153" y="302"/>
      <point x="116" y="156"/>
      <point x="116" y="78" type="curve" smooth="yes"/>
      <point x="116" y="40"/>
      <point x="135" y="16"/>
      <point x="165" y="16" type="curve" smooth="yes"/>
      <point x="200" y="16"/>
      <point x="230" y="45"/>
      <point x="259" y="107" type="curve" smooth="yes"/>
      <point x="291" y="177"/>
      <point x="322" y="307"/>
      <point x="322" y="375" type="curve" smooth="yes"/>
      <point x="322" y="411"/>
      <point x="304" y="433"/>
    </contour>
    <contour>
      <point x="188" y="655" type="curve" smooth="yes"/>
      <point x="224" y="655"/>
      <point x="254" y="625"/>
      <point x="254" y="589" type="curve" smooth="yes"/>
      <point x="254" y="555"/>
      <point x="223" y="525"/>
      <point x="188" y="525" type="curve" smooth="yes"/>
      <point x="154" y="525"/>
      <point x="124" y="555"/>
      <point x="124" y="589" type="curve" smooth="yes"/>
      <point x="124" y="625"/>
      <point x="153" y="655"/>
    </contour>
    <contour>
      <point x="400" y="655" type="curve" smooth="yes"/>
      <point x="436" y="655"/>
      <point x="466" y="625"/>
      <point x="466" y="589" type="curve" smooth="yes"/>
      <point x="466" y="555"/>
      <point x="435" y="525"/>
      <point x="400" y="525" type="curve" smooth="yes"/>
      <point x="366" y="525"/>
      <point x="336" y="555"/>
      <point x="336" y="589" type="curve" smooth="yes"/>
      <point x="336" y="625"/>
      <point x="365" y="655"/>
    </contour>
  </outline>
</glyph>
<glyph name="oslash" format="1">
  <advance width="500"/>
  <unicode hex="00F8"/>
  <outline>
    <contour>
      <point x="424" y="560" type="line"/>
      <point x="359" y="444" type="line"/>
      <point x="416" y="416"/>
      <point x="441" y="375"/>
      <point x="441" y="311" type="curve" smooth="yes"/>
      <point x="441" y="143"/>
      <point x="305" y="-13"/>
      <point x="157" y="-13" type="curve" smooth="yes"/>
      <point x="139" y="-13"/>
      <point x="126" y="-11"/>
      <point x="106" y="-5" type="curve"/>
      <point x="42" y="-119" type="line"/>
      <point x="2" y="-119" type="line"/>
      <point x="74" y="7" type="line"/>
      <point x="21" y="37"/>
      <point x="-3" y="77"/>
      <point x="-3" y="134" type="curve" smooth="yes"/>
      <point x="-3" y="304"/>
      <point x="136" y="462"/>
      <point x="286" y="462" type="curve" smooth="yes"/>
      <point x="300" y="462"/>
      <point x="310" y="461"/>
      <point x="328" y="456" type="curve"/>
      <point x="387" y="560" type="line"/>
    </contour>
    <contour>
      <point x="116" y="78" type="line"/>
      <point x="307" y="419" type="line"/>
      <point x="297" y="429"/>
      <point x="288" y="433"/>
      <point x="275" y="433" type="curve" smooth="yes"/>
      <point x="243" y="433"/>
      <point x="214" y="410"/>
      <point x="189" y="364" type="curve" smooth="yes"/>
      <point x="153" y="300"/>
      <point x="116" y="160"/>
      <point x="116" y="86" type="curve" smooth="yes"/>
    </contour>
    <contour>
      <point x="321" y="377" type="curve"/>
      <point x="128" y="34" type="line"/>
      <point x="138" y="22"/>
      <point x="149" y="16"/>
      <point x="165" y="16" type="curve" smooth="yes"/>
      <point x="204" y="16"/>
      <point x="235" y="50"/>
      <point x="266" y="125" type="curve" smooth="yes"/>
      <point x="295" y="194"/>
      <point x="322" y="312"/>
      <point x="322" y="372" type="curve" smooth="yes"/>
      <point x="322" y="374"/>
      <point x="322" y="375"/>
    </contour>
  </outline>
</glyph>
<glyph name="Aogonek" format="1">
  <advance width="667"/>
  <unicode hex="0104"/>
  <outline>
    <contour>
      <point x="353" y="208" type="curve"/>
      <point x="138" y="208" type="line"/>
      <point x="79" y="106" type="line" smooth="yes"/>
      <point x="69" y="89"/>
      <point x="64" y="73"/>
      <point x="64" y="60" type="curve" smooth="yes"/>
      <point x="64" y="36"/>
      <point x="83" y="25"/>
      <point x="129" y="25" type="curve"/>
      <point x="129" y="0" type="line"/>
      <point x="-67" y="0" type="line"/>
      <point x="-67" y="25" type="line"/>
      <point x="-31" y="33"/>
      <point x="-16" y="46"/>
      <point x="16" y="95" type="curve" smooth="yes"/>
      <point x="388" y="683" type="line"/>
      <point x="413" y="683" type="line"/>
      <point x="509" y="111" type="line" smooth="yes"/>
      <point x="522" y="35"/>
      <point x="527" y="30"/>
      <point x="593" y="25" type="curve"/>
      <point x="593" y="0" type="line"/>
      <point x="587" y="-14"/>
      <point x="584" y="-25"/>
      <point x="584" y="-39" type="curve" smooth="yes"/>
      <point x="584" y="-81"/>
      <point x="606" y="-104"/>
      <point x="647" y="-104" type="curve" smooth="yes"/>
      <point x="662" y="-104"/>
      <point x="673" y="-101"/>
      <point x="693" y="-91" type="curve" smooth="yes"/>
      <point x="701" y="-87"/>
      <point x="702" y="-86"/>
      <point x="707" y="-84" type="curve"/>
      <point x="729" y="-98" type="line"/>
      <point x="704" y="-144"/>
      <point x="656" y="-173"/>
      <point x="606" y="-173" type="curve" smooth="yes"/>
      <point x="545" y="-173"/>
      <point x="500" y="-139"/>
      <point x="500" y="-92" type="curve" smooth="yes"/>
      <point x="500" y="-65"/>
      <point x="509" y="-45"/>
      <point x="543" y="0" type="curve"/>
      <point x="289" y="0" type="line"/>
      <point x="289" y="25" type="line"/>
      <point x="353" y="31"/>
      <point x="368" y="42"/>
      <point x="368" y="84" type="curve" smooth="yes"/>
      <point x="368" y="97"/>
      <point x="366" y="117"/>
      <point x="360" y="156" type="curve" smooth="yes"/>
      <point x="359" y="163"/>
      <point x="356" y="184"/>
    </contour>
    <contour>
      <point x="161" y="248" type="line"/>
      <point x="346" y="248" type="line"/>
      <point x="309" y="491" type="line"/>
    </contour>
  </outline>
</glyph>
<glyph name="Ccircumflex" format="1">
  <advance width="667"/>
  <unicode hex="0108"/>
  <outline>
    <contour>
      <point x="563" y="719" type="line"/>
      <point x="475" y="814" type="line"/>
      <point x="344" y="719" type="line"/>
      <point x="287" y="719" type="line"/>
      <point x="447" y="893" type="line"/>
      <point x="528" y="893" type="line"/>
      <point x="614" y="719" type="line"/>
    </contour>
    <contour>
      <point x="677" y="685" type="line"/>
      <point x="626" y="451" type="line"/>
      <point x="594" y="457" type="line"/>
      <point x="596" y="470"/>
      <point x="597" y="479"/>
      <point x="597" y="492" type="curve" smooth="yes"/>
      <point x="597" y="590"/>
      <point x="547" y="650"/>
      <point x="466" y="650" type="curve" smooth="yes"/>
      <point x="425" y="650"/>
      <point x="386" y="634"/>
      <point x="349" y="604" type="curve" smooth="yes"/>
      <point x="258" y="528"/>
      <point x="186" y="355"/>
      <point x="186" y="209" type="curve" smooth="yes"/>
      <point x="186" y="100"/>
      <point x="242" y="35"/>
      <point x="336" y="35" type="curve" smooth="yes"/>
      <point x="367" y="35"/>
      <point x="398" y="41"/>
      <point x="426" y="53" type="curve" smooth="yes"/>
      <point x="468" y="71"/>
      <point x="496" y="94"/>
      <point x="546" y="153" type="curve"/>
      <point x="576" y="131" type="line"/>
      <point x="544" y="87"/>
      <point x="528" y="69"/>
      <point x="498" y="47" type="curve" smooth="yes"/>
      <point x="441" y="4"/>
      <point x="375" y="-18"/>
      <point x="304" y="-18" type="curve" smooth="yes"/>
      <point x="141" y="-18"/>
      <point x="32" y="86"/>
      <point x="32" y="241" type="curve" smooth="yes"/>
      <point x="32" y="483"/>
      <point x="217" y="685"/>
      <point x="440" y="685" type="curve" smooth="yes"/>
      <point x="481" y="685"/>
      <point x="528" y="677"/>
      <point x="571" y="664" type="curve" smooth="yes"/>
      <point x="586" y="659"/>
      <point x="601" y="656"/>
      <point x="609" y="656" type="curve" smooth="yes"/>
      <point x="624" y="656"/>
      <point x="633" y="663"/>
      <point x="647" y="685" type="curve"/>
    </contour>
  </outline>
</glyph>
<glyph name="Dcaron" format="1">
  <advance width="722"/>
  <unicode hex="010E"/>
  <outline>
    <contour>
      <point x="94" y="644" type="curve"/>
      <point x="94" y="669" type="line"/>
      <point x="384" y="669" type="line" smooth="yes"/>
      <point x="573" y="669"/>
      <point x="685" y="567"/>
      <point x="685" y="396" type="curve" smooth="yes"/>
      <point x="685" y="169"/>
      <point x="495" y="0"/>
      <point x="240" y="0" type="curve" smooth="yes"/>
      <point x="-46" y="0" type="line"/>
      <point x="-46" y="25" type="line"/>
      <point x="3" y="31"/>
      <point x="19" y="46"/>
      <point x="34" y="97" type="curve"/>
      <point x="155" y="543" type="line" smooth="yes"/>
      <point x="163" y="575"/>
      <point x="167" y="592"/>
      <point x="167" y="602" type="curve" smooth="yes"/>
      <point x="167" y="626"/>
      <point x="157" y="634"/>
      <point x="125" y="639" type="curve" smooth="yes"/>
      <point x="121" y="640"/>
      <point x="108" y="642"/>
    </contour>
    <contour>
      <point x="318" y="600" type="curve" smooth="yes"/>
      <point x="190" y="126" type="line"/>
      <point x="190" y="126"/>
      <point x="189" y="124"/>
      <point x="189" y="122" type="curve" smooth="yes"/>
      <point x="180" y="96"/>
      <point x="177" y="80"/>
      <point x="177" y="68" type="curve" smooth="yes"/>
      <point x="177" y="45"/>
      <point x="194" y="34"/>
      <point x="231" y="34" type="curve" smooth="yes"/>
      <point x="326" y="34"/>
      <point x="397" y="71"/>
      <point x="450" y="147" type="curve" smooth="yes"/>
      <point x="504" y="224"/>
      <point x="538" y="343"/>
      <point x="538" y="457" type="curve" smooth="yes"/>
      <point x="538" y="579"/>
      <point x="484" y="638"/>
      <point x="373" y="638" type="curve" smooth="yes"/>
      <point x="341" y="638"/>
      <point x="325" y="627"/>
    </contour>
    <contour>
      <point x="606" y="900" type="line"/>
      <point x="444" y="726" type="line"/>
      <point x="362" y="726" type="line"/>
      <point x="274" y="900" type="line"/>
      <point x="324" y="900" type="line"/>
      <point x="415" y="803" type="line"/>
      <point x="550" y="900" type="line"/>
    </contour>
  </outline>
</glyph>
<glyph name="Dcroat" format="1">
  <advance width="722"/>
  <unicode hex="0110"/>
  <outline>
    <contour>
      <point x="124" y="373" type="line"/>
      <point x="170" y="543" type="line" smooth="yes"/>
      <point x="178" y="574"/>
      <point x="182" y="592"/>
      <point x="182" y="602" type="curve" smooth="yes"/>
      <point x="182" y="626"/>
      <point x="172" y="634"/>
      <point x="140" y="639" type="curve" smooth="yes"/>
      <point x="135" y="640"/>
      <point x="123" y="642"/>
      <point x="109" y="644" type="curve"/>
      <point x="109" y="669" type="line"/>
      <point x="399" y="669" type="line" smooth="yes"/>
      <point x="588" y="669"/>
      <point x="700" y="567"/>
      <point x="700" y="396" type="curve" smooth="yes"/>
      <point x="700" y="169"/>
      <point x="510" y="0"/>
      <point x="255" y="0" type="curve" smooth="yes"/>
      <point x="-31" y="0" type="line"/>
      <point x="-31" y="25" type="line"/>
      <point x="18" y="31"/>
      <point x="34" y="46"/>
      <point x="49" y="97" type="curve"/>
      <point x="112" y="329" type="line"/>
      <point x="10" y="329" type="line"/>
      <point x="22" y="373" type="line"/>
    </contour>
    <contour>
      <point x="272" y="373" type="line"/>
      <point x="394" y="373" type="line"/>
      <point x="382" y="329" type="line"/>
      <point x="260" y="329" type="line"/>
      <point x="205" y="126" type="line"/>
      <point x="205" y="126"/>
      <point x="204" y="124"/>
      <point x="204" y="122" type="curve" smooth="yes"/>
      <point x="195" y="96"/>
      <point x="192" y="80"/>
      <point x="192" y="68" type="curve" smooth="yes"/>
      <point x="192" y="45"/>
      <point x="209" y="34"/>
      <point x="246" y="34" type="curve" smooth="yes"/>
      <point x="341" y="34"/>
      <point x="412" y="71"/>
      <point x="465" y="147" type="curve" smooth="yes"/>
      <point x="519" y="224"/>
      <point x="553" y="343"/>
      <point x="553" y="457" type="curve" smooth="yes"/>
      <point x="553" y="579"/>
      <point x="499" y="638"/>
      <point x="388" y="638" type="curve" smooth="yes"/>
      <point x="356" y="638"/>
      <point x="340" y="627"/>
      <point x="333" y="600" type="curve" smooth="yes"/>
    </contour>
  </outline>
</glyph>
<glyph name="itilde" format="1">
  <advance width="278"/>
  <unicode hex="0129"/>
  <outline>
    <contour>
      <point x="348" y="631" type="curve"/>
      <point x="389" y="631" type="line"/>
      <point x="367" y="548"/>
      <point x="332" y="512"/>
      <point x="272" y="512" type="curve" smooth="yes"/>
      <point x="253" y="512"/>
      <point x="241" y="515"/>
      <point x="215" y="525" type="curve" smooth="yes"/>
      <point x="156" y="548" type="line" smooth="yes"/>
      <point x="143" y="553"/>
      <point x="129" y="556"/>
      <point x="118" y="556" type="curve" smooth="yes"/>
      <point x="96" y="556"/>
      <point x="83" y="545"/>
      <point x="70" y="513" type="curve"/>
      <point x="30" y="513" type="line"/>
      <point x="43" y="585"/>
      <point x="89" y="631"/>
      <point x="146" y="631" type="curve" smooth="yes"/>
      <point x="170" y="631"/>
      <point x="202" y="623"/>
      <point x="243" y="605" type="curve" smooth="yes"/>
      <point x="269" y="594"/>
      <point x="286" y="589"/>
      <point x="297" y="589" type="curve" smooth="yes"/>
      <point x="320" y="589"/>
      <point x="333" y="600"/>
    </contour>
    <contour>
      <point x="216" y="141" type="line"/>
      <point x="238" y="127" type="line"/>
      <point x="168" y="22"/>
      <point x="131" y="-9"/>
      <point x="71" y="-9" type="curve" smooth="yes"/>
      <point x="30" y="-9"/>
      <point x="2" y="17"/>
      <point x="2" y="54" type="curve" smooth="yes"/>
      <point x="2" y="67"/>
      <point x="7" y="95"/>
      <point x="15" y="123" type="curve" smooth="yes"/>
      <point x="73" y="338" type="line" smooth="yes"/>
      <point x="77" y="355"/>
      <point x="80" y="370"/>
      <point x="80" y="378" type="curve" smooth="yes"/>
      <point x="80" y="399"/>
      <point x="64" y="407"/>
      <point x="21" y="407" type="curve"/>
      <point x="21" y="434" type="line"/>
      <point x="99" y="440"/>
      <point x="169" y="450"/>
      <point x="223" y="462" type="curve"/>
      <point x="132" y="128" type="line" smooth="yes"/>
      <point x="129" y="116"/>
      <point x="123" y="82"/>
      <point x="123" y="76" type="curve" smooth="yes"/>
      <point x="123" y="68"/>
      <point x="130" y="61"/>
      <point x="138" y="61" type="curve" smooth="yes"/>
      <point x="153" y="61"/>
      <point x="176" y="82"/>
      <point x="202" y="121" type="curve"/>
    </contour>
  </outline>
</glyph>
<glyph name="Imacron" format="1">
  <advance width="389"/>
  <unicode hex="012A"/>
  <outline>
    <contour>
      <point x="264" y="25" type="curve"/>
      <point x="264" y="0" type="line"/>
      <point x="-32" y="0" type="line"/>
      <point x="-32" y="25" type="line"/>
      <point x="17" y="31"/>
      <point x="32" y="45"/>
      <point x="48" y="97" type="curve"/>
      <point x="171" y="546" type="line" smooth="yes"/>
      <point x="176" y="564"/>
      <point x="181" y="595"/>
      <point x="181" y="607" type="curve" smooth="yes"/>
      <point x="181" y="627"/>
      <point x="171" y="635"/>
      <point x="140" y="639" type="curve" smooth="yes"/>
      <point x="135" y="640"/>
      <point x="122" y="642"/>
      <point x="108" y="644" type="curve"/>
      <point x="108" y="669" type="line"/>
      <point x="406" y="669" type="line"/>
      <point x="406" y="644" type="line"/>
      <point x="355" y="638"/>
      <point x="340" y="625"/>
      <point x="324" y="572" type="curve"/>
      <point x="210" y="152" type="line" smooth="yes"/>
      <point x="197" y="103"/>
      <point x="192" y="80"/>
      <point x="192" y="65" type="curve" smooth="yes"/>
      <point x="192" y="37"/>
      <point x="207" y="28"/>
    </contour>
    <contour>
      <point x="461" y="833" type="line"/>
      <point x="445" y="763" type="line"/>
      <point x="119" y="763" type="line"/>
      <point x="136" y="833" type="line"/>
    </contour>
  </outline>
</glyph>
<glyph name="imacron" format="1">
  <advance width="278"/>
  <unicode hex="012B"/>
  <outline>
    <contour>
      <point x="216" y="141" type="line"/>
      <point x="238" y="127" type="line"/>
      <point x="168" y="22"/>
      <point x="131" y="-9"/>
      <point x="71" y="-9" type="curve" smooth="yes"/>
      <point x="30" y="-9"/>
      <point x="2" y="17"/>
      <point x="2" y="54" type="curve" smooth="yes"/>
      <point x="2" y="67"/>
      <point x="7" y="95"/>
      <point x="15" y="123" type="curve" smooth="yes"/>
      <point x="73" y="338" type="line" smooth="yes"/>
      <point x="77" y="355"/>
      <point x="80" y="370"/>
      <point x="80" y="378" type="curve" smooth="yes"/>
      <point x="80" y="399"/>
      <point x="64" y="407"/>
      <point x="21" y="407" type="curve"/>
      <point x="21" y="434" type="line"/>
      <point x="99" y="440"/>
      <point x="169" y="450"/>
      <point x="223" y="462" type="curve"/>
      <point x="132" y="128" type="line" smooth="yes"/>
      <point x="129" y="116"/>
      <point x="123" y="82"/>
      <point x="123" y="76" type="curve" smooth="yes"/>
      <point x="123" y="68"/>
      <point x="130" y="61"/>
      <point x="138" y="61" type="curve" smooth="yes"/>
      <point x="153" y="61"/>
      <point x="176" y="82"/>
      <point x="202" y="121" type="curve"/>
    </contour>
    <contour>
      <point x="366" y="623" type="line"/>
      <point x="350" y="553" type="line"/>
      <point x="24" y="553" type="line"/>
      <point x="41" y="623" type="line"/>
    </contour>
  </outline>
</glyph>
<glyph name="Ibreve" format="1">
  <advance width="389"/>
  <unicode hex="012C"/>
  <outline>
    <contour>
      <point x="272" y="25" type="curve"/>
      <point x="272" y="0" type="line"/>
      <point x="-24" y="0" type="line"/>
      <point x="-24" y="25" type="line"/>
      <point x="25" y="31"/>
      <point x="40" y="45"/>
      <point x="56" y="97" type="curve"/>
      <point x="179" y="546" type="line" smooth="yes"/>
      <point x="184" y="564"/>
      <point x="189" y="595"/>
      <point x="189" y="607" type="curve" smooth="yes"/>
      <point x="189" y="627"/>
      <point x="179" y="635"/>
      <point x="148" y="639" type="curve" smooth="yes"/>
      <point x="143" y="640"/>
      <point x="130" y="642"/>
      <point x="116" y="644" type="curve"/>
      <point x="116" y="669" type="line"/>
      <point x="414" y="669" type="line"/>
      <point x="414" y="644" type="line"/>
      <point x="363" y="638"/>
      <point x="348" y="625"/>
      <point x="332" y="572" type="curve"/>
      <point x="218" y="152" type="line" smooth="yes"/>
      <point x="205" y="103"/>
      <point x="200" y="80"/>
      <point x="200" y="65" type="curve" smooth="yes"/>
      <point x="200" y="37"/>
      <point x="215" y="28"/>
    </contour>
    <contour>
      <point x="463" y="881" type="curve"/>
      <point x="502" y="881" type="line"/>
      <point x="484" y="777"/>
      <point x="420" y="719"/>
      <point x="323" y="719" type="curve" smooth="yes"/>
      <point x="230" y="719"/>
      <point x="186" y="767"/>
      <point x="186" y="868" type="curve" smooth="yes"/>
      <point x="186" y="881" type="line"/>
      <point x="229" y="881" type="line"/>
      <point x="235" y="820"/>
      <point x="268" y="791"/>
      <point x="331" y="791" type="curve" smooth="yes"/>
      <point x="396" y="791"/>
      <point x="432" y="815"/>
    </contour>
  </outline>
</glyph>
<glyph name="ij" format="1">
  <advance width="525"/>
  <unicode hex="0133"/>
  <outline>
    <contour>
      <point x="216" y="141" type="line"/>
      <point x="238" y="127" type="line"/>
      <point x="168" y="22"/>
      <point x="131" y="-9"/>
      <point x="71" y="-9" type="curve" smooth="yes"/>
      <point x="30" y="-9"/>
      <point x="2" y="17"/>
      <point x="2" y="54" type="curve" smooth="yes"/>
      <point x="2" y="67"/>
      <point x="7" y="95"/>
      <point x="15" y="123" type="curve" smooth="yes"/>
      <point x="73" y="338" type="line" smooth="yes"/>
      <point x="77" y="355"/>
      <point x="80" y="370"/>
      <point x="80" y="378" type="curve" smooth="yes"/>
      <point x="80" y="399"/>
      <point x="64" y="407"/>
      <point x="21" y="407" type="curve"/>
      <point x="21" y="434" type="line"/>
      <point x="99" y="440"/>
      <point x="169" y="450"/>
      <point x="223" y="462" type="curve"/>
      <point x="132" y="128" type="line" smooth="yes"/>
      <point x="129" y="116"/>
      <point x="123" y="82"/>
      <point x="123" y="76" type="curve" smooth="yes"/>
      <point x="123" y="68"/>
      <point x="130" y="61"/>
      <point x="138" y="61" type="curve" smooth="yes"/>
      <point x="153" y="61"/>
      <point x="176" y="82"/>
      <point x="202" y="121" type="curve"/>
    </contour>
    <contour>
      <point x="194" y="685" type="curve" smooth="yes"/>
      <point x="231" y="685"/>
      <point x="263" y="654"/>
      <point x="263" y="617" type="curve" smooth="yes"/>
      <point x="263" y="580"/>
      <point x="232" y="550"/>
      <point x="194" y="550" type="curve" smooth="yes"/>
      <point x="157" y="550"/>
      <point x="128" y="580"/>
      <point x="128" y="619" type="curve" smooth="yes"/>
      <point x="128" y="654"/>
      <point x="159" y="685"/>
    </contour>
    <contour>
      <point x="271" y="407" type="curve"/>
      <point x="271" y="434" type="line"/>
      <point x="383" y="444"/>
      <point x="420" y="449"/>
      <point x="479" y="462" type="curve"/>
      <point x="365" y="24" type="line" smooth="yes"/>
      <point x="325" y="-131"/>
      <point x="256" y="-207"/>
      <point x="156" y="-207" type="curve" smooth="yes"/>
      <point x="94" y="-207"/>
      <point x="51" y="-176"/>
      <point x="51" y="-130" type="curve" smooth="yes"/>
      <point x="51" y="-101"/>
      <point x="74" y="-77"/>
      <point x="100" y="-77" type="curve" smooth="yes"/>
      <point x="127" y="-77"/>
      <point x="149" y="-99"/>
      <point x="149" y="-126" type="curve" smooth="yes"/>
      <point x="149" y="-137"/>
      <point x="147" y="-142"/>
      <point x="136" y="-158" type="curve" smooth="yes"/>
      <point x="135" y="-160"/>
      <point x="134" y="-162"/>
      <point x="134" y="-164" type="curve" smooth="yes"/>
      <point x="134" y="-169"/>
      <point x="147" y="-176"/>
      <point x="158" y="-176" type="curve" smooth="yes"/>
      <point x="186" y="-176"/>
      <point x="203" y="-145"/>
      <point x="229" y="-45" type="curve" smooth="yes"/>
      <point x="321" y="310" type="line" smooth="yes"/>
      <point x="328" y="339"/>
      <point x="333" y="364"/>
      <point x="333" y="376" type="curve" smooth="yes"/>
      <point x="333" y="402"/>
      <point x="321" y="407"/>
    </contour>
    <contour>
      <point x="450" y="685" type="curve" smooth="yes"/>
      <point x="488" y="685"/>
      <point x="519" y="654"/>
      <point x="519" y="617" type="curve" smooth="yes"/>
      <point x="519" y="580"/>
      <point x="488" y="550"/>
      <point x="450" y="550" type="curve" smooth="yes"/>
      <point x="413" y="550"/>
      <point x="384" y="580"/>
      <point x="384" y="619" type="curve" smooth="yes"/>
      <point x="384" y="654"/>
      <point x="415" y="685"/>
    </contour>
  </outline>
</glyph>
<glyph name="Kcommaaccent" format="1">
  <advance width="667"/>
  <unicode hex="0136"/>
  <outline>
    <contour>
      <point x="392" y="398" type="line"/>
      <point x="549" y="60" type="line" smooth="yes"/>
      <point x="560" y="36"/>
      <point x="574" y="29"/>
      <point x="612" y="25" type="curve"/>
      <point x="612" y="0" type="line"/>
      <point x="332" y="0" type="line"/>
      <point x="332" y="25" type="line"/>
      <point x="344" y="26"/>
      <point x="355" y="27"/>
      <point x="359" y="28" type="curve" smooth="yes"/>
      <point x="385" y="30"/>
      <point x="397" y="38"/>
      <point x="397" y="52" type="curve" smooth="yes"/>
      <point x="397" y="63"/>
      <point x="393" y="75"/>
      <point x="384" y="95" type="curve" smooth="yes"/>
      <point x="271" y="337" type="line"/>
      <point x="204" y="88" type="line" smooth="yes"/>
      <point x="203" y="83"/>
      <point x="202" y="77"/>
      <point x="202" y="71" type="curve" smooth="yes"/>
      <point x="202" y="38"/>
      <point x="216" y="29"/>
      <point x="268" y="25" type="curve"/>
      <point x="268" y="0" type="line"/>
      <point x="-21" y="0" type="line"/>
      <point x="-21" y="25" type="line"/>
      <point x="28" y="31"/>
      <point x="43" y="44"/>
      <point x="59" y="97" type="curve"/>
      <point x="181" y="546" type="line" smooth="yes"/>
      <point x="188" y="572"/>
      <point x="192" y="593"/>
      <point x="192" y="604" type="curve" smooth="yes"/>
      <point x="192" y="626"/>
      <point x="181" y="635"/>
      <point x="150" y="639" type="curve" smooth="yes"/>
      <point x="145" y="640"/>
      <point x="133" y="642"/>
      <point x="119" y="644" type="curve"/>
      <point x="119" y="669" type="line"/>
      <point x="429" y="669" type="line"/>
      <point x="429" y="644" type="line"/>
      <point x="370" y="639"/>
      <point x="351" y="624"/>
      <point x="335" y="572" type="curve"/>
      <point x="273" y="344" type="line"/>
      <point x="479" y="520"/>
      <point x="547" y="588"/>
      <point x="547" y="617" type="curve" smooth="yes"/>
      <point x="547" y="632"/>
      <point x="537" y="639"/>
      <point x="512" y="642" type="curve" smooth="yes"/>
      <point x="509" y="642"/>
      <point x="500" y="643"/>
      <point x="491" y="644" type="curve"/>
      <point x="491" y="669" type="line"/>
      <point x="702" y="669" type="line"/>
      <point x="702" y="644" type="line"/>
      <point x="659" y="638"/>
      <point x="651" y="635"/>
      <point x="608" y="596" type="curve" smooth="yes"/>
    </contour>
    <contour>
      <point x="125" y="-324" type="curve"/>
      <point x="113" y="-303" type="line"/>
      <point x="184" y="-265"/>
      <point x="219" y="-230"/>
      <point x="219" y="-198" type="curve" smooth="yes"/>
      <point x="219" y="-185"/>
      <point x="212" y="-176"/>
      <point x="192" y="-163" type="curve" smooth="yes"/>
      <point x="165" y="-144"/>
      <point x="156" y="-130"/>
      <point x="156" y="-106" type="curve" smooth="yes"/>
      <point x="156" y="-68"/>
      <point x="183" y="-40"/>
      <point x="220" y="-40" type="curve" smooth="yes"/>
      <point x="266" y="-40"/>
      <point x="297" y="-75"/>
      <point x="297" y="-128" type="curve" smooth="yes"/>
      <point x="297" y="-201"/>
      <point x="229" y="-278"/>
    </contour>
  </outline>
</glyph>
<glyph name="Lacute" format="1">
  <advance width="611"/>
  <unicode hex="0139"/>
  <outline>
    <contour>
      <point x="590" y="194" type="line"/>
      <point x="531" y="0" type="line"/>
      <point x="-22" y="0" type="line"/>
      <point x="-22" y="25" type="line"/>
      <point x="27" y="32"/>
      <point x="42" y="45"/>
      <point x="58" y="97" type="curve"/>
      <point x="181" y="546" type="line" smooth="yes"/>
      <point x="186" y="564"/>
      <point x="191" y="595"/>
      <point x="191" y="607" type="curve" smooth="yes"/>
      <point x="191" y="627"/>
      <point x="181" y="635"/>
      <point x="150" y="639" type="curve" smooth="yes"/>
      <point x="145" y="640"/>
      <point x="132" y="642"/>
      <point x="118" y="644" type="curve"/>
      <point x="118" y="669" type="line"/>
      <point x="435" y="669" type="line"/>
      <point x="435" y="644" type="line"/>
      <point x="369" y="640"/>
      <point x="350" y="627"/>
      <point x="334" y="572" type="curve"/>
      <point x="205" y="94" type="line" smooth="yes"/>
      <point x="202" y="83"/>
      <point x="200" y="70"/>
      <point x="200" y="62" type="curve" smooth="yes"/>
      <point x="200" y="41"/>
      <point x="220" y="32"/>
      <point x="264" y="32" type="curve" smooth="yes"/>
      <point x="346" y="32"/>
      <point x="417" y="52"/>
      <point x="471" y="90" type="curve" smooth="yes"/>
      <point x="510" y="118"/>
      <point x="532" y="143"/>
      <point x="566" y="199" type="curve"/>
    </contour>
    <contour>
      <point x="327" y="726" type="line"/>
      <point x="278" y="726" type="line"/>
      <point x="400" y="857" type="line" smooth="yes"/>
      <point x="435" y="895"/>
      <point x="452" y="907"/>
      <point x="470" y="907" type="curve" smooth="yes"/>
      <point x="496" y="907"/>
      <point x="518" y="885"/>
      <point x="518" y="860" type="curve" smooth="yes"/>
      <point x="518" y="841"/>
      <point x="509" y="830"/>
      <point x="479" y="813" type="curve" smooth="yes"/>
    </contour>
  </outline>
</glyph>
<glyph name="lacute" format="1">
  <advance width="278"/>
  <unicode hex="013A"/>
  <outline>
    <contour>
      <point x="216" y="141" type="curve"/>
      <point x="238" y="127" type="line"/>
      <point x="169" y="22"/>
      <point x="131" y="-9"/>
      <point x="69" y="-9" type="curve" smooth="yes"/>
      <point x="29" y="-9"/>
      <point x="2" y="15"/>
      <point x="2" y="51" type="curve" smooth="yes"/>
      <point x="2" y="75"/>
      <point x="14" y="133"/>
      <point x="36" y="209" type="curve" smooth="yes"/>
      <point x="110" y="473" type="line"/>
      <point x="130" y="540"/>
      <point x="144" y="602"/>
      <point x="144" y="615" type="curve" smooth="yes"/>
      <point x="144" y="633"/>
      <point x="129" y="643"/>
      <point x="102" y="643" type="curve" smooth="yes"/>
      <point x="98" y="643"/>
      <point x="92" y="643"/>
      <point x="81" y="642" type="curve"/>
      <point x="81" y="669" type="line"/>
      <point x="156" y="676"/>
      <point x="204" y="682"/>
      <point x="290" y="699" type="curve"/>
      <point x="145" y="176" type="line" smooth="yes"/>
      <point x="131" y="124"/>
      <point x="123" y="90"/>
      <point x="123" y="76" type="curve" smooth="yes"/>
      <point x="123" y="68"/>
      <point x="130" y="61"/>
      <point x="138" y="61" type="curve" smooth="yes"/>
      <point x="155" y="61"/>
      <point x="176" y="82"/>
    </contour>
    <contour>
      <point x="201" y="726" type="line"/>
      <point x="152" y="726" type="line"/>
      <point x="274" y="857" type="line" smooth="yes"/>
      <point x="309" y="895"/>
      <point x="326" y="907"/>
      <point x="344" y="907" type="curve" smooth="yes"/>
      <point x="370" y="907"/>
      <point x="392" y="885"/>
      <point x="392" y="860" type="curve" smooth="yes"/>
      <point x="392" y="841"/>
      <point x="383" y="830"/>
      <point x="353" y="813" type="curve" smooth="yes"/>
    </contour>
  </outline>
</glyph>
<glyph name="Lcommaaccent" format="1">
  <advance width="611"/>
  <unicode hex="013B"/>
  <outline>
    <contour>
      <point x="590" y="194" type="line"/>
      <point x="531" y="0" type="line"/>
      <point x="-22" y="0" type="line"/>
      <point x="-22" y="25" type="line"/>
      <point x="27" y="32"/>
      <point x="42" y="45"/>
      <point x="58" y="97" type="curve"/>
      <point x="181" y="546" type="line" smooth="yes"/>
      <point x="186" y="564"/>
      <point x="191" y="595"/>
      <point x="191" y="607" type="curve" smooth="yes"/>
      <point x="191" y="627"/>
      <point x="181" y="635"/>
      <point x="150" y="639" type="curve" smooth="yes"/>
      <point x="145" y="640"/>
      <point x="132" y="642"/>
      <point x="118" y="644" type="curve"/>
      <point x="118" y="669" type="line"/>
      <point x="435" y="669" type="line"/>
      <point x="435" y="644" type="line"/>
      <point x="369" y="640"/>
      <point x="350" y="627"/>
      <point x="334" y="572" type="curve"/>
      <point x="205" y="94" type="line" smooth="yes"/>
      <point x="202" y="83"/>
      <point x="200" y="70"/>
      <point x="200" y="62" type="curve" smooth="yes"/>
      <point x="200" y="41"/>
      <point x="220" y="32"/>
      <point x="264" y="32" type="curve" smooth="yes"/>
      <point x="346" y="32"/>
      <point x="417" y="52"/>
      <point x="471" y="90" type="curve" smooth="yes"/>
      <point x="510" y="118"/>
      <point x="532" y="143"/>
      <point x="566" y="199" type="curve"/>
    </contour>
    <contour>
      <point x="97" y="-324" type="curve"/>
      <point x="85" y="-303" type="line"/>
      <point x="156" y="-265"/>
      <point x="191" y="-230"/>
      <point x="191" y="-198" type="curve" smooth="yes"/>
      <point x="191" y="-185"/>
      <point x="184" y="-176"/>
      <point x="164" y="-163" type="curve" smooth="yes"/>
      <point x="137" y="-144"/>
      <point x="128" y="-130"/>
      <point x="128" y="-106" type="curve" smooth="yes"/>
      <point x="128" y="-68"/>
      <point x="155" y="-40"/>
      <point x="192" y="-40" type="curve" smooth="yes"/>
      <point x="238" y="-40"/>
      <point x="269" y="-75"/>
      <point x="269" y="-128" type="curve" smooth="yes"/>
      <point x="269" y="-201"/>
      <point x="201" y="-278"/>
    </contour>
  </outline>
</glyph>
<glyph name="Lcaron" format="1">
  <advance width="611"/>
  <unicode hex="013D"/>
  <outline>
    <contour>
      <point x="590" y="194" type="line"/>
      <point x="531" y="0" type="line"/>
      <point x="-22" y="0" type="line"/>
      <point x="-22" y="25" type="line"/>
      <point x="27" y="32"/>
      <point x="42" y="45"/>
      <point x="58" y="97" type="curve"/>
      <point x="181" y="546" type="line" smooth="yes"/>
      <point x="186" y="564"/>
      <point x="191" y="595"/>
      <point x="191" y="607" type="curve" smooth="yes"/>
      <point x="191" y="627"/>
      <point x="181" y="635"/>
      <point x="150" y="639" type="curve" smooth="yes"/>
      <point x="145" y="640"/>
      <point x="132" y="642"/>
      <point x="118" y="644" type="curve"/>
      <point x="118" y="669" type="line"/>
      <point x="435" y="669" type="line"/>
      <point x="435" y="644" type="line"/>
      <point x="369" y="640"/>
      <point x="350" y="627"/>
      <point x="334" y="572" type="curve"/>
      <point x="205" y="94" type="line" smooth="yes"/>
      <point x="202" y="83"/>
      <point x="200" y="70"/>
      <point x="200" y="62" type="curve" smooth="yes"/>
      <point x="200" y="41"/>
      <point x="220" y="32"/>
      <point x="264" y="32" type="curve" smooth="yes"/>
      <point x="346" y="32"/>
      <point x="417" y="52"/>
      <point x="471" y="90" type="curve" smooth="yes"/>
      <point x="510" y="118"/>
      <point x="532" y="143"/>
      <point x="566" y="199" type="curve"/>
    </contour>
    <contour>
      <point x="479" y="401" type="curve"/>
      <point x="467" y="422" type="line"/>
      <point x="537" y="460"/>
      <point x="573" y="495"/>
      <point x="573" y="527" type="curve" smooth="yes"/>
      <point x="573" y="540"/>
      <point x="566" y="549"/>
      <point x="546" y="562" type="curve" smooth="yes"/>
      <point x="519" y="580"/>
      <point x="510" y="595"/>
      <point x="510" y="619" type="curve" smooth="yes"/>
      <point x="510" y="657"/>
      <point x="537" y="685"/>
      <point x="574" y="685" type="curve" smooth="yes"/>
      <point x="620" y="685"/>
      <point x="651" y="650"/>
      <point x="651" y="597" type="curve" smooth="yes"/>
      <point x="651" y="524"/>
      <point x="583" y="446"/>
    </contour>
  </outline>
</glyph>
<glyph name="lcaron" format="1">
  <advance width="382"/>
  <unicode hex="013E"/>
  <outline>
    <contour>
      <point x="216" y="141" type="curve"/>
      <point x="238" y="127" type="line"/>
      <point x="169" y="22"/>
      <point x="131" y="-9"/>
      <point x="69" y="-9" type="curve" smooth="yes"/>
      <point x="29" y="-9"/>
      <point x="2" y="15"/>
      <point x="2" y="51" type="curve" smooth="yes"/>
      <point x="2" y="75"/>
      <point x="14" y="133"/>
      <point x="36" y="209" type="curve" smooth="yes"/>
      <point x="110" y="473" type="line"/>
      <point x="130" y="540"/>
      <point x="144" y="602"/>
      <point x="144" y="615" type="curve" smooth="yes"/>
      <point x="144" y="633"/>
      <point x="129" y="643"/>
      <point x="102" y="643" type="curve" smooth="yes"/>
      <point x="98" y="643"/>
      <point x="92" y="643"/>
      <point x="81" y="642" type="curve"/>
      <point x="81" y="669" type="line"/>
      <point x="156" y="676"/>
      <point x="204" y="682"/>
      <point x="290" y="699" type="curve"/>
      <point x="145" y="176" type="line" smooth="yes"/>
      <point x="131" y="124"/>
      <point x="123" y="90"/>
      <point x="123" y="76" type="curve" smooth="yes"/>
      <point x="123" y="68"/>
      <point x="130" y="61"/>
      <point x="138" y="61" type="curve" smooth="yes"/>
      <point x="155" y="61"/>
      <point x="176" y="82"/>
    </contour>
    <contour>
      <point x="274" y="401" type="curve"/>
      <point x="262" y="422" type="line"/>
      <point x="332" y="460"/>
      <point x="368" y="495"/>
      <point x="368" y="527" type="curve" smooth="yes"/>
      <point x="368" y="540"/>
      <point x="361" y="549"/>
      <point x="341" y="562" type="curve" smooth="yes"/>
      <point x="314" y="580"/>
      <point x="305" y="595"/>
      <point x="305" y="619" type="curve" smooth="yes"/>
      <point x="305" y="657"/>
      <point x="332" y="685"/>
      <point x="369" y="685" type="curve" smooth="yes"/>
      <point x="415" y="685"/>
      <point x="446" y="650"/>
      <point x="446" y="597" type="curve" smooth="yes"/>
      <point x="446" y="524"/>
      <point x="378" y="446"/>
    </contour>
  </outline>
</glyph>
<glyph name="Ncaron" format="1">
  <advance width="722"/>
  <unicode hex="0147"/>
  <outline>
    <contour>
      <point x="306" y="669" type="line"/>
      <point x="521" y="204" type="line"/>
      <point x="601" y="491" type="line" smooth="yes"/>
      <point x="612" y="531"/>
      <point x="619" y="567"/>
      <point x="619" y="585" type="curve" smooth="yes"/>
      <point x="619" y="623"/>
      <point x="598" y="639"/>
      <point x="539" y="644" type="curve"/>
      <point x="539" y="669" type="line"/>
      <point x="748" y="669" type="line"/>
      <point x="748" y="644" type="line"/>
      <point x="690" y="631"/>
      <point x="685" y="623"/>
      <point x="646" y="491" type="curve"/>
      <point x="503" y="-15" type="line"/>
      <point x="475" y="-15" type="line"/>
      <point x="218" y="534" type="line"/>
      <point x="119" y="178" type="line" smooth="yes"/>
      <point x="108" y="137"/>
      <point x="101" y="102"/>
      <point x="101" y="84" type="curve" smooth="yes"/>
      <point x="101" y="45"/>
      <point x="122" y="30"/>
      <point x="181" y="25" type="curve"/>
      <point x="181" y="0" type="line"/>
      <point x="-27" y="0" type="line"/>
      <point x="-27" y="25" type="line"/>
      <point x="28" y="36"/>
      <point x="35" y="47"/>
      <point x="74" y="178" type="curve" smooth="yes"/>
      <point x="194" y="589" type="line"/>
      <point x="175" y="633"/>
      <point x="166" y="639"/>
      <point x="111" y="644" type="curve"/>
      <point x="111" y="669" type="line"/>
    </contour>
    <contour>
      <point x="646" y="900" type="line"/>
      <point x="484" y="726" type="line"/>
      <point x="402" y="726" type="line"/>
      <point x="314" y="900" type="line"/>
      <point x="364" y="900" type="line"/>
      <point x="455" y="803" type="line"/>
      <point x="590" y="900" type="line"/>
    </contour>
  </outline>
</glyph>
<glyph name="napostrophe" format="1">
  <advance width="556"/>
  <unicode hex="0149"/>
  <outline>
    <contour>
      <point x="140" y="470" type="curve"/>
      <point x="127" y="494" type="line"/>
      <point x="205" y="536"/>
      <point x="245" y="575"/>
      <point x="245" y="611" type="curve" smooth="yes"/>
      <point x="245" y="625"/>
      <point x="238" y="634"/>
      <point x="215" y="649" type="curve" smooth="yes"/>
      <point x="185" y="670"/>
      <point x="175" y="686"/>
      <point x="175" y="713" type="curve" smooth="yes"/>
      <point x="175" y="755"/>
      <point x="205" y="786"/>
      <point x="246" y="786" type="curve" smooth="yes"/>
      <point x="297" y="786"/>
      <point x="331" y="747"/>
      <point x="331" y="688" type="curve" smooth="yes"/>
      <point x="331" y="607"/>
      <point x="255" y="520"/>
    </contour>
    <contour>
      <point x="471" y="135" type="curve"/>
      <point x="493" y="122" type="line"/>
      <point x="435" y="25"/>
      <point x="393" y="-9"/>
      <point x="334" y="-9" type="curve" smooth="yes"/>
      <point x="292" y="-9"/>
      <point x="266" y="14"/>
      <point x="266" y="51" type="curve" smooth="yes"/>
      <point x="266" y="77"/>
      <point x="278" y="134"/>
      <point x="294" y="182" type="curve" smooth="yes"/>
      <point x="349" y="348" type="line" smooth="yes"/>
      <point x="352" y="358"/>
      <point x="354" y="366"/>
      <point x="354" y="369" type="curve" smooth="yes"/>
      <point x="354" y="379"/>
      <point x="341" y="390"/>
      <point x="329" y="390" type="curve" smooth="yes"/>
      <point x="311" y="390"/>
      <point x="280" y="368"/>
      <point x="260" y="341" type="curve" smooth="yes"/>
      <point x="198" y="260"/>
      <point x="162" y="173"/>
      <point x="115" y="0" type="curve"/>
      <point x="-6" y="0" type="line"/>
      <point x="23" y="108" type="line"/>
      <point x="50" y="204" type="line" smooth="yes"/>
      <point x="84" y="324"/>
      <point x="96" y="371"/>
      <point x="96" y="382" type="curve" smooth="yes"/>
      <point x="96" y="401"/>
      <point x="84" y="406"/>
      <point x="42" y="407" type="curve"/>
      <point x="42" y="434" type="line"/>
      <point x="98" y="436"/>
      <point x="178" y="447"/>
      <point x="242" y="461" type="curve"/>
      <point x="178" y="263" type="line"/>
      <point x="245" y="362"/>
      <point x="264" y="386"/>
      <point x="300" y="421" type="curve" smooth="yes"/>
      <point x="328" y="447"/>
      <point x="364" y="462"/>
      <point x="401" y="462" type="curve" smooth="yes"/>
      <point x="448" y="462"/>
      <point x="474" y="435"/>
      <point x="474" y="387" type="curve" smooth="yes"/>
      <point x="474" y="363"/>
      <point x="464" y="318"/>
      <point x="448" y="272" type="curve" smooth="yes"/>
      <point x="412" y="163" type="line" smooth="yes"/>
      <point x="394" y="109"/>
      <point x="387" y="86"/>
      <point x="387" y="76" type="curve" smooth="yes"/>
      <point x="387" y="66"/>
      <point x="393" y="59"/>
      <point x="401" y="59" type="curve" smooth="yes"/>
      <point x="418" y="59"/>
      <point x="431" y="73"/>
    </contour>
  </outline>
</glyph>
<glyph name="OE" format="1">
  <advance width="944"/>
  <unicode hex="0152"/>
  <outline>
    <contour>
      <point x="946" y="669" type="line"/>
      <point x="900" y="478" type="line"/>
      <point x="875" y="484" type="line"/>
      <point x="876" y="498"/>
      <point x="877" y="512"/>
      <point x="877" y="521" type="curve" smooth="yes"/>
      <point x="877" y="599"/>
      <point x="822" y="637"/>
      <point x="712" y="637" type="curve" smooth="yes"/>
      <point x="677" y="637"/>
      <point x="670" y="631"/>
      <point x="659" y="590" type="curve" smooth="yes"/>
      <point x="598" y="370" type="line"/>
      <point x="619" y="370" type="line"/>
      <point x="623" y="370" type="line"/>
      <point x="713" y="369"/>
      <point x="755" y="396"/>
      <point x="787" y="473" type="curve"/>
      <point x="814" y="470" type="line"/>
      <point x="742" y="198" type="line"/>
      <point x="715" y="203" type="line"/>
      <point x="716" y="212"/>
      <point x="716" y="219"/>
      <point x="716" y="222" type="curve" smooth="yes"/>
      <point x="718" y="239"/>
      <point x="719" y="255"/>
      <point x="719" y="263" type="curve" smooth="yes"/>
      <point x="719" y="282"/>
      <point x="712" y="299"/>
      <point x="699" y="311" type="curve" smooth="yes"/>
      <point x="684" y="324"/>
      <point x="664" y="329"/>
      <point x="589" y="336" type="curve"/>
      <point x="525" y="91" type="line" smooth="yes"/>
      <point x="523" y="82"/>
      <point x="521" y="72"/>
      <point x="521" y="66" type="curve" smooth="yes"/>
      <point x="521" y="42"/>
      <point x="542" y="32"/>
      <point x="594" y="32" type="curve" smooth="yes"/>
      <point x="711" y="32"/>
      <point x="782" y="78"/>
      <point x="851" y="199" type="curve"/>
      <point x="878" y="194" type="line"/>
      <point x="818" y="0" type="line"/>
      <point x="522" y="0" type="line"/>
      <point x="494" y="0" type="line"/>
      <point x="484" y="-1"/>
      <point x="475" y="-1"/>
      <point x="470" y="-1" type="curve" smooth="yes"/>
      <point x="448" y="-1" type="line"/>
      <point x="294" y="-8" type="line"/>
      <point x="274" y="-9" type="line"/>
      <point x="194" y="-9"/>
      <point x="139" y="8"/>
      <point x="95" y="46" type="curve"/>
      <point x="48" y="85"/>
      <point x="23" y="148"/>
      <point x="23" y="223" type="curve" smooth="yes"/>
      <point x="23" y="364"/>
      <point x="99" y="513"/>
      <point x="217" y="602" type="curve" smooth="yes"/>
      <point x="291" y="657"/>
      <point x="356" y="677"/>
      <point x="464" y="677" type="curve" smooth="yes"/>
      <point x="478" y="677"/>
      <point x="489" y="676"/>
      <point x="520" y="674" type="curve" smooth="yes"/>
      <point x="561" y="671"/>
      <point x="594" y="669"/>
      <point x="611" y="669" type="curve" smooth="yes"/>
    </contour>
    <contour>
      <point x="392" y="123" type="curve" smooth="yes"/>
      <point x="500" y="514" type="line" smooth="yes"/>
      <point x="507" y="540"/>
      <point x="512" y="567"/>
      <point x="512" y="582" type="curve" smooth="yes"/>
      <point x="512" y="623"/>
      <point x="486" y="645"/>
      <point x="439" y="645" type="curve" smooth="yes"/>
      <point x="379" y="645"/>
      <point x="329" y="613"/>
      <point x="281" y="545" type="curve" smooth="yes"/>
      <point x="218" y="454"/>
      <point x="164" y="275"/>
      <point x="164" y="158" type="curve" smooth="yes"/>
      <point x="164" y="77"/>
      <point x="212" y="24"/>
      <point x="285" y="24" type="curve" smooth="yes"/>
      <point x="343" y="24"/>
      <point x="372" y="51"/>
    </contour>
  </outline>
</glyph>
<glyph name="racute" format="1">
  <advance width="389"/>
  <unicode hex="0155"/>
  <outline>
    <contour>
      <point x="27" y="407" type="curve"/>
      <point x="27" y="434" type="line"/>
      <point x="148" y="444"/>
      <point x="167" y="447"/>
      <point x="227" y="462" type="curve"/>
      <point x="161" y="253" type="line"/>
      <point x="240" y="411"/>
      <point x="281" y="462"/>
      <point x="332" y="462" type="curve" smooth="yes"/>
      <point x="366" y="462"/>
      <point x="389" y="436"/>
      <point x="389" y="396" type="curve" smooth="yes"/>
      <point x="389" y="354"/>
      <point x="364" y="323"/>
      <point x="330" y="323" type="curve" smooth="yes"/>
      <point x="314" y="323"/>
      <point x="301" y="331"/>
      <point x="286" y="348" type="curve" smooth="yes"/>
      <point x="279" y="357"/>
      <point x="274" y="361"/>
      <point x="270" y="361" type="curve" smooth="yes"/>
      <point x="257" y="361"/>
      <point x="235" y="336"/>
      <point x="209" y="291" type="curve"/>
      <point x="180" y="243"/>
      <point x="165" y="205"/>
      <point x="133" y="104" type="curve" smooth="yes"/>
      <point x="129" y="89"/>
      <point x="115" y="46"/>
      <point x="100" y="0" type="curve"/>
      <point x="-21" y="0" type="line"/>
      <point x="47" y="229"/>
      <point x="81" y="357"/>
      <point x="81" y="382" type="curve" smooth="yes"/>
      <point x="81" y="401"/>
      <point x="72" y="405"/>
    </contour>
    <contour>
      <point x="216" y="516" type="line"/>
      <point x="167" y="516" type="line"/>
      <point x="289" y="647" type="line" smooth="yes"/>
      <point x="324" y="685"/>
      <point x="341" y="697"/>
      <point x="359" y="697" type="curve" smooth="yes"/>
      <point x="385" y="697"/>
      <point x="407" y="675"/>
      <point x="407" y="650" type="curve" smooth="yes"/>
      <point x="407" y="631"/>
      <point x="398" y="620"/>
      <point x="368" y="603" type="curve" smooth="yes"/>
    </contour>
  </outline>
</glyph>
<glyph name="tcommaaccent" format="1">
  <advance width="278"/>
  <unicode hex="0163"/>
  <outline>
    <contour>
      <point x="281" y="449" type="line"/>
      <point x="281" y="407" type="line"/>
      <point x="198" y="407" type="line"/>
      <point x="177" y="332" type="line" smooth="yes"/>
      <point x="173" y="316"/>
      <point x="169" y="302"/>
      <point x="165" y="289" type="curve" smooth="yes"/>
      <point x="129" y="167"/>
      <point x="111" y="94"/>
      <point x="111" y="76" type="curve" smooth="yes"/>
      <point x="111" y="69"/>
      <point x="119" y="61"/>
      <point x="127" y="61" type="curve" smooth="yes"/>
      <point x="143" y="61"/>
      <point x="169" y="88"/>
      <point x="203" y="141" type="curve"/>
      <point x="225" y="127" type="line"/>
      <point x="159" y="24"/>
      <point x="119" y="-9"/>
      <point x="59" y="-9" type="curve" smooth="yes"/>
      <point x="17" y="-9"/>
      <point x="-11" y="17"/>
      <point x="-11" y="56" type="curve" smooth="yes"/>
      <point x="-11" y="73"/>
      <point x="-1" y="118"/>
      <point x="13" y="169" type="curve" smooth="yes"/>
      <point x="81" y="407" type="line"/>
      <point x="30" y="407" type="line"/>
      <point x="30" y="442" type="line"/>
      <point x="109" y="472"/>
      <point x="159" y="513"/>
      <point x="213" y="594" type="curve"/>
      <point x="248" y="594" type="line"/>
      <point x="209" y="449" type="line"/>
    </contour>
    <contour>
      <point x="-69" y="-324" type="curve"/>
      <point x="-81" y="-303" type="line"/>
      <point x="-10" y="-265"/>
      <point x="25" y="-230"/>
      <point x="25" y="-198" type="curve" smooth="yes"/>
      <point x="25" y="-185"/>
      <point x="18" y="-176"/>
      <point x="-2" y="-163" type="curve" smooth="yes"/>
      <point x="-29" y="-144"/>
      <point x="-38" y="-130"/>
      <point x="-38" y="-106" type="curve" smooth="yes"/>
      <point x="-38" y="-68"/>
      <point x="-11" y="-40"/>
      <point x="26" y="-40" type="curve" smooth="yes"/>
      <point x="72" y="-40"/>
      <point x="103" y="-75"/>
      <point x="103" y="-128" type="curve" smooth="yes"/>
      <point x="103" y="-201"/>
      <point x="35" y="-278"/>
    </contour>
  </outline>
</glyph>
<glyph name="tbar" format="1">
  <advance width="278"/>
  <unicode hex="0167"/>
  <outline>
    <contour>
      <point x="57" y="322" type="line"/>
      <point x="81" y="407" type="line"/>
      <point x="30" y="407" type="line"/>
      <point x="30" y="442" type="line"/>
      <point x="109" y="472"/>
      <point x="159" y="513"/>
      <point x="213" y="594" type="curve"/>
      <point x="248" y="594" type="line"/>
      <point x="209" y="449" type="line"/>
      <point x="281" y="449" type="line"/>
      <point x="281" y="407" type="line"/>
      <point x="198" y="407" type="line"/>
      <point x="174" y="322" type="line"/>
      <point x="266" y="322" type="line"/>
      <point x="253" y="252" type="line"/>
      <point x="154" y="252" type="line"/>
      <point x="125" y="152"/>
      <point x="111" y="92"/>
      <point x="111" y="76" type="curve" smooth="yes"/>
      <point x="111" y="69"/>
      <point x="119" y="61"/>
      <point x="127" y="61" type="curve" smooth="yes"/>
      <point x="143" y="61"/>
      <point x="169" y="88"/>
      <point x="203" y="141" type="curve"/>
      <point x="225" y="127" type="line"/>
      <point x="159" y="24"/>
      <point x="119" y="-9"/>
      <point x="59" y="-9" type="curve" smooth="yes"/>
      <point x="17" y="-9"/>
      <point x="-11" y="17"/>
      <point x="-11" y="56" type="curve" smooth="yes"/>
      <point x="-11" y="73"/>
      <point x="-1" y="118"/>
      <point x="13" y="169" type="curve" smooth="yes"/>
      <point x="37" y="252" type="line"/>
      <point x="-15" y="252" type="line"/>
      <point x="-1" y="322" type="line"/>
    </contour>
  </outline>
</glyph>
<glyph name="Utilde" format="1">
  <advance width="722"/>
  <unicode hex="0168"/>
  <outline>
    <contour>
      <point x="593" y="838" type="curve"/>
      <point x="634" y="838" type="line"/>
      <point x="612" y="755"/>
      <point x="577" y="719"/>
      <point x="517" y="719" type="curve" smooth="yes"/>
      <point x="498" y="719"/>
      <point x="486" y="722"/>
      <point x="460" y="732" type="curve" smooth="yes"/>
      <point x="401" y="755" type="line" smooth="yes"/>
      <point x="388" y="760"/>
      <point x="374" y="763"/>
      <point x="363" y="763" type="curve" smooth="yes"/>
      <point x="341" y="763"/>
      <point x="328" y="752"/>
      <point x="315" y="720" type="curve"/>
      <point x="275" y="720" type="line"/>
      <point x="288" y="792"/>
      <point x="334" y="838"/>
      <point x="391" y="838" type="curve" smooth="yes"/>
      <point x="415" y="838"/>
      <point x="447" y="830"/>
      <point x="488" y="812" type="curve" smooth="yes"/>
      <point x="514" y="801"/>
      <point x="531" y="796"/>
      <point x="542" y="796" type="curve" smooth="yes"/>
      <point x="565" y="796"/>
      <point x="578" y="807"/>
    </contour>
    <contour>
      <point x="744" y="669" type="line"/>
      <point x="744" y="644" type="line"/>
      <point x="689" y="633"/>
      <point x="682" y="623"/>
      <point x="642" y="491" type="curve"/>
      <point x="576" y="263" type="line" smooth="yes"/>
      <point x="545" y="155"/>
      <point x="521" y="101"/>
      <point x="487" y="62" type="curve" smooth="yes"/>
      <point x="442" y="9"/>
      <point x="375" y="-18"/>
      <point x="290" y="-18" type="curve" smooth="yes"/>
      <point x="159" y="-18"/>
      <point x="67" y="50"/>
      <point x="67" y="148" type="curve" smooth="yes"/>
      <point x="67" y="181"/>
      <point x="79" y="243"/>
      <point x="100" y="323" type="curve" smooth="yes"/>
      <point x="156" y="529" type="line" smooth="yes"/>
      <point x="165" y="562"/>
      <point x="171" y="593"/>
      <point x="171" y="605" type="curve" smooth="yes"/>
      <point x="171" y="627"/>
      <point x="161" y="635"/>
      <point x="129" y="640" type="curve" smooth="yes"/>
      <point x="125" y="640"/>
      <point x="112" y="642"/>
      <point x="98" y="644" type="curve"/>
      <point x="98" y="669" type="line"/>
      <point x="409" y="669" type="line"/>
      <point x="409" y="644" type="line"/>
      <point x="347" y="641"/>
      <point x="332" y="629"/>
      <point x="315" y="572" type="curve"/>
      <point x="233" y="272" type="line" smooth="yes"/>
      <point x="208" y="181"/>
      <point x="205" y="166"/>
      <point x="205" y="139" type="curve" smooth="yes"/>
      <point x="205" y="76"/>
      <point x="251" y="38"/>
      <point x="327" y="38" type="curve" smooth="yes"/>
      <point x="382" y="38"/>
      <point x="426" y="58"/>
      <point x="460" y="98" type="curve"/>
      <point x="490" y="135"/>
      <point x="512" y="185"/>
      <point x="539" y="282" type="curve" smooth="yes"/>
      <point x="597" y="491" type="line" smooth="yes"/>
      <point x="608" y="532"/>
      <point x="616" y="571"/>
      <point x="616" y="588" type="curve" smooth="yes"/>
      <point x="616" y="623"/>
      <point x="593" y="639"/>
      <point x="536" y="644" type="curve"/>
      <point x="536" y="669" type="line"/>
    </contour>
  </outline>
</glyph>
<glyph name="Uogonek" format="1">
  <advance width="722"/>
  <unicode hex="0172"/>
  <outline>
    <contour>
      <point x="536" y="669" type="line"/>
      <point x="744" y="669" type="line"/>
      <point x="744" y="644" type="line"/>
      <point x="689" y="633"/>
      <point x="682" y="623"/>
      <point x="642" y="491" type="curve"/>
      <point x="576" y="263" type="line" smooth="yes"/>
      <point x="557" y="199"/>
      <point x="543" y="158"/>
      <point x="533" y="135" type="curve" smooth="yes"/>
      <point x="528" y="124"/>
      <point x="519" y="110"/>
      <point x="507" y="92" type="curve" smooth="yes"/>
      <point x="487" y="62" type="line" smooth="yes"/>
      <point x="470" y="36"/>
      <point x="458" y="-6"/>
      <point x="458" y="-42" type="curve" smooth="yes"/>
      <point x="458" y="-82"/>
      <point x="481" y="-104"/>
      <point x="521" y="-104" type="curve" smooth="yes"/>
      <point x="537" y="-104"/>
      <point x="547" y="-101"/>
      <point x="567" y="-91" type="curve" smooth="yes"/>
      <point x="576" y="-87"/>
      <point x="577" y="-86"/>
      <point x="582" y="-84" type="curve"/>
      <point x="604" y="-98" type="line"/>
      <point x="579" y="-144"/>
      <point x="531" y="-173"/>
      <point x="481" y="-173" type="curve" smooth="yes"/>
      <point x="419" y="-173"/>
      <point x="374" y="-139"/>
      <point x="374" y="-92" type="curve" smooth="yes"/>
      <point x="374" y="-62"/>
      <point x="386" y="-39"/>
      <point x="428" y="13" type="curve"/>
      <point x="386" y="-8"/>
      <point x="342" y="-18"/>
      <point x="289" y="-18" type="curve" smooth="yes"/>
      <point x="159" y="-18"/>
      <point x="67" y="50"/>
      <point x="67" y="148" type="curve" smooth="yes"/>
      <point x="67" y="181"/>
      <point x="79" y="243"/>
      <point x="100" y="323" type="curve" smooth="yes"/>
      <point x="156" y="529" type="line" smooth="yes"/>
      <point x="165" y="562"/>
      <point x="171" y="593"/>
      <point x="171" y="605" type="curve" smooth="yes"/>
      <point x="171" y="627"/>
      <point x="161" y="635"/>
      <point x="129" y="640" type="curve" smooth="yes"/>
      <point x="125" y="640"/>
      <point x="112" y="642"/>
      <point x="98" y="644" type="curve"/>
      <point x="98" y="669" type="line"/>
      <point x="409" y="669" type="line"/>
      <point x="409" y="644" type="line"/>
      <point x="347" y="641"/>
      <point x="332" y="629"/>
      <point x="315" y="572" type="curve"/>
      <point x="233" y="272" type="line" smooth="yes"/>
      <point x="208" y="181"/>
      <point x="205" y="166"/>
      <point x="205" y="139" type="curve" smooth="yes"/>
      <point x="205" y="76"/>
      <point x="251" y="38"/>
      <point x="327" y="38" type="curve" smooth="yes"/>
      <point x="382" y="38"/>
      <point x="426" y="58"/>
      <point x="460" y="98" type="curve"/>
      <point x="490" y="135"/>
      <point x="512" y="185"/>
      <point x="539" y="282" type="curve" smooth="yes"/>
      <point x="597" y="491" type="line" smooth="yes"/>
      <point x="608" y="532"/>
      <point x="616" y="571"/>
      <point x="616" y="588" type="curve" smooth="yes"/>
      <point x="616" y="623"/>
      <point x="593" y="639"/>
      <point x="536" y="644" type="curve"/>
    </contour>
  </outline>
</glyph>
<glyph name="Wcircumflex" format="1">
  <advance width="889"/>
  <unicode hex="0174"/>
  <outline>
    <contour>
      <point x="632" y="719" type="line"/>
      <point x="544" y="814" type="line"/>
      <point x="413" y="719" type="line"/>
      <point x="356" y="719" type="line"/>
      <point x="516" y="893" type="line"/>
      <point x="597" y="893" type="line"/>
      <point x="683" y="719" type="line"/>
    </contour>
    <contour>
      <point x="940" y="669" type="line"/>
      <point x="940" y="645" type="line"/>
      <point x="898" y="639"/>
      <point x="884" y="627"/>
      <point x="856" y="572" type="curve"/>
      <point x="570" y="-18" type="line"/>
      <point x="541" y="-18" type="line"/>
      <point x="482" y="471" type="line"/>
      <point x="249" y="-18" type="line"/>
      <point x="220" y="-18" type="line"/>
      <point x="142" y="561" type="line" smooth="yes"/>
      <point x="132" y="632"/>
      <point x="130" y="634"/>
      <point x="65" y="645" type="curve"/>
      <point x="65" y="669" type="line"/>
      <point x="342" y="669" type="line"/>
      <point x="342" y="644" type="line"/>
      <point x="295" y="638"/>
      <point x="281" y="627"/>
      <point x="281" y="591" type="curve" smooth="yes"/>
      <point x="281" y="587"/>
      <point x="281" y="580"/>
      <point x="282" y="575" type="curve" smooth="yes"/>
      <point x="321" y="226" type="line"/>
      <point x="471" y="537" type="line"/>
      <point x="470" y="623"/>
      <point x="460" y="637"/>
      <point x="400" y="645" type="curve"/>
      <point x="400" y="669" type="line"/>
      <point x="669" y="669" type="line"/>
      <point x="669" y="644" type="line"/>
      <point x="616" y="639"/>
      <point x="606" y="630"/>
      <point x="606" y="586" type="curve" smooth="yes"/>
      <point x="606" y="575"/>
      <point x="606" y="572"/>
      <point x="612" y="521" type="curve" smooth="yes"/>
      <point x="645" y="226" type="line"/>
      <point x="801" y="553" type="line" smooth="yes"/>
      <point x="813" y="579"/>
      <point x="816" y="587"/>
      <point x="816" y="599" type="curve" smooth="yes"/>
      <point x="816" y="635"/>
      <point x="809" y="640"/>
      <point x="753" y="644" type="curve"/>
      <point x="753" y="669" type="line"/>
    </contour>
  </outline>
</glyph>
<glyph name="Zacute" format="1">
  <advance width="611"/>
  <unicode hex="0179"/>
  <outline>
    <contour>
      <point x="554" y="194" type="line"/>
      <point x="495" y="0" type="line"/>
      <point x="-11" y="0" type="line"/>
      <point x="-11" y="29" type="line"/>
      <point x="423" y="634" type="line"/>
      <point x="345" y="634" type="line" smooth="yes"/>
      <point x="235" y="634"/>
      <point x="172" y="597"/>
      <point x="93" y="487" type="curve"/>
      <point x="65" y="491" type="line"/>
      <point x="122" y="669" type="line"/>
      <point x="590" y="669" type="line"/>
      <point x="590" y="640" type="line"/>
      <point x="156" y="35" type="line"/>
      <point x="226" y="35" type="line" smooth="yes"/>
      <point x="314" y="35"/>
      <point x="373" y="49"/>
      <point x="418" y="80" type="curve" smooth="yes"/>
      <point x="458" y="107"/>
      <point x="496" y="149"/>
      <point x="527" y="199" type="curve"/>
    </contour>
    <contour>
      <point x="327" y="726" type="line"/>
      <point x="278" y="726" type="line"/>
      <point x="400" y="857" type="line" smooth="yes"/>
      <point x="435" y="895"/>
      <point x="452" y="907"/>
      <point x="470" y="907" type="curve" smooth="yes"/>
      <point x="496" y="907"/>
      <point x="518" y="885"/>
      <point x="518" y="860" type="curve" smooth="yes"/>
      <point x="518" y="841"/>
      <point x="509" y="830"/>
      <point x="479" y="813" type="curve" smooth="yes"/>
    </contour>
  </outline>
</glyph>
<glyph name="Zdotaccent" format="1">
  <advance width="611"/>
  <unicode hex="017B"/>
  <outline>
    <contour>
      <point x="554" y="194" type="line"/>
      <point x="495" y="0" type="line"/>
      <point x="-11" y="0" type="line"/>
      <point x="-11" y="29" type="line"/>
      <point x="423" y="634" type="line"/>
      <point x="345" y="634" type="line" smooth="yes"/>
      <point x="235" y="634"/>
      <point x="172" y="597"/>
      <point x="93" y="487" type="curve"/>
      <point x="65" y="491" type="line"/>
      <point x="122" y="669" type="line"/>
      <point x="590" y="669" type="line"/>
      <point x="590" y="640" type="line"/>
      <point x="156" y="35" type="line"/>
      <point x="226" y="35" type="line" smooth="yes"/>
      <point x="314" y="35"/>
      <point x="373" y="49"/>
      <point x="418" y="80" type="curve" smooth="yes"/>
      <point x="458" y="107"/>
      <point x="496" y="149"/>
      <point x="527" y="199" type="curve"/>
    </contour>
    <contour>
      <point x="366" y="865" type="curve" smooth="yes"/>
      <point x="402" y="865"/>
      <point x="432" y="835"/>
      <point x="432" y="799" type="curve" smooth="yes"/>
      <point x="432" y="765"/>
      <point x="401" y="735"/>
      <point x="366" y="735" type="curve" smooth="yes"/>
      <point x="332" y="735"/>
      <point x="302" y="765"/>
      <point x="302" y="799" type="curve" smooth="yes"/>
      <point x="302" y="835"/>
      <point x="331" y="865"/>
    </contour>
  </outline>
</glyph>
<glyph name="longs" format="1">
  <advance width="333"/>
  <unicode hex="017F"/>
  <outline>
    <contour>
      <point x="140" y="30" type="line"/>
      <point x="107" y="-73"/>
      <point x="80" y="-126"/>
      <point x="40" y="-162" type="curve" smooth="yes"/>
      <point x="9" y="-191"/>
      <point x="-28" y="-205"/>
      <point x="-70" y="-205" type="curve" smooth="yes"/>
      <point x="-130" y="-205"/>
      <point x="-169" y="-174"/>
      <point x="-169" y="-126" type="curve" smooth="yes"/>
      <point x="-169" y="-97"/>
      <point x="-145" y="-72"/>
      <point x="-117" y="-72" type="curve" smooth="yes"/>
      <point x="-92" y="-72"/>
      <point x="-68" y="-96"/>
      <point x="-68" y="-120" type="curve" smooth="yes"/>
      <point x="-68" y="-131"/>
      <point x="-72" y="-143"/>
      <point x="-80" y="-154" type="curve" smooth="yes"/>
      <point x="-83" y="-158"/>
      <point x="-84" y="-161"/>
      <point x="-84" y="-163" type="curve" smooth="yes"/>
      <point x="-84" y="-169"/>
      <point x="-76" y="-174"/>
      <point x="-66" y="-174" type="curve" smooth="yes"/>
      <point x="-26" y="-174"/>
      <point x="-7" y="-133"/>
      <point x="24" y="15" type="curve" smooth="yes"/>
      <point x="30" y="44"/>
      <point x="58" y="169"/>
      <point x="112" y="407" type="curve"/>
      <point x="39" y="407" type="line"/>
      <point x="48" y="449" type="line"/>
      <point x="121" y="449" type="line"/>
      <point x="150" y="550"/>
      <point x="169" y="591"/>
      <point x="211" y="637" type="curve" smooth="yes"/>
      <point x="247" y="676"/>
      <point x="295" y="698"/>
      <point x="347" y="698" type="curve" smooth="yes"/>
      <point x="407" y="698"/>
      <point x="446" y="667"/>
      <point x="446" y="618" type="curve" smooth="yes"/>
      <point x="446" y="587"/>
      <point x="425" y="565"/>
      <point x="395" y="565" type="curve" smooth="yes"/>
      <point x="368" y="565"/>
      <point x="346" y="587"/>
      <point x="346" y="614" type="curve" smooth="yes"/>
      <point x="346" y="624"/>
      <point x="349" y="633"/>
      <point x="357" y="645" type="curve" smooth="yes"/>
      <point x="361" y="651"/>
      <point x="362" y="654"/>
      <point x="362" y="656" type="curve" smooth="yes"/>
      <point x="362" y="664"/>
      <point x="355" y="669"/>
      <point x="345" y="669" type="curve" smooth="yes"/>
      <point x="310" y="669"/>
      <point x="279" y="619"/>
      <point x="254" y="520" type="curve"/>
    </contour>
  </outline>
</glyph>
<glyph name="florin" format="1">
  <advance width="500"/>
  <unicode hex="0192"/>
  <outline>
    <contour>
      <point x="443" y="440" type="line"/>
      <point x="434" y="396" type="line"/>
      <point x="318" y="396" type="line"/>
      <point x="291" y="242" type="line" smooth="yes"/>
      <point x="244" y="-27"/>
      <point x="157" y="-156"/>
      <point x="23" y="-156" type="curve" smooth="yes"/>
      <point x="-43" y="-156"/>
      <point x="-87" y="-121"/>
      <point x="-87" y="-69" type="curve" smooth="yes"/>
      <point x="-87" y="-34"/>
      <point x="-63" y="-9"/>
      <point x="-30" y="-9" type="curve" smooth="yes"/>
      <point x="0" y="-9"/>
      <point x="23" y="-31"/>
      <point x="23" y="-59" type="curve" smooth="yes"/>
      <point x="23" y="-70"/>
      <point x="17" y="-83"/>
      <point x="5" y="-97" type="curve" smooth="yes"/>
      <point x="-2" y="-105"/>
      <point x="-5" y="-110"/>
      <point x="-5" y="-114" type="curve" smooth="yes"/>
      <point x="-5" y="-123"/>
      <point x="3" y="-127"/>
      <point x="20" y="-127" type="curve" smooth="yes"/>
      <point x="37" y="-127"/>
      <point x="47" y="-123"/>
      <point x="57" y="-113" type="curve" smooth="yes"/>
      <point x="77" y="-94"/>
      <point x="100" y="-34"/>
      <point x="113" y="32" type="curve" smooth="yes"/>
      <point x="183" y="396" type="line"/>
      <point x="78" y="396" type="line"/>
      <point x="86" y="440" type="line"/>
      <point x="193" y="440" type="line"/>
      <point x="230" y="608"/>
      <point x="317" y="707"/>
      <point x="427" y="707" type="curve" smooth="yes"/>
      <point x="490" y="707"/>
      <point x="537" y="670"/>
      <point x="537" y="620" type="curve" smooth="yes"/>
      <point x="537" y="584"/>
      <point x="513" y="559"/>
      <point x="477" y="559" type="curve" smooth="yes"/>
      <point x="445" y="559"/>
      <point x="424" y="579"/>
      <point x="424" y="609" type="curve" smooth="yes"/>
      <point x="424" y="625"/>
      <point x="430" y="636"/>
      <point x="444" y="649" type="curve" smooth="yes"/>
      <point x="450" y="655"/>
      <point x="453" y="658"/>
      <point x="453" y="662" type="curve" smooth="yes"/>
      <point x="453" y="671"/>
      <point x="442" y="677"/>
      <point x="428" y="677" type="curve" smooth="yes"/>
      <point x="407" y="677"/>
      <point x="388" y="664"/>
      <point x="374" y="640" type="curve" smooth="yes"/>
      <point x="356" y="608"/>
      <point x="347" y="570"/>
      <point x="325" y="440" type="curve"/>
    </contour>
  </outline>
</glyph>
<glyph name="breve" format="1">
  <advance width="333"/>
  <unicode hex="02D8"/>
  <outline>
    <contour>
      <point x="348" y="678" type="curve"/>
      <point x="387" y="678" type="line"/>
      <point x="369" y="574"/>
      <point x="305" y="516"/>
      <point x="208" y="516" type="curve" smooth="yes"/>
      <point x="115" y="516"/>
      <point x="71" y="564"/>
      <point x="71" y="665" type="curve" smooth="yes"/>
      <point x="71" y="678" type="line"/>
      <point x="114" y="678" type="line"/>
      <point x="120" y="617"/>
      <point x="153" y="588"/>
      <point x="216" y="588" type="curve" smooth="yes"/>
      <point x="281" y="588"/>
      <point x="317" y="612"/>
    </contour>
  </outline>
</glyph>
<glyph name="ogonek" format="1">
  <advance width="333"/>
  <unicode hex="02DB"/>
  <outline>
    <contour>
      <point x="28" y="32" type="curve"/>
      <point x="61" y="44" type="line"/>
      <point x="60" y="37"/>
      <point x="59" y="34"/>
      <point x="56" y="24" type="curve" smooth="yes"/>
      <point x="48" y="-8"/>
      <point x="44" y="-27"/>
      <point x="44" y="-40" type="curve" smooth="yes"/>
      <point x="44" y="-81"/>
      <point x="66" y="-104"/>
      <point x="107" y="-104" type="curve" smooth="yes"/>
      <point x="122" y="-104"/>
      <point x="133" y="-101"/>
      <point x="153" y="-91" type="curve" smooth="yes"/>
      <point x="161" y="-87"/>
      <point x="162" y="-86"/>
      <point x="167" y="-84" type="curve"/>
      <point x="189" y="-98" type="line"/>
      <point x="164" y="-144"/>
      <point x="116" y="-173"/>
      <point x="66" y="-173" type="curve" smooth="yes"/>
      <point x="5" y="-173"/>
      <point x="-40" y="-139"/>
      <point x="-40" y="-92" type="curve" smooth="yes"/>
      <point x="-40" y="-63"/>
      <point x="-27" y="-36"/>
      <point x="14" y="14" type="curve" smooth="yes"/>
      <point x="22" y="24"/>
      <point x="24" y="26"/>
    </contour>
  </outline>
</glyph>
<glyph name="afii10023" format="1">
  <advance width="667"/>
  <unicode hex="0401"/>
  <outline>
    <contour>
      <point x="589" y="194" type="line"/>
      <point x="530" y="0" type="line"/>
      <point x="-24" y="0" type="line"/>
      <point x="-24" y="25" type="line"/>
      <point x="28" y="33"/>
      <point x="40" y="44"/>
      <point x="56" y="97" type="curve"/>
      <point x="179" y="546" type="line" smooth="yes"/>
      <point x="185" y="568"/>
      <point x="189" y="591"/>
      <point x="189" y="606" type="curve" smooth="yes"/>
      <point x="189" y="627"/>
      <point x="178" y="635"/>
      <point x="147" y="639" type="curve" smooth="yes"/>
      <point x="142" y="640"/>
      <point x="130" y="642"/>
      <point x="116" y="644" type="curve"/>
      <point x="116" y="669" type="line"/>
      <point x="656" y="669" type="line"/>
      <point x="613" y="479" type="line"/>
      <point x="586" y="484" type="line"/>
      <point x="586" y="546"/>
      <point x="579" y="571"/>
      <point x="556" y="595" type="curve" smooth="yes"/>
      <point x="529" y="622"/>
      <point x="475" y="637"/>
      <point x="402" y="637" type="curve" smooth="yes"/>
      <point x="361" y="637"/>
      <point x="349" y="628"/>
      <point x="339" y="593" type="curve" smooth="yes"/>
      <point x="278" y="370" type="line"/>
      <point x="410" y="369"/>
      <point x="436" y="382"/>
      <point x="483" y="476" type="curve"/>
      <point x="511" y="472" type="line"/>
      <point x="437" y="199" type="line"/>
      <point x="409" y="204" type="line"/>
      <point x="412" y="223"/>
      <point x="413" y="234"/>
      <point x="413" y="248" type="curve" smooth="yes"/>
      <point x="413" y="317"/>
      <point x="383" y="336"/>
      <point x="269" y="338" type="curve"/>
      <point x="213" y="129" type="line"/>
      <point x="211" y="123" type="line"/>
      <point x="210" y="115"/>
      <point x="208" y="109"/>
      <point x="206" y="104" type="curve" smooth="yes"/>
      <point x="201" y="84"/>
      <point x="198" y="73"/>
      <point x="198" y="66" type="curve" smooth="yes"/>
      <point x="198" y="42"/>
      <point x="216" y="32"/>
      <point x="259" y="32" type="curve" smooth="yes"/>
      <point x="345" y="32"/>
      <point x="413" y="51"/>
      <point x="469" y="90" type="curve" smooth="yes"/>
      <point x="508" y="117"/>
      <point x="529" y="142"/>
      <point x="564" y="199" type="curve"/>
    </contour>
    <contour>
      <point x="303" y="862" type="curve" smooth="yes"/>
      <point x="339" y="862"/>
      <point x="369" y="832"/>
      <point x="369" y="796" type="curve" smooth="yes"/>
      <point x="369" y="762"/>
      <point x="338" y="732"/>
      <point x="303" y="732" type="curve" smooth="yes"/>
      <point x="269" y="732"/>
      <point x="239" y="762"/>
      <point x="239" y="796" type="curve" smooth="yes"/>
      <point x="239" y="832"/>
      <point x="268" y="862"/>
    </contour>
    <contour>
      <point x="515" y="862" type="curve" smooth="yes"/>
      <point x="551" y="862"/>
      <point x="581" y="832"/>
      <point x="581" y="796" type="curve" smooth="yes"/>
      <point x="581" y="762"/>
      <point x="550" y="732"/>
      <point x="515" y="732" type="curve" smooth="yes"/>
      <point x="481" y="732"/>
      <point x="451" y="762"/>
      <point x="451" y="796" type="curve" smooth="yes"/>
      <point x="451" y="832"/>
      <point x="480" y="862"/>
    </contour>
  </outline>
</glyph>
<glyph name="afii10051" format="1">
  <advance width="728"/>
  <unicode hex="0402"/>
  <outline>
    <contour>
      <point x="359" y="312" type="curve" smooth="yes"/>
      <point x="309" y="128" type="line" smooth="yes"/>
      <point x="302" y="102"/>
      <point x="298" y="81"/>
      <point x="298" y="66" type="curve" smooth="yes"/>
      <point x="298" y="34"/>
      <point x="311" y="28"/>
      <point x="381" y="25" type="curve"/>
      <point x="381" y="0" type="line"/>
      <point x="50" y="0" type="line"/>
      <point x="50" y="25" type="line"/>
      <point x="64" y="25" type="line" smooth="yes"/>
      <point x="115" y="25"/>
      <point x="141" y="46"/>
      <point x="155" y="97" type="curve" smooth="yes"/>
      <point x="303" y="634" type="line"/>
      <point x="201" y="632"/>
      <point x="138" y="591"/>
      <point x="86" y="491" type="curve"/>
      <point x="61" y="498" type="line"/>
      <point x="99" y="669" type="line"/>
      <point x="650" y="669" type="line"/>
      <point x="614" y="477" type="line"/>
      <point x="587" y="479" type="line"/>
      <point x="582" y="590"/>
      <point x="543" y="633"/>
      <point x="449" y="634" type="curve"/>
      <point x="375" y="369" type="line"/>
      <point x="404" y="398"/>
      <point x="477" y="437"/>
      <point x="537" y="437" type="curve" smooth="yes"/>
      <point x="645" y="437"/>
      <point x="788" y="405"/>
      <point x="752" y="275" type="curve" smooth="yes"/>
      <point x="688" y="43" type="line" smooth="yes"/>
      <point x="648" y="-99"/>
      <point x="500" y="-148"/>
      <point x="382" y="-148" type="curve" smooth="yes"/>
      <point x="343" y="-148"/>
      <point x="316" y="-134"/>
      <point x="316" y="-109" type="curve" smooth="yes"/>
      <point x="316" y="-79"/>
      <point x="340" y="-52"/>
      <point x="374" y="-52" type="curve" smooth="yes"/>
      <point x="413" y="-52"/>
      <point x="398" y="-88"/>
      <point x="430" y="-88" type="curve" smooth="yes"/>
      <point x="465" y="-88"/>
      <point x="496" y="-63"/>
      <point x="525" y="41" type="curve" smooth="yes"/>
      <point x="591" y="277" type="line" smooth="yes"/>
      <point x="610" y="348"/>
      <point x="568" y="383"/>
      <point x="504" y="383" type="curve" smooth="yes"/>
      <point x="451" y="383"/>
      <point x="364" y="331"/>
    </contour>
  </outline>
</glyph>
<glyph name="afii10052" format="1">
  <advance width="667"/>
  <unicode hex="0403"/>
  <outline>
    <contour>
      <point x="327" y="756" type="line"/>
      <point x="278" y="756" type="line"/>
      <point x="400" y="887" type="line" smooth="yes"/>
      <point x="435" y="925"/>
      <point x="452" y="937"/>
      <point x="470" y="937" type="curve" smooth="yes"/>
      <point x="496" y="937"/>
      <point x="518" y="915"/>
      <point x="518" y="890" type="curve" smooth="yes"/>
      <point x="518" y="871"/>
      <point x="509" y="860"/>
      <point x="479" y="843" type="curve" smooth="yes"/>
    </contour>
    <contour>
      <point x="226" y="137" type="line" smooth="yes"/>
      <point x="225" y="135"/>
      <point x="224" y="129"/>
      <point x="222" y="122" type="curve" smooth="yes"/>
      <point x="214" y="97"/>
      <point x="211" y="81"/>
      <point x="211" y="69" type="curve" smooth="yes"/>
      <point x="211" y="38"/>
      <point x="226" y="29"/>
      <point x="282" y="25" type="curve"/>
      <point x="282" y="0" type="line"/>
      <point x="-13" y="0" type="line"/>
      <point x="-13" y="25" type="line"/>
      <point x="39" y="33"/>
      <point x="51" y="44"/>
      <point x="67" y="97" type="curve"/>
      <point x="190" y="546" type="line" smooth="yes"/>
      <point x="196" y="568"/>
      <point x="200" y="592"/>
      <point x="200" y="606" type="curve" smooth="yes"/>
      <point x="200" y="627"/>
      <point x="189" y="636"/>
      <point x="158" y="639" type="curve" smooth="yes"/>
      <point x="153" y="640"/>
      <point x="141" y="642"/>
      <point x="127" y="644" type="curve"/>
      <point x="127" y="669" type="line"/>
      <point x="660" y="669" type="line"/>
      <point x="617" y="479" type="line"/>
      <point x="590" y="484" type="line"/>
      <point x="590" y="540"/>
      <point x="584" y="567"/>
      <point x="564" y="590" type="curve" smooth="yes"/>
      <point x="537" y="621"/>
      <point x="486" y="637"/>
      <point x="413" y="637" type="curve" smooth="yes"/>
      <point x="373" y="637"/>
      <point x="360" y="628"/>
      <point x="350" y="593" type="curve" smooth="yes"/>
    </contour>
  </outline>
</glyph>
<glyph name="afii10053" format="1">
  <advance width="722"/>
  <unicode hex="0404"/>
  <outline>
    <contour>
      <point x="474" y="326" type="line"/>
      <point x="222" y="326" type="line"/>
      <point x="198" y="234"/>
      <point x="195" y="166"/>
      <point x="209" y="116" type="curve" smooth="yes"/>
      <point x="224" y="64"/>
      <point x="277" y="29"/>
      <point x="343" y="29" type="curve" smooth="yes"/>
      <point x="371" y="29"/>
      <point x="406" y="35"/>
      <point x="438" y="47" type="curve" smooth="yes"/>
      <point x="492" y="66"/>
      <point x="531" y="90"/>
      <point x="607" y="152" type="curve"/>
      <point x="630" y="127" type="line"/>
      <point x="571" y="77"/>
      <point x="544" y="57"/>
      <point x="506" y="35" type="curve" smooth="yes"/>
      <point x="441" y="-2"/>
      <point x="377" y="-19"/>
      <point x="306" y="-19" type="curve" smooth="yes"/>
      <point x="99" y="-19"/>
      <point x="-8" y="127"/>
      <point x="48" y="333" type="curve" smooth="yes"/>
      <point x="104" y="537"/>
      <point x="295" y="691"/>
      <point x="494" y="691" type="curve" smooth="yes"/>
      <point x="542" y="691"/>
      <point x="587" y="680"/>
      <point x="640" y="656" type="curve"/>
      <point x="659" y="646"/>
      <point x="673" y="642"/>
      <point x="682" y="642" type="curve" smooth="yes"/>
      <point x="701" y="642"/>
      <point x="715" y="653"/>
      <point x="738" y="688" type="curve"/>
      <point x="765" y="688" type="line"/>
      <point x="701" y="454" type="line"/>
      <point x="676" y="454" type="line"/>
      <point x="662" y="530"/>
      <point x="648" y="563"/>
      <point x="616" y="602" type="curve"/>
      <point x="583" y="640"/>
      <point x="545" y="658"/>
      <point x="498" y="658" type="curve" smooth="yes"/>
      <point x="384" y="658"/>
      <point x="293" y="559"/>
      <point x="236" y="373" type="curve"/>
      <point x="487" y="373" type="line"/>
    </contour>
  </outline>
</glyph>
<glyph name="afii10056" format="1">
  <advance width="389"/>
  <unicode hex="0407"/>
  <outline>
    <contour>
      <point x="272" y="25" type="curve"/>
      <point x="272" y="0" type="line"/>
      <point x="-24" y="0" type="line"/>
      <point x="-24" y="25" type="line"/>
      <point x="25" y="31"/>
      <point x="40" y="45"/>
      <point x="56" y="97" type="curve"/>
      <point x="179" y="546" type="line" smooth="yes"/>
      <point x="184" y="564"/>
      <point x="189" y="595"/>
      <point x="189" y="607" type="curve" smooth="yes"/>
      <point x="189" y="627"/>
      <point x="179" y="635"/>
      <point x="148" y="639" type="curve" smooth="yes"/>
      <point x="143" y="640"/>
      <point x="130" y="642"/>
      <point x="116" y="644" type="curve"/>
      <point x="116" y="669" type="line"/>
      <point x="414" y="669" type="line"/>
      <point x="414" y="644" type="line"/>
      <point x="363" y="638"/>
      <point x="348" y="625"/>
      <point x="332" y="572" type="curve"/>
      <point x="218" y="152" type="line" smooth="yes"/>
      <point x="205" y="103"/>
      <point x="200" y="80"/>
      <point x="200" y="65" type="curve" smooth="yes"/>
      <point x="200" y="37"/>
      <point x="215" y="28"/>
    </contour>
    <contour>
      <point x="175" y="862" type="curve" smooth="yes"/>
      <point x="211" y="862"/>
      <point x="241" y="832"/>
      <point x="241" y="796" type="curve" smooth="yes"/>
      <point x="241" y="762"/>
      <point x="210" y="732"/>
      <point x="175" y="732" type="curve" smooth="yes"/>
      <point x="141" y="732"/>
      <point x="111" y="762"/>
      <point x="111" y="796" type="curve" smooth="yes"/>
      <point x="111" y="832"/>
      <point x="140" y="862"/>
    </contour>
    <contour>
      <point x="387" y="862" type="curve" smooth="yes"/>
      <point x="423" y="862"/>
      <point x="453" y="832"/>
      <point x="453" y="796" type="curve" smooth="yes"/>
      <point x="453" y="762"/>
      <point x="422" y="732"/>
      <point x="387" y="732" type="curve" smooth="yes"/>
      <point x="353" y="732"/>
      <point x="323" y="762"/>
      <point x="323" y="796" type="curve" smooth="yes"/>
      <point x="323" y="832"/>
      <point x="352" y="862"/>
    </contour>
  </outline>
</glyph>
<glyph name="afii10058" format="1">
  <advance width="987"/>
  <unicode hex="0409"/>
  <outline>
    <contour>
      <point x="868" y="669" type="line"/>
      <point x="867" y="644" type="line"/>
      <point x="785" y="634"/>
      <point x="775" y="632"/>
      <point x="755" y="559" type="curve" smooth="yes"/>
      <point x="705" y="373" type="line"/>
      <point x="839" y="372"/>
      <point x="872" y="369"/>
      <point x="912" y="351" type="curve" smooth="yes"/>
      <point x="968" y="327"/>
      <point x="997" y="284"/>
      <point x="997" y="230" type="curve" smooth="yes"/>
      <point x="997" y="86"/>
      <point x="848" y="0"/>
      <point x="679" y="0" type="curve" smooth="yes"/>
      <point x="357" y="0" type="line"/>
      <point x="359" y="25" type="line"/>
      <point x="434" y="33"/>
      <point x="462" y="47"/>
      <point x="476" y="96" type="curve" smooth="yes"/>
      <point x="620" y="622" type="line"/>
      <point x="420" y="622" type="line"/>
      <point x="343" y="341" type="line" smooth="yes"/>
      <point x="329" y="292"/>
      <point x="241" y="-14"/>
      <point x="49" y="-14" type="curve" smooth="yes"/>
      <point x="9" y="-14"/>
      <point x="-42" y="0"/>
      <point x="-28" y="48" type="curve" smooth="yes"/>
      <point x="-17" y="89"/>
      <point x="10" y="118"/>
      <point x="53" y="118" type="curve" smooth="yes"/>
      <point x="103" y="118"/>
      <point x="84" y="66"/>
      <point x="117" y="66" type="curve" smooth="yes"/>
      <point x="175" y="66"/>
      <point x="252" y="292"/>
      <point x="266" y="341" type="curve" smooth="yes"/>
      <point x="329" y="573" type="line" smooth="yes"/>
      <point x="343" y="623"/>
      <point x="329" y="638"/>
      <point x="264" y="644" type="curve"/>
      <point x="263" y="669" type="line"/>
    </contour>
    <contour>
      <point x="624" y="78" type="line" smooth="yes"/>
      <point x="623" y="74"/>
      <point x="620" y="63"/>
      <point x="620" y="59" type="curve" smooth="yes"/>
      <point x="620" y="43"/>
      <point x="635" y="35"/>
      <point x="662" y="35" type="curve" smooth="yes"/>
      <point x="769" y="35"/>
      <point x="832" y="152"/>
      <point x="832" y="259" type="curve" smooth="yes"/>
      <point x="832" y="329"/>
      <point x="778" y="338"/>
      <point x="695" y="338" type="curve"/>
    </contour>
  </outline>
</glyph>
<glyph name="afii10059" format="1">
  <advance width="913"/>
  <unicode hex="040A"/>
  <outline>
    <contour>
      <point x="338" y="0" type="line"/>
      <point x="340" y="25" type="line"/>
      <point x="407" y="29"/>
      <point x="427" y="43"/>
      <point x="441" y="97" type="curve" smooth="yes"/>
      <point x="505" y="329" type="line"/>
      <point x="266" y="329" type="line"/>
      <point x="216" y="148" type="line" smooth="yes"/>
      <point x="215" y="143"/>
      <point x="213" y="138"/>
      <point x="212" y="132" type="curve" smooth="yes"/>
      <point x="203" y="100"/>
      <point x="199" y="82"/>
      <point x="199" y="68" type="curve" smooth="yes"/>
      <point x="199" y="36"/>
      <point x="209" y="30"/>
      <point x="272" y="25" type="curve"/>
      <point x="272" y="0" type="line"/>
      <point x="-24" y="0" type="line"/>
      <point x="-24" y="25" type="line"/>
      <point x="26" y="32"/>
      <point x="40" y="45"/>
      <point x="56" y="97" type="curve"/>
      <point x="178" y="546" type="line" smooth="yes"/>
      <point x="185" y="572"/>
      <point x="189" y="593"/>
      <point x="189" y="604" type="curve" smooth="yes"/>
      <point x="189" y="626"/>
      <point x="178" y="635"/>
      <point x="147" y="639" type="curve" smooth="yes"/>
      <point x="142" y="640"/>
      <point x="130" y="642"/>
      <point x="116" y="644" type="curve"/>
      <point x="116" y="669" type="line"/>
      <point x="433" y="669" type="line"/>
      <point x="433" y="644" type="line"/>
      <point x="368" y="642"/>
      <point x="348" y="627"/>
      <point x="332" y="572" type="curve"/>
      <point x="278" y="373" type="line"/>
      <point x="517" y="373" type="line"/>
      <point x="564" y="546" type="line" smooth="yes"/>
      <point x="569" y="564"/>
      <point x="574" y="595"/>
      <point x="574" y="607" type="curve" smooth="yes"/>
      <point x="574" y="627"/>
      <point x="564" y="635"/>
      <point x="533" y="639" type="curve" smooth="yes"/>
      <point x="528" y="640"/>
      <point x="515" y="642"/>
      <point x="501" y="644" type="curve"/>
      <point x="501" y="669" type="line"/>
      <point x="797" y="669" type="line"/>
      <point x="796" y="644" type="line"/>
      <point x="714" y="634"/>
      <point x="704" y="632"/>
      <point x="684" y="559" type="curve" smooth="yes"/>
      <point x="634" y="373" type="line"/>
      <point x="768" y="372"/>
      <point x="801" y="369"/>
      <point x="841" y="351" type="curve" smooth="yes"/>
      <point x="897" y="327"/>
      <point x="926" y="284"/>
      <point x="926" y="230" type="curve" smooth="yes"/>
      <point x="926" y="86"/>
      <point x="777" y="0"/>
      <point x="608" y="0" type="curve" smooth="yes"/>
    </contour>
    <contour>
      <point x="553" y="78" type="line" smooth="yes"/>
      <point x="552" y="74"/>
      <point x="549" y="63"/>
      <point x="549" y="59" type="curve" smooth="yes"/>
      <point x="549" y="43"/>
      <point x="564" y="35"/>
      <point x="591" y="35" type="curve" smooth="yes"/>
      <point x="698" y="35"/>
      <point x="761" y="152"/>
      <point x="761" y="259" type="curve" smooth="yes"/>
      <point x="761" y="329"/>
      <point x="707" y="338"/>
      <point x="624" y="338" type="curve"/>
    </contour>
  </outline>
</glyph>
<glyph name="afii10060" format="1">
  <advance width="788"/>
  <unicode hex="040B"/>
  <outline>
    <contour>
      <point x="381" y="388" type="line"/>
      <point x="412" y="405"/>
      <point x="471" y="430"/>
      <point x="535" y="430" type="curve" smooth="yes"/>
      <point x="643" y="430"/>
      <point x="789" y="408"/>
      <point x="769" y="334" type="curve" smooth="yes"/>
      <point x="704" y="96" type="line" smooth="yes"/>
      <point x="690" y="46"/>
      <point x="704" y="31"/>
      <point x="770" y="25" type="curve"/>
      <point x="769" y="0" type="line"/>
      <point x="432" y="0" type="line"/>
      <point x="433" y="25" type="line"/>
      <point x="504" y="30"/>
      <point x="528" y="46"/>
      <point x="542" y="96" type="curve" smooth="yes"/>
      <point x="607" y="336" type="line" smooth="yes"/>
      <point x="614" y="361"/>
      <point x="566" y="376"/>
      <point x="502" y="376" type="curve" smooth="yes"/>
      <point x="445" y="376"/>
      <point x="387" y="343"/>
      <point x="365" y="331" type="curve"/>
      <point x="309" y="128" type="line" smooth="yes"/>
      <point x="302" y="102"/>
      <point x="298" y="81"/>
      <point x="298" y="66" type="curve" smooth="yes"/>
      <point x="298" y="34"/>
      <point x="311" y="28"/>
      <point x="381" y="25" type="curve"/>
      <point x="381" y="0" type="line"/>
      <point x="50" y="0" type="line"/>
      <point x="50" y="25" type="line"/>
      <point x="64" y="25" type="line" smooth="yes"/>
      <point x="115" y="25"/>
      <point x="141" y="46"/>
      <point x="155" y="97" type="curve" smooth="yes"/>
      <point x="303" y="634" type="line"/>
      <point x="201" y="632"/>
      <point x="138" y="591"/>
      <point x="86" y="491" type="curve"/>
      <point x="61" y="498" type="line"/>
      <point x="99" y="669" type="line"/>
      <point x="650" y="669" type="line"/>
      <point x="614" y="477" type="line"/>
      <point x="587" y="479" type="line"/>
      <point x="582" y="590"/>
      <point x="543" y="633"/>
      <point x="449" y="634" type="curve"/>
    </contour>
  </outline>
</glyph>
<glyph name="afii10145" format="1">
  <advance width="869"/>
  <unicode hex="040F"/>
  <outline>
    <contour>
      <point x="255" y="0" type="curve"/>
      <point x="-24" y="0" type="line"/>
      <point x="-24" y="25" type="line"/>
      <point x="46" y="30"/>
      <point x="70" y="46"/>
      <point x="84" y="96" type="curve" smooth="yes"/>
      <point x="214" y="573" type="line" smooth="yes"/>
      <point x="228" y="622"/>
      <point x="221" y="635"/>
      <point x="152" y="644" type="curve"/>
      <point x="152" y="669" type="line"/>
      <point x="492" y="669" type="line"/>
      <point x="492" y="644" type="line"/>
      <point x="416" y="636"/>
      <point x="390" y="622"/>
      <point x="376" y="573" type="curve" smooth="yes"/>
      <point x="232" y="47" type="line"/>
      <point x="473" y="47" type="line"/>
      <point x="617" y="573" type="line" smooth="yes"/>
      <point x="631" y="622"/>
      <point x="623" y="636"/>
      <point x="553" y="644" type="curve"/>
      <point x="553" y="669" type="line"/>
      <point x="890" y="669" type="line"/>
      <point x="890" y="644" type="line"/>
      <point x="817" y="635"/>
      <point x="793" y="622"/>
      <point x="779" y="573" type="curve" smooth="yes"/>
      <point x="649" y="96" type="line" smooth="yes"/>
      <point x="635" y="46"/>
      <point x="649" y="31"/>
      <point x="714" y="25" type="curve"/>
      <point x="714" y="0" type="line"/>
      <point x="433" y="0" type="line"/>
      <point x="389" y="-68"/>
      <point x="337" y="-228"/>
      <point x="337" y="-228" type="curve"/>
      <point x="231" y="-228" type="line"/>
      <point x="231" y="-228"/>
      <point x="267" y="-68"/>
    </contour>
  </outline>
</glyph>
<glyph name="afii10018" format="1">
  <advance width="733"/>
  <unicode hex="0411"/>
  <outline>
    <contour>
      <point x="328" y="374" type="line"/>
      <point x="250" y="93" type="line" smooth="yes"/>
      <point x="237" y="49"/>
      <point x="250" y="32"/>
      <point x="294" y="32" type="curve" smooth="yes"/>
      <point x="375" y="32"/>
      <point x="430" y="82"/>
      <point x="456" y="179" type="curve" smooth="yes"/>
      <point x="486" y="289"/>
      <point x="461" y="374"/>
      <point x="358" y="374" type="curve" smooth="yes"/>
    </contour>
    <contour>
      <point x="336" y="404" type="line"/>
      <point x="550" y="403"/>
      <point x="592" y="366"/>
      <point x="619" y="336" type="curve"/>
      <point x="645" y="305"/>
      <point x="643" y="233"/>
      <point x="630" y="188" type="curve"/>
      <point x="600" y="75"/>
      <point x="467" y="0"/>
      <point x="298" y="0" type="curve" smooth="yes"/>
      <point x="-24" y="0" type="line"/>
      <point x="-24" y="25" type="line"/>
      <point x="51" y="33"/>
      <point x="76" y="45"/>
      <point x="90" y="96" type="curve" smooth="yes"/>
      <point x="220" y="573" type="line" smooth="yes"/>
      <point x="234" y="624"/>
      <point x="220" y="640"/>
      <point x="152" y="644" type="curve"/>
      <point x="152" y="669" type="line"/>
      <point x="726" y="669" type="line"/>
      <point x="671" y="468" type="line"/>
      <point x="647" y="468" type="line"/>
      <point x="650" y="531"/>
      <point x="646" y="558"/>
      <point x="631" y="583" type="curve" smooth="yes"/>
      <point x="610" y="618"/>
      <point x="555" y="635"/>
      <point x="463" y="635" type="curve" smooth="yes"/>
      <point x="412" y="635"/>
      <point x="395" y="625"/>
      <point x="385" y="588" type="curve" smooth="yes"/>
    </contour>
  </outline>
</glyph>
<glyph name="afii10019" format="1">
  <advance width="667"/>
  <unicode hex="0412"/>
  <outline>
    <contour>
      <point x="116" y="644" type="curve"/>
      <point x="116" y="669" type="line"/>
      <point x="388" y="669" type="line" smooth="yes"/>
      <point x="543" y="669"/>
      <point x="624" y="619"/>
      <point x="624" y="523" type="curve" smooth="yes"/>
      <point x="624" y="482"/>
      <point x="606" y="442"/>
      <point x="577" y="417" type="curve" smooth="yes"/>
      <point x="542" y="388"/>
      <point x="511" y="374"/>
      <point x="435" y="355" type="curve"/>
      <point x="536" y="322"/>
      <point x="572" y="284"/>
      <point x="572" y="206" type="curve" smooth="yes"/>
      <point x="572" y="78"/>
      <point x="460" y="0"/>
      <point x="277" y="0" type="curve" smooth="yes"/>
      <point x="-24" y="0" type="line"/>
      <point x="-24" y="25" type="line"/>
      <point x="24" y="31"/>
      <point x="40" y="46"/>
      <point x="56" y="97" type="curve"/>
      <point x="178" y="546" type="line" smooth="yes"/>
      <point x="185" y="571"/>
      <point x="189" y="593"/>
      <point x="189" y="603" type="curve" smooth="yes"/>
      <point x="189" y="615"/>
      <point x="182" y="628"/>
      <point x="173" y="633" type="curve" smooth="yes"/>
      <point x="161" y="640"/>
      <point x="152" y="642"/>
    </contour>
    <contour>
      <point x="269" y="338" type="curve"/>
      <point x="203" y="94" type="line" smooth="yes"/>
      <point x="200" y="81"/>
      <point x="198" y="72"/>
      <point x="198" y="65" type="curve" smooth="yes"/>
      <point x="198" y="43"/>
      <point x="217" y="32"/>
      <point x="255" y="32" type="curve" smooth="yes"/>
      <point x="299" y="32"/>
      <point x="333" y="45"/>
      <point x="360" y="72" type="curve" smooth="yes"/>
      <point x="395" y="108"/>
      <point x="419" y="171"/>
      <point x="419" y="229" type="curve" smooth="yes"/>
      <point x="419" y="266"/>
      <point x="407" y="295"/>
      <point x="385" y="313" type="curve" smooth="yes"/>
      <point x="365" y="330"/>
      <point x="335" y="336"/>
    </contour>
    <contour>
      <point x="338" y="593" type="curve" smooth="yes"/>
      <point x="277" y="368" type="line"/>
      <point x="351" y="371"/>
      <point x="385" y="378"/>
      <point x="416" y="398" type="curve" smooth="yes"/>
      <point x="456" y="424"/>
      <point x="477" y="472"/>
      <point x="477" y="536" type="curve" smooth="yes"/>
      <point x="477" y="603"/>
      <point x="448" y="637"/>
      <point x="390" y="637" type="curve" smooth="yes"/>
      <point x="358" y="637"/>
      <point x="348" y="629"/>
    </contour>
  </outline>
</glyph>
<glyph name="afii10020" format="1">
  <advance width="656"/>
  <unicode hex="0413"/>
  <outline>
    <contour>
      <point x="215" y="137" type="line" smooth="yes"/>
      <point x="214" y="135"/>
      <point x="213" y="129"/>
      <point x="211" y="122" type="curve" smooth="yes"/>
      <point x="203" y="97"/>
      <point x="200" y="81"/>
      <point x="200" y="69" type="curve" smooth="yes"/>
      <point x="200" y="38"/>
      <point x="215" y="29"/>
      <point x="271" y="25" type="curve"/>
      <point x="271" y="0" type="line"/>
      <point x="-24" y="0" type="line"/>
      <point x="-24" y="25" type="line"/>
      <point x="28" y="33"/>
      <point x="40" y="44"/>
      <point x="56" y="97" type="curve"/>
      <point x="179" y="546" type="line" smooth="yes"/>
      <point x="185" y="568"/>
      <point x="189" y="592"/>
      <point x="189" y="606" type="curve" smooth="yes"/>
      <point x="189" y="627"/>
      <point x="178" y="636"/>
      <point x="147" y="639" type="curve" smooth="yes"/>
      <point x="142" y="640"/>
      <point x="130" y="642"/>
      <point x="116" y="644" type="curve"/>
      <point x="116" y="669" type="line"/>
      <point x="649" y="669" type="line"/>
      <point x="606" y="479" type="line"/>
      <point x="579" y="484" type="line"/>
      <point x="579" y="540"/>
      <point x="573" y="567"/>
      <point x="553" y="590" type="curve" smooth="yes"/>
      <point x="526" y="621"/>
      <point x="475" y="637"/>
      <point x="402" y="637" type="curve" smooth="yes"/>
      <point x="362" y="637"/>
      <point x="349" y="628"/>
      <point x="339" y="593" type="curve" smooth="yes"/>
    </contour>
  </outline>
</glyph>
<glyph name="afii10021" format="1">
  <advance width="864"/>
  <unicode hex="0414"/>
  <outline>
    <contour>
      <point x="126" y="66" type="curve" smooth="yes"/>
      <point x="223" y="141"/>
      <point x="263" y="292"/>
      <point x="276" y="341" type="curve" smooth="yes"/>
      <point x="339" y="573" type="line" smooth="yes"/>
      <point x="353" y="623"/>
      <point x="339" y="638"/>
      <point x="273" y="644" type="curve"/>
      <point x="273" y="669" type="line"/>
      <point x="885" y="669" type="line"/>
      <point x="885" y="644" type="line"/>
      <point x="816" y="639"/>
      <point x="792" y="623"/>
      <point x="778" y="573" type="curve" smooth="yes"/>
      <point x="650" y="105" type="line" smooth="yes"/>
      <point x="636" y="55"/>
      <point x="652" y="39"/>
      <point x="719" y="34" type="curve"/>
      <point x="664" y="-167" type="line"/>
      <point x="640" y="-167" type="line"/>
      <point x="643" y="-104"/>
      <point x="639" y="-77"/>
      <point x="624" y="-52" type="curve" smooth="yes"/>
      <point x="603" y="-17"/>
      <point x="548" y="0"/>
      <point x="456" y="0" type="curve" smooth="yes"/>
      <point x="224" y="0" type="line" smooth="yes"/>
      <point x="132" y="0"/>
      <point x="69" y="-17"/>
      <point x="28" y="-52" type="curve" smooth="yes"/>
      <point x="-1" y="-77"/>
      <point x="-19" y="-104"/>
      <point x="-50" y="-167" type="curve"/>
      <point x="-74" y="-167" type="line"/>
      <point x="-19" y="34" type="line"/>
      <point x="50" y="39"/>
      <point x="77" y="28"/>
    </contour>
    <contour>
      <point x="231" y="47" type="curve"/>
      <point x="382" y="47" type="line"/>
      <point x="451" y="46"/>
      <point x="478" y="69"/>
      <point x="492" y="118" type="curve" smooth="yes"/>
      <point x="629" y="622" type="line"/>
      <point x="429" y="622" type="line"/>
      <point x="353" y="341" type="line" smooth="yes"/>
      <point x="345" y="311"/>
      <point x="308" y="185"/>
      <point x="238" y="92" type="curve" smooth="yes"/>
      <point x="218" y="66"/>
      <point x="204" y="48"/>
    </contour>
  </outline>
</glyph>
<glyph name="afii10025" format="1">
  <advance width="657"/>
  <unicode hex="0417"/>
  <outline>
    <contour>
      <point x="211" y="26" type="curve" smooth="yes"/>
      <point x="284" y="26"/>
      <point x="401" y="119"/>
      <point x="401" y="184" type="curve" smooth="yes"/>
      <point x="401" y="238"/>
      <point x="428" y="320"/>
      <point x="267" y="320" type="curve" smooth="yes"/>
      <point x="198" y="320" type="line"/>
      <point x="211" y="365" type="line"/>
      <point x="280" y="365" type="line" smooth="yes"/>
      <point x="393" y="365"/>
      <point x="495" y="392"/>
      <point x="496" y="538" type="curve" smooth="yes"/>
      <point x="496" y="625"/>
      <point x="456" y="660"/>
      <point x="388" y="660" type="curve" smooth="yes"/>
      <point x="344" y="660"/>
      <point x="296" y="641"/>
      <point x="250" y="604" type="curve" smooth="yes"/>
      <point x="207" y="569"/>
      <point x="183" y="540"/>
      <point x="145" y="475" type="curve"/>
      <point x="117" y="475" type="line"/>
      <point x="176" y="692" type="line"/>
      <point x="206" y="692" type="line"/>
      <point x="206" y="666"/>
      <point x="212" y="658"/>
      <point x="229" y="658" type="curve" smooth="yes"/>
      <point x="238" y="658"/>
      <point x="250" y="661"/>
      <point x="274" y="669" type="curve" smooth="yes"/>
      <point x="325" y="685"/>
      <point x="359" y="691"/>
      <point x="397" y="691" type="curve" smooth="yes"/>
      <point x="533" y="691"/>
      <point x="614" y="658"/>
      <point x="614" y="527" type="curve" smooth="yes"/>
      <point x="614" y="399"/>
      <point x="517" y="366"/>
      <point x="484" y="357" type="curve"/>
      <point x="525" y="344"/>
      <point x="573" y="314"/>
      <point x="573" y="201" type="curve" smooth="yes"/>
      <point x="573" y="22"/>
      <point x="360" y="-19"/>
      <point x="203" y="-19" type="curve" smooth="yes"/>
      <point x="132" y="-19"/>
      <point x="73" y="-9"/>
      <point x="33" y="35" type="curve" smooth="yes"/>
      <point x="6" y="64"/>
      <point x="8" y="68"/>
      <point x="-18" y="112" type="curve"/>
      <point x="18" y="137" type="line"/>
      <point x="60" y="78"/>
      <point x="88" y="59"/>
      <point x="132" y="40" type="curve" smooth="yes"/>
      <point x="158" y="28"/>
      <point x="183" y="26"/>
    </contour>
  </outline>
</glyph>
<glyph name="afii10027" format="1">
  <advance width="870"/>
  <unicode hex="0419"/>
  <outline>
    <contour>
      <point x="589" y="456" type="line"/>
      <point x="272" y="176" type="line"/>
      <point x="250" y="96" type="line" smooth="yes"/>
      <point x="236" y="47"/>
      <point x="243" y="33"/>
      <point x="313" y="25" type="curve"/>
      <point x="314" y="0" type="line"/>
      <point x="-23" y="0" type="line"/>
      <point x="-24" y="25" type="line"/>
      <point x="49" y="34"/>
      <point x="74" y="47"/>
      <point x="88" y="96" type="curve" smooth="yes"/>
      <point x="218" y="573" type="line" smooth="yes"/>
      <point x="232" y="623"/>
      <point x="218" y="638"/>
      <point x="153" y="644" type="curve"/>
      <point x="153" y="669" type="line"/>
      <point x="490" y="669" type="line"/>
      <point x="490" y="644" type="line"/>
      <point x="418" y="639"/>
      <point x="396" y="630"/>
      <point x="382" y="580" type="curve" smooth="yes"/>
      <point x="290" y="243" type="line"/>
      <point x="608" y="523" type="line"/>
      <point x="621" y="573" type="line" smooth="yes"/>
      <point x="635" y="623"/>
      <point x="619" y="639"/>
      <point x="551" y="644" type="curve"/>
      <point x="551" y="669" type="line"/>
      <point x="891" y="669" type="line"/>
      <point x="891" y="644" type="line"/>
      <point x="821" y="639"/>
      <point x="797" y="623"/>
      <point x="783" y="573" type="curve" smooth="yes"/>
      <point x="653" y="96" type="line" smooth="yes"/>
      <point x="639" y="47"/>
      <point x="645" y="34"/>
      <point x="714" y="25" type="curve"/>
      <point x="715" y="0" type="line"/>
      <point x="375" y="0" type="line"/>
      <point x="374" y="25" type="line"/>
      <point x="450" y="33"/>
      <point x="477" y="47"/>
      <point x="491" y="96" type="curve" smooth="yes"/>
    </contour>
    <contour>
      <point x="676" y="888" type="curve"/>
      <point x="715" y="888" type="line"/>
      <point x="697" y="784"/>
      <point x="633" y="726"/>
      <point x="536" y="726" type="curve" smooth="yes"/>
      <point x="443" y="726"/>
      <point x="399" y="774"/>
      <point x="399" y="875" type="curve" smooth="yes"/>
      <point x="399" y="888" type="line"/>
      <point x="442" y="888" type="line"/>
      <point x="448" y="827"/>
      <point x="481" y="798"/>
      <point x="544" y="798" type="curve" smooth="yes"/>
      <point x="609" y="798"/>
      <point x="645" y="822"/>
    </contour>
  </outline>
</glyph>
<glyph name="afii10028" format="1">
  <advance width="775"/>
  <unicode hex="041A"/>
  <outline>
    <contour>
      <point x="678" y="25" type="curve"/>
      <point x="678" y="0" type="line"/>
      <point x="480" y="0" type="line"/>
      <point x="390" y="254" type="line"/>
      <point x="372" y="292"/>
      <point x="367" y="318"/>
      <point x="339" y="318" type="curve" smooth="yes"/>
      <point x="312" y="318" type="line"/>
      <point x="252" y="96" type="line" smooth="yes"/>
      <point x="238" y="47"/>
      <point x="244" y="34"/>
      <point x="313" y="25" type="curve"/>
      <point x="313" y="0" type="line"/>
      <point x="-24" y="0" type="line"/>
      <point x="-24" y="25" type="line"/>
      <point x="50" y="33"/>
      <point x="76" y="45"/>
      <point x="90" y="96" type="curve" smooth="yes"/>
      <point x="220" y="573" type="line" smooth="yes"/>
      <point x="234" y="625"/>
      <point x="220" y="640"/>
      <point x="152" y="644" type="curve"/>
      <point x="152" y="669" type="line"/>
      <point x="490" y="669" type="line"/>
      <point x="490" y="644" type="line"/>
      <point x="415" y="639"/>
      <point x="396" y="623"/>
      <point x="376" y="552" type="curve" smooth="yes"/>
      <point x="327" y="371" type="line"/>
      <point x="364" y="372" type="line" smooth="yes"/>
      <point x="408" y="373"/>
      <point x="513" y="460"/>
      <point x="560" y="578" type="curve" smooth="yes"/>
      <point x="580" y="626"/>
      <point x="648" y="686"/>
      <point x="718" y="685" type="curve" smooth="yes"/>
      <point x="769" y="684"/>
      <point x="806" y="664"/>
      <point x="793" y="616" type="curve" smooth="yes"/>
      <point x="783" y="580"/>
      <point x="769" y="557"/>
      <point x="720" y="556" type="curve" smooth="yes"/>
      <point x="644" y="554"/>
      <point x="674" y="583"/>
      <point x="630" y="583" type="curve" smooth="yes"/>
      <point x="598" y="583"/>
      <point x="561" y="418"/>
      <point x="451" y="352" type="curve"/>
      <point x="482" y="349"/>
      <point x="532" y="328"/>
      <point x="550" y="286" type="curve"/>
      <point x="642" y="46" type="line"/>
      <point x="651" y="31"/>
      <point x="653" y="26"/>
    </contour>
  </outline>
</glyph>
<glyph name="afii10029" format="1">
  <advance width="855"/>
  <unicode hex="041B"/>
  <outline>
    <contour>
      <point x="620" y="622" type="line"/>
      <point x="420" y="622" type="line"/>
      <point x="343" y="341" type="line" smooth="yes"/>
      <point x="329" y="292"/>
      <point x="241" y="-14"/>
      <point x="49" y="-14" type="curve" smooth="yes"/>
      <point x="9" y="-14"/>
      <point x="-42" y="0"/>
      <point x="-28" y="48" type="curve" smooth="yes"/>
      <point x="-17" y="89"/>
      <point x="10" y="118"/>
      <point x="53" y="118" type="curve" smooth="yes"/>
      <point x="103" y="118"/>
      <point x="84" y="66"/>
      <point x="117" y="66" type="curve" smooth="yes"/>
      <point x="175" y="66"/>
      <point x="252" y="292"/>
      <point x="266" y="341" type="curve" smooth="yes"/>
      <point x="329" y="573" type="line" smooth="yes"/>
      <point x="343" y="623"/>
      <point x="329" y="638"/>
      <point x="264" y="644" type="curve"/>
      <point x="263" y="669" type="line"/>
      <point x="875" y="669" type="line"/>
      <point x="876" y="644" type="line"/>
      <point x="806" y="639"/>
      <point x="782" y="623"/>
      <point x="768" y="573" type="curve" smooth="yes"/>
      <point x="638" y="96" type="line" smooth="yes"/>
      <point x="624" y="47"/>
      <point x="630" y="34"/>
      <point x="699" y="25" type="curve"/>
      <point x="699" y="0" type="line"/>
      <point x="359" y="0" type="line"/>
      <point x="359" y="25" type="line"/>
      <point x="434" y="33"/>
      <point x="462" y="47"/>
      <point x="476" y="96" type="curve" smooth="yes"/>
    </contour>
  </outline>
</glyph>
<glyph name="afii10033" format="1">
  <advance width="869"/>
  <unicode hex="041F"/>
  <outline>
    <contour>
      <point x="634" y="622" type="line"/>
      <point x="393" y="622" type="line"/>
      <point x="249" y="96" type="line" smooth="yes"/>
      <point x="235" y="47"/>
      <point x="243" y="33"/>
      <point x="313" y="25" type="curve"/>
      <point x="313" y="0" type="line"/>
      <point x="-24" y="0" type="line"/>
      <point x="-24" y="25" type="line"/>
      <point x="49" y="34"/>
      <point x="73" y="47"/>
      <point x="87" y="96" type="curve" smooth="yes"/>
      <point x="217" y="573" type="line" smooth="yes"/>
      <point x="231" y="623"/>
      <point x="217" y="638"/>
      <point x="152" y="644" type="curve"/>
      <point x="152" y="669" type="line"/>
      <point x="890" y="669" type="line"/>
      <point x="890" y="644" type="line"/>
      <point x="820" y="639"/>
      <point x="796" y="623"/>
      <point x="782" y="573" type="curve" smooth="yes"/>
      <point x="652" y="96" type="line" smooth="yes"/>
      <point x="638" y="47"/>
      <point x="645" y="34"/>
      <point x="714" y="25" type="curve"/>
      <point x="714" y="0" type="line"/>
      <point x="374" y="0" type="line"/>
      <point x="374" y="25" type="line"/>
      <point x="450" y="33"/>
      <point x="476" y="47"/>
      <point x="490" y="96" type="curve" smooth="yes"/>
    </contour>
  </outline>
</glyph>
<glyph name="afii10034" format="1">
  <advance width="611"/>
  <unicode hex="0420"/>
  <outline>
    <contour>
      <point x="116" y="644" type="curve"/>
      <point x="116" y="669" type="line"/>
      <point x="403" y="669" type="line" smooth="yes"/>
      <point x="542" y="669"/>
      <point x="616" y="615"/>
      <point x="616" y="514" type="curve" smooth="yes"/>
      <point x="616" y="394"/>
      <point x="509" y="317"/>
      <point x="343" y="317" type="curve" smooth="yes"/>
      <point x="317" y="317"/>
      <point x="298" y="318"/>
      <point x="262" y="322" type="curve"/>
      <point x="208" y="123" type="line" smooth="yes"/>
      <point x="204" y="107"/>
      <point x="198" y="74"/>
      <point x="198" y="64" type="curve" smooth="yes"/>
      <point x="198" y="37"/>
      <point x="214" y="28"/>
      <point x="270" y="25" type="curve"/>
      <point x="270" y="0" type="line"/>
      <point x="-24" y="0" type="line"/>
      <point x="-24" y="25" type="line"/>
      <point x="28" y="33"/>
      <point x="40" y="44"/>
      <point x="56" y="97" type="curve"/>
      <point x="179" y="546" type="line" smooth="yes"/>
      <point x="185" y="568"/>
      <point x="189" y="592"/>
      <point x="189" y="606" type="curve" smooth="yes"/>
      <point x="189" y="627"/>
      <point x="178" y="636"/>
      <point x="147" y="639" type="curve" smooth="yes"/>
      <point x="142" y="640"/>
      <point x="130" y="642"/>
    </contour>
    <contour>
      <point x="336" y="593" type="curve" smooth="yes"/>
      <point x="272" y="354" type="line"/>
      <point x="289" y="353"/>
      <point x="300" y="352"/>
      <point x="314" y="352" type="curve" smooth="yes"/>
      <point x="384" y="352"/>
      <point x="421" y="375"/>
      <point x="447" y="434" type="curve" smooth="yes"/>
      <point x="461" y="465"/>
      <point x="470" y="511"/>
      <point x="470" y="546" type="curve" smooth="yes"/>
      <point x="470" y="604"/>
      <point x="439" y="637"/>
      <point x="386" y="637" type="curve" smooth="yes"/>
      <point x="367" y="637"/>
      <point x="356" y="633"/>
      <point x="347" y="622" type="curve" smooth="yes"/>
      <point x="343" y="617"/>
      <point x="343" y="617"/>
    </contour>
  </outline>
</glyph>
<glyph name="afii10040" format="1">
  <advance width="869"/>
  <unicode hex="0426"/>
  <outline>
    <contour>
      <point x="461" y="0" type="curve" smooth="yes"/>
      <point x="-24" y="0" type="line"/>
      <point x="-24" y="25" type="line"/>
      <point x="45" y="31"/>
      <point x="74" y="46"/>
      <point x="88" y="96" type="curve" smooth="yes"/>
      <point x="218" y="573" type="line" smooth="yes"/>
      <point x="231" y="622"/>
      <point x="220" y="635"/>
      <point x="152" y="644" type="curve"/>
      <point x="152" y="669" type="line"/>
      <point x="489" y="669" type="line"/>
      <point x="489" y="644" type="line"/>
      <point x="414" y="636"/>
      <point x="393" y="622"/>
      <point x="380" y="573" type="curve" smooth="yes"/>
      <point x="236" y="47" type="line"/>
      <point x="477" y="47" type="line"/>
      <point x="621" y="573" type="line" smooth="yes"/>
      <point x="634" y="622"/>
      <point x="621" y="636"/>
      <point x="550" y="644" type="curve"/>
      <point x="550" y="669" type="line"/>
      <point x="890" y="669" type="line"/>
      <point x="890" y="644" type="line"/>
      <point x="816" y="635"/>
      <point x="796" y="622"/>
      <point x="783" y="573" type="curve" smooth="yes"/>
      <point x="655" y="105" type="line" smooth="yes"/>
      <point x="641" y="55"/>
      <point x="657" y="39"/>
      <point x="724" y="34" type="curve"/>
      <point x="669" y="-167" type="line"/>
      <point x="645" y="-167" type="line"/>
      <point x="648" y="-104"/>
      <point x="644" y="-77"/>
      <point x="629" y="-52" type="curve" smooth="yes"/>
      <point x="608" y="-17"/>
      <point x="553" y="0"/>
    </contour>
  </outline>
</glyph>
<glyph name="afii10042" format="1">
  <advance width="1208"/>
  <unicode hex="0428"/>
  <outline>
    <contour>
      <point x="607" y="47" type="line"/>
      <point x="815" y="47" type="line"/>
      <point x="959" y="573" type="line" smooth="yes"/>
      <point x="972" y="622"/>
      <point x="959" y="636"/>
      <point x="888" y="644" type="curve"/>
      <point x="889" y="669" type="line"/>
      <point x="1229" y="669" type="line"/>
      <point x="1228" y="644" type="line"/>
      <point x="1154" y="635"/>
      <point x="1134" y="622"/>
      <point x="1121" y="573" type="curve" smooth="yes"/>
      <point x="991" y="96" type="line" smooth="yes"/>
      <point x="977" y="46"/>
      <point x="987" y="30"/>
      <point x="1053" y="25" type="curve"/>
      <point x="1053" y="0" type="line"/>
      <point x="-24" y="0" type="line"/>
      <point x="-24" y="25" type="line"/>
      <point x="45" y="31"/>
      <point x="73" y="46"/>
      <point x="87" y="96" type="curve" smooth="yes"/>
      <point x="217" y="573" type="line" smooth="yes"/>
      <point x="230" y="622"/>
      <point x="219" y="635"/>
      <point x="151" y="644" type="curve"/>
      <point x="152" y="669" type="line"/>
      <point x="489" y="669" type="line"/>
      <point x="488" y="644" type="line"/>
      <point x="413" y="636"/>
      <point x="392" y="622"/>
      <point x="379" y="573" type="curve" smooth="yes"/>
      <point x="235" y="47" type="line"/>
      <point x="445" y="47" type="line"/>
      <point x="589" y="573" type="line" smooth="yes"/>
      <point x="602" y="622"/>
      <point x="589" y="636"/>
      <point x="518" y="644" type="curve"/>
      <point x="519" y="669" type="line"/>
      <point x="859" y="669" type="line"/>
      <point x="858" y="644" type="line"/>
      <point x="784" y="635"/>
      <point x="764" y="622"/>
      <point x="751" y="573" type="curve" smooth="yes"/>
    </contour>
  </outline>
</glyph>
<glyph name="afii10043" format="1">
  <advance width="1209"/>
  <unicode hex="0429"/>
  <outline>
    <contour>
      <point x="800" y="0" type="curve" smooth="yes"/>
      <point x="-24" y="0" type="line"/>
      <point x="-23" y="25" type="line"/>
      <point x="46" y="31"/>
      <point x="74" y="46"/>
      <point x="88" y="96" type="curve" smooth="yes"/>
      <point x="218" y="573" type="line" smooth="yes"/>
      <point x="231" y="622"/>
      <point x="220" y="635"/>
      <point x="152" y="644" type="curve"/>
      <point x="153" y="669" type="line"/>
      <point x="490" y="669" type="line"/>
      <point x="489" y="644" type="line"/>
      <point x="414" y="636"/>
      <point x="393" y="622"/>
      <point x="380" y="573" type="curve" smooth="yes"/>
      <point x="236" y="47" type="line"/>
      <point x="446" y="47" type="line"/>
      <point x="590" y="573" type="line" smooth="yes"/>
      <point x="603" y="622"/>
      <point x="590" y="636"/>
      <point x="519" y="644" type="curve"/>
      <point x="520" y="669" type="line"/>
      <point x="860" y="669" type="line"/>
      <point x="859" y="644" type="line"/>
      <point x="785" y="635"/>
      <point x="765" y="622"/>
      <point x="752" y="573" type="curve" smooth="yes"/>
      <point x="608" y="47" type="line"/>
      <point x="816" y="47" type="line"/>
      <point x="960" y="573" type="line" smooth="yes"/>
      <point x="973" y="622"/>
      <point x="960" y="636"/>
      <point x="889" y="644" type="curve"/>
      <point x="890" y="669" type="line"/>
      <point x="1230" y="669" type="line"/>
      <point x="1229" y="644" type="line"/>
      <point x="1155" y="635"/>
      <point x="1135" y="622"/>
      <point x="1122" y="573" type="curve" smooth="yes"/>
      <point x="994" y="105" type="line" smooth="yes"/>
      <point x="980" y="55"/>
      <point x="996" y="39"/>
      <point x="1063" y="34" type="curve"/>
      <point x="1008" y="-167" type="line"/>
      <point x="984" y="-167" type="line"/>
      <point x="987" y="-104"/>
      <point x="983" y="-77"/>
      <point x="968" y="-52" type="curve" smooth="yes"/>
      <point x="947" y="-17"/>
      <point x="892" y="0"/>
    </contour>
  </outline>
</glyph>
<glyph name="afii10044" format="1">
  <advance width="796"/>
  <unicode hex="042A"/>
  <outline>
    <contour>
      <point x="108" y="669" type="line"/>
      <point x="570" y="669" type="line"/>
      <point x="570" y="644" type="line"/>
      <point x="488" y="634"/>
      <point x="477" y="625"/>
      <point x="457" y="552" type="curve" smooth="yes"/>
      <point x="408" y="373" type="line"/>
      <point x="542" y="372"/>
      <point x="575" y="369"/>
      <point x="615" y="351" type="curve" smooth="yes"/>
      <point x="687" y="320"/>
      <point x="714" y="259"/>
      <point x="693" y="182" type="curve" smooth="yes"/>
      <point x="662" y="66"/>
      <point x="549" y="0"/>
      <point x="382" y="0" type="curve" smooth="yes"/>
      <point x="60" y="0" type="line"/>
      <point x="59" y="25" type="line"/>
      <point x="131" y="31"/>
      <point x="156" y="47"/>
      <point x="176" y="117" type="curve" smooth="yes"/>
      <point x="318" y="637" type="line"/>
      <point x="193" y="633"/>
      <point x="128" y="587"/>
      <point x="79" y="468" type="curve"/>
      <point x="50" y="468" type="line"/>
    </contour>
    <contour>
      <point x="325" y="70" type="line" smooth="yes"/>
      <point x="318" y="47"/>
      <point x="332" y="35"/>
      <point x="365" y="35" type="curve" smooth="yes"/>
      <point x="448" y="35"/>
      <point x="493" y="79"/>
      <point x="523" y="187" type="curve" smooth="yes"/>
      <point x="540" y="250"/>
      <point x="538" y="288"/>
      <point x="519" y="311" type="curve"/>
      <point x="500" y="331"/>
      <point x="469" y="338"/>
      <point x="398" y="338" type="curve"/>
    </contour>
  </outline>
</glyph>
<glyph name="afii10045" format="1">
  <advance width="1060"/>
  <unicode hex="042B"/>
  <outline>
    <contour>
      <point x="679" y="96" type="curve" smooth="yes"/>
      <point x="805" y="574" type="line" smooth="yes"/>
      <point x="818" y="625"/>
      <point x="802" y="640"/>
      <point x="731" y="645" type="curve"/>
      <point x="731" y="670" type="line"/>
      <point x="1081" y="670" type="line"/>
      <point x="1081" y="645" type="line"/>
      <point x="1006" y="642"/>
      <point x="980" y="626"/>
      <point x="967" y="574" type="curve" smooth="yes"/>
      <point x="841" y="96" type="line" smooth="yes"/>
      <point x="827" y="44"/>
      <point x="835" y="30"/>
      <point x="909" y="25" type="curve"/>
      <point x="910" y="0" type="line"/>
      <point x="560" y="0" type="line"/>
      <point x="559" y="25" type="line"/>
      <point x="636" y="32"/>
      <point x="666" y="46"/>
    </contour>
    <contour>
      <point x="324" y="373" type="line"/>
      <point x="458" y="372"/>
      <point x="491" y="369"/>
      <point x="531" y="351" type="curve" smooth="yes"/>
      <point x="603" y="320"/>
      <point x="630" y="259"/>
      <point x="609" y="182" type="curve" smooth="yes"/>
      <point x="578" y="66"/>
      <point x="465" y="0"/>
      <point x="298" y="0" type="curve" smooth="yes"/>
      <point x="-24" y="0" type="line"/>
      <point x="-24" y="25" type="line"/>
      <point x="48" y="31"/>
      <point x="74" y="47"/>
      <point x="92" y="117" type="curve" smooth="yes"/>
      <point x="206" y="553" type="line" smooth="yes"/>
      <point x="222" y="615"/>
      <point x="215" y="635"/>
      <point x="170" y="641" type="curve" smooth="yes"/>
      <point x="167" y="641"/>
      <point x="158" y="643"/>
      <point x="147" y="645" type="curve"/>
      <point x="147" y="670" type="line"/>
      <point x="481" y="670" type="line"/>
      <point x="481" y="645" type="line"/>
      <point x="399" y="635"/>
      <point x="386" y="626"/>
      <point x="368" y="553" type="curve" smooth="yes"/>
    </contour>
    <contour>
      <point x="241" y="70" type="line" smooth="yes"/>
      <point x="234" y="47"/>
      <point x="248" y="35"/>
      <point x="281" y="35" type="curve" smooth="yes"/>
      <point x="364" y="35"/>
      <point x="409" y="79"/>
      <point x="439" y="187" type="curve" smooth="yes"/>
      <point x="456" y="250"/>
      <point x="454" y="288"/>
      <point x="435" y="311" type="curve"/>
      <point x="416" y="331"/>
      <point x="385" y="338"/>
      <point x="314" y="338" type="curve"/>
    </contour>
  </outline>
</glyph>
<glyph name="afii10046" format="1">
  <advance width="712"/>
  <unicode hex="042C"/>
  <outline>
    <contour>
      <point x="324" y="373" type="line"/>
      <point x="458" y="372"/>
      <point x="491" y="369"/>
      <point x="531" y="351" type="curve" smooth="yes"/>
      <point x="587" y="327"/>
      <point x="616" y="284"/>
      <point x="616" y="230" type="curve" smooth="yes"/>
      <point x="616" y="86"/>
      <point x="467" y="0"/>
      <point x="298" y="0" type="curve" smooth="yes"/>
      <point x="-24" y="0" type="line"/>
      <point x="-24" y="25" type="line"/>
      <point x="48" y="31"/>
      <point x="72" y="47"/>
      <point x="92" y="117" type="curve" smooth="yes"/>
      <point x="211" y="552" type="line" smooth="yes"/>
      <point x="228" y="614"/>
      <point x="220" y="634"/>
      <point x="175" y="640" type="curve" smooth="yes"/>
      <point x="172" y="640"/>
      <point x="162" y="642"/>
      <point x="152" y="644" type="curve"/>
      <point x="153" y="669" type="line"/>
      <point x="487" y="669" type="line"/>
      <point x="486" y="644" type="line"/>
      <point x="404" y="634"/>
      <point x="394" y="632"/>
      <point x="374" y="559" type="curve" smooth="yes"/>
    </contour>
    <contour>
      <point x="243" y="78" type="line" smooth="yes"/>
      <point x="242" y="74"/>
      <point x="239" y="63"/>
      <point x="239" y="59" type="curve" smooth="yes"/>
      <point x="239" y="43"/>
      <point x="254" y="35"/>
      <point x="281" y="35" type="curve" smooth="yes"/>
      <point x="388" y="35"/>
      <point x="451" y="152"/>
      <point x="451" y="259" type="curve" smooth="yes"/>
      <point x="451" y="329"/>
      <point x="397" y="338"/>
      <point x="314" y="338" type="curve"/>
    </contour>
  </outline>
</glyph>
<glyph name="afii10047" format="1">
  <advance width="732"/>
  <unicode hex="042D"/>
  <outline>
    <contour>
      <point x="256" y="326" type="line"/>
      <point x="269" y="373" type="line"/>
      <point x="520" y="373" type="line"/>
      <point x="565" y="559"/>
      <point x="528" y="658"/>
      <point x="414" y="658" type="curve" smooth="yes"/>
      <point x="367" y="658"/>
      <point x="319" y="640"/>
      <point x="266" y="602" type="curve" smooth="yes"/>
      <point x="212" y="563"/>
      <point x="180" y="530"/>
      <point x="124" y="454" type="curve"/>
      <point x="99" y="454" type="line"/>
      <point x="163" y="688" type="line"/>
      <point x="190" y="688" type="line"/>
      <point x="195" y="653"/>
      <point x="203" y="642"/>
      <point x="222" y="642" type="curve" smooth="yes"/>
      <point x="231" y="642"/>
      <point x="247" y="646"/>
      <point x="272" y="656" type="curve" smooth="yes"/>
      <point x="337" y="680"/>
      <point x="388" y="691"/>
      <point x="436" y="691" type="curve" smooth="yes"/>
      <point x="635" y="691"/>
      <point x="742" y="537"/>
      <point x="686" y="333" type="curve" smooth="yes"/>
      <point x="630" y="127"/>
      <point x="443" y="-19"/>
      <point x="236" y="-19" type="curve" smooth="yes"/>
      <point x="165" y="-19"/>
      <point x="111" y="-2"/>
      <point x="66" y="35" type="curve" smooth="yes"/>
      <point x="40" y="57"/>
      <point x="23" y="77"/>
      <point x="-8" y="127" type="curve"/>
      <point x="29" y="152" type="line"/>
      <point x="71" y="90"/>
      <point x="96" y="66"/>
      <point x="140" y="47" type="curve" smooth="yes"/>
      <point x="166" y="35"/>
      <point x="197" y="29"/>
      <point x="225" y="29" type="curve" smooth="yes"/>
      <point x="291" y="29"/>
      <point x="364" y="64"/>
      <point x="407" y="116" type="curve" smooth="yes"/>
      <point x="448" y="166"/>
      <point x="482" y="234"/>
      <point x="508" y="326" type="curve"/>
    </contour>
  </outline>
</glyph>
<glyph name="afii10049" format="1">
  <advance width="821"/>
  <unicode hex="042F"/>
  <outline>
    <contour>
      <point x="-24" y="25" type="line"/>
      <point x="-6" y="25"/>
      <point x="16" y="31"/>
      <point x="30" y="44" type="curve" smooth="yes"/>
      <point x="307" y="322" type="line"/>
      <point x="253" y="341"/>
      <point x="231" y="354"/>
      <point x="210" y="379" type="curve"/>
      <point x="189" y="406"/>
      <point x="184" y="446"/>
      <point x="196" y="491" type="curve" smooth="yes"/>
      <point x="227" y="606"/>
      <point x="344" y="669"/>
      <point x="527" y="669" type="curve" smooth="yes"/>
      <point x="842" y="669" type="line"/>
      <point x="842" y="644" type="line"/>
      <point x="766" y="639"/>
      <point x="748" y="624"/>
      <point x="729" y="552" type="curve" smooth="yes"/>
      <point x="610" y="117" type="line" smooth="yes"/>
      <point x="590" y="44"/>
      <point x="590" y="34"/>
      <point x="665" y="25" type="curve"/>
      <point x="666" y="0" type="line"/>
      <point x="328" y="0" type="line"/>
      <point x="327" y="25" type="line"/>
      <point x="408" y="35"/>
      <point x="428" y="46"/>
      <point x="448" y="117" type="curve" smooth="yes"/>
      <point x="499" y="306" type="line"/>
      <point x="472" y="306" type="line"/>
      <point x="182" y="0" type="line"/>
      <point x="-23" y="0" type="line"/>
    </contour>
    <contour>
      <point x="578" y="593" type="line" smooth="yes"/>
      <point x="579" y="599"/>
      <point x="580" y="614"/>
      <point x="578" y="620" type="curve" smooth="yes"/>
      <point x="575" y="630"/>
      <point x="560" y="635"/>
      <point x="535" y="635" type="curve" smooth="yes"/>
      <point x="443" y="635"/>
      <point x="394" y="592"/>
      <point x="366" y="487" type="curve" smooth="yes"/>
      <point x="348" y="423"/>
      <point x="353" y="384"/>
      <point x="379" y="363" type="curve" smooth="yes"/>
      <point x="400" y="346"/>
      <point x="432" y="339"/>
      <point x="508" y="338" type="curve"/>
    </contour>
  </outline>
</glyph>
<glyph name="afii10067" format="1">
  <advance width="444"/>
  <unicode hex="0432"/>
  <outline>
    <contour>
      <point x="296" y="232" type="curve"/>
      <point x="350" y="231"/>
      <point x="388" y="199"/>
      <point x="388" y="130" type="curve" smooth="yes"/>
      <point x="388" y="51"/>
      <point x="276" y="-13"/>
      <point x="156" y="-13" type="curve" smooth="yes"/>
      <point x="0" y="-13"/>
      <point x="5" y="50"/>
      <point x="5" y="134" type="curve" smooth="yes"/>
      <point x="5" y="299"/>
      <point x="149" y="462"/>
      <point x="293" y="462" type="curve" smooth="yes"/>
      <point x="354" y="462"/>
      <point x="387" y="426"/>
      <point x="387" y="375" type="curve" smooth="yes"/>
      <point x="387" y="340"/>
      <point x="360" y="256"/>
    </contour>
    <contour>
      <point x="137" y="183" type="curve"/>
      <point x="129" y="165"/>
      <point x="123" y="141"/>
      <point x="123" y="125" type="curve" smooth="yes"/>
      <point x="123" y="55"/>
      <point x="141" y="35"/>
      <point x="175" y="35" type="curve" smooth="yes"/>
      <point x="306" y="35"/>
      <point x="365" y="203"/>
      <point x="207" y="203" type="curve" smooth="yes"/>
      <point x="188" y="203"/>
      <point x="158" y="193"/>
    </contour>
    <contour>
      <point x="151" y="229" type="curve"/>
      <point x="162" y="231"/>
      <point x="183" y="238"/>
      <point x="190" y="241" type="curve" smooth="yes"/>
      <point x="267" y="272"/>
      <point x="324" y="314"/>
      <point x="324" y="390" type="curve" smooth="yes"/>
      <point x="324" y="412"/>
      <point x="296" y="419"/>
      <point x="277" y="419" type="curve" smooth="yes"/>
      <point x="247" y="419"/>
      <point x="201" y="353"/>
    </contour>
  </outline>
</glyph>
<glyph name="afii10069" format="1">
  <advance width="534"/>
  <unicode hex="0434"/>
  <outline>
    <contour>
      <point x="418" y="675" type="curve" smooth="yes"/>
      <point x="583" y="675"/>
      <point x="490" y="359"/>
      <point x="473" y="296" type="curve" smooth="yes"/>
      <point x="409" y="60"/>
      <point x="297" y="-14"/>
      <point x="166" y="-14" type="curve" smooth="yes"/>
      <point x="37" y="-14"/>
      <point x="-31" y="90"/>
      <point x="7" y="229" type="curve" smooth="yes"/>
      <point x="45" y="369"/>
      <point x="170" y="473"/>
      <point x="299" y="473" type="curve" smooth="yes"/>
      <point x="367" y="473"/>
      <point x="400" y="461"/>
      <point x="427" y="412" type="curve"/>
      <point x="442" y="480"/>
      <point x="467" y="597"/>
      <point x="353" y="597" type="curve" smooth="yes"/>
      <point x="290" y="597"/>
      <point x="263" y="577"/>
      <point x="205" y="537" type="curve"/>
      <point x="174" y="584" type="line"/>
      <point x="246" y="644"/>
      <point x="304" y="675"/>
    </contour>
    <contour>
      <point x="289" y="442" type="curve" smooth="yes"/>
      <point x="231" y="442"/>
      <point x="197" y="387"/>
      <point x="153" y="223" type="curve"/>
      <point x="110" y="69"/>
      <point x="116" y="17"/>
      <point x="174" y="17" type="curve" smooth="yes"/>
      <point x="233" y="17"/>
      <point x="267" y="68"/>
      <point x="307" y="214" type="curve" smooth="yes"/>
      <point x="355" y="390"/>
      <point x="351" y="442"/>
    </contour>
  </outline>
</glyph>
